<?xml version="1.0" encoding="utf-8"?>
<!-- Generator: Adobe Illustrator 24.0.1, SVG Export Plug-In . SVG Version: 6.00 Build 0)  -->
<svg version="1.1" id="Слой_1" xmlns="http://www.w3.org/2000/svg" xmlns:xlink="http://www.w3.org/1999/xlink" x="0px" y="0px"
	 viewBox="0 0 612 792" style="enable-background:new 0 0 612 792;" xml:space="preserve">
<style type="text/css">
	.st0{fill:#FFFFFF;}
	.st1{display:none;}
</style>
<g>
	<path class="st0" d="M56,559c0-108.67,0-217.33,0-326c0.26-0.18,0.72-0.33,0.75-0.54c1.59-11.92,5.4-23.15,11.33-33.55
		c12.06-21.17,29.03-37.03,51.95-45.87c7.46-2.87,15.31-4.72,22.98-7.04c108.67,0,217.33,0,326,0c7.67,2.32,15.56,4.07,22.96,7.05
		c27.9,11.22,47.12,31.25,57.92,59.22c2.59,6.7,4.1,13.81,6.11,20.74c0,108.67,0,217.33,0,326c-1.99,6.77-3.57,13.7-6.06,20.29
		c-11.07,29.3-31.34,49.61-60.67,60.66c-6.59,2.48-13.51,4.06-20.28,6.05c-108.67,0-217.33,0-326,0c-0.18-0.26-0.32-0.72-0.53-0.75
		c-18.31-2.94-34.58-10.12-48.97-22.02c-14.29-11.83-25.02-26.06-31.39-43.44C59.63,573.02,58.01,565.94,56,559z M95,395.73
		c0,48.16-0.13,96.32,0.14,144.48c0.04,7.31,0.99,14.89,3.11,21.86c5.68,18.7,17.86,31.86,35.97,39.67
		c9.13,3.94,18.71,5.03,28.3,5.12c35.99,0.33,71.99,0.25,107.98,0.11c62.93-0.24,125.85-0.55,188.78-1.05
		c14.76-0.12,27.16-6.85,37.72-16.57c14.38-13.23,19.92-30.49,19.95-49.53c0.13-87.49,0.09-174.98,0.01-262.47
		c-0.01-11.42-0.21-22.87-1.03-34.26c-1.84-25.36-15.38-42.6-38.17-52.95c-8.84-4.02-18.42-4.99-27.91-5.05
		c-36.99-0.25-73.99-0.22-110.98-0.07c-62.27,0.24-124.54,0.5-186.81,1.08c-14.4,0.13-26.56,6.79-36.96,16.39
		c-14.32,13.22-19.93,30.32-20.02,49.26C94.85,299.75,95,347.74,95,395.73z"/>
	<path class="st1" d="M56,559c2.01,6.94,3.63,14.02,6.11,20.79c6.37,17.38,17.1,31.6,31.39,43.44
		c14.38,11.91,30.66,19.08,48.97,22.02c0.21,0.03,0.36,0.49,0.53,0.75c-28.92,0-57.83,0-87,0C56,617,56,588,56,559z"/>
	<path class="st1" d="M469,646c6.77-1.99,13.69-3.57,20.28-6.05c29.32-11.04,49.59-31.36,60.67-60.66
		c2.49-6.59,4.06-13.52,6.06-20.29c0,29,0,58,0,87C527,646,498,646,469,646z"/>
	<path class="st1" d="M556,233c-2.01-6.92-3.53-14.04-6.11-20.74c-10.81-27.97-30.02-48-57.92-59.22c-7.4-2.98-15.3-4.73-22.96-7.05
		c29,0,58,0,87,0C556,175,556,204,556,233z"/>
	<path class="st1" d="M143,146c-7.67,2.32-15.52,4.16-22.98,7.04c-22.92,8.84-39.89,24.7-51.95,45.87
		c-5.93,10.4-9.73,21.63-11.33,33.55c-0.03,0.21-0.49,0.36-0.75,0.54c0-28.92,0-57.83,0-87C85,146,114,146,143,146z"/>
	<path class="st1" d="M95,395.73c0-47.99-0.15-95.99,0.07-143.98c0.09-18.94,5.7-36.04,20.02-49.26
		c10.39-9.59,22.56-16.25,36.96-16.39c62.27-0.58,124.54-0.84,186.81-1.08c36.99-0.14,73.99-0.17,110.98,0.07
		c9.49,0.06,19.07,1.04,27.91,5.05c22.79,10.36,36.33,27.59,38.17,52.95c0.83,11.39,1.02,22.84,1.03,34.26
		c0.08,87.49,0.12,174.98-0.01,262.47c-0.03,19.04-5.56,36.3-19.95,49.53c-10.57,9.72-22.96,16.45-37.72,16.57
		c-62.92,0.5-125.85,0.8-188.78,1.05c-35.99,0.14-71.99,0.22-107.98-0.11c-9.58-0.09-19.17-1.19-28.3-5.12
		c-18.11-7.81-30.29-20.97-35.97-39.67c-2.12-6.97-3.07-14.55-3.11-21.86C94.87,492.05,95,443.89,95,395.73z M306.49,251
		c-81.85,0.67-143.48,64.71-145.28,140.86c-2.01,84.91,64.86,147.89,142.14,148.94c83.76,1.14,146.5-64.94,147.43-142.65
		C451.79,315.42,386.2,251.91,306.49,251z M448.14,283.33c15.99-0.13,28.89-13.01,28.86-28.82c-0.03-14.15-12.12-30.02-31.7-28.66
		c-13.72,0.95-26.72,14.14-26.22,29.01C419.63,271.07,431.68,283.1,448.14,283.33z"/>
	<path class="st0" d="M306.49,251c79.71,0.91,145.3,64.42,144.3,147.15c-0.94,77.71-63.67,143.79-147.43,142.65
		c-77.28-1.05-144.15-64.03-142.14-148.94C163.01,315.71,224.64,251.67,306.49,251z M201,395.75
		c0.87,59.6,46.22,103.92,102.48,104.97c61.83,1.16,106.33-46.16,107.27-102.48c1.02-61.41-46.08-106.34-103.19-107.03
		C247.09,290.49,201.96,337.44,201,395.75z"/>
	<path class="st0" d="M448.14,283.33c-16.46-0.23-28.51-12.25-29.06-28.48c-0.5-14.87,12.5-28.06,26.22-29.01
		c19.58-1.36,31.67,14.52,31.7,28.66C477.03,270.32,464.13,283.2,448.14,283.33z"/>
	<path class="st1" d="M201,395.75c0.96-58.31,46.09-105.26,106.55-104.53c57.11,0.69,104.21,45.62,103.19,107.03
		c-0.94,56.32-45.44,103.63-107.27,102.48C247.22,499.67,201.87,455.35,201,395.75z"/>
</g>
</svg>
