<?xml version="1.0" encoding="utf-8"?>
<!-- Generator: Adobe Illustrator 24.0.1, SVG Export Plug-In . SVG Version: 6.00 Build 0)  -->
<svg version="1.1" id="Слой_1" xmlns="http://www.w3.org/2000/svg" xmlns:xlink="http://www.w3.org/1999/xlink" x="0px" y="0px"
	 viewBox="0 0 612 792" style="enable-background:new 0 0 612 792;" xml:space="preserve">
<style type="text/css">
	.st0{fill:#FFFFFF;}
	.st1{display:none;}
</style>
<g>
	<path class="st0" d="M347.98,646c-27.67,0-55.34,0-83.01,0c-0.69-0.66-1.28-1.75-2.08-1.92c-5.03-1.12-10.09-2.11-15.17-3.01
		c-11.93-2.12-23.33-5.85-34.61-10.31c-9.73-3.85-18.87-8.63-28.09-13.49c-14.3-7.54-27.48-16.58-39.42-27.31
		c-9.42-8.47-18.11-17.77-26.99-26.83c-4.31-4.4-8.71-8.8-12.37-13.72c-5.75-7.75-11.2-15.77-16.23-24.01
		c-4.39-7.19-8.3-14.7-11.9-22.32c-3.57-7.55-6.74-15.31-9.59-23.15c-2.51-6.92-4.87-13.98-6.36-21.18
		c-2.17-10.53-5.06-21.26-4.89-31.86c0.39-24.94-2.9-49.97,2.43-74.87c2.24-10.48,4.02-20.99,6.97-31.37
		c3.66-12.89,8.58-25.15,14.95-36.78c6.02-10.99,12.54-21.74,19.47-32.18c9.65-14.53,21.69-27.13,34.48-38.9
		c9.03-8.31,18.39-16.34,28.21-23.66c7.33-5.47,15.55-9.8,23.58-14.26c5.56-3.08,11.44-5.59,17.23-8.23
		c5.82-2.66,11.56-5.67,17.62-7.63c9.09-2.94,18.43-5.14,27.69-7.54c2.36-0.61,4.83-0.85,7.26-1.15c9.37-1.16,18.72-2.96,28.11-3.27
		c16.48-0.54,32.99-0.22,49.49-0.1c4.1,0.03,8.27,0.31,12.28,1.11c8.78,1.74,17.5,3.81,26.21,5.88c6.67,1.59,13.52,2.78,19.87,5.24
		c8.68,3.36,16.87,7.94,25.41,11.68c12.52,5.48,23.81,12.92,34.8,20.9c13.06,9.48,25.05,20.25,35.84,32.14
		c10.18,11.22,19.86,23.04,28.45,35.5c7.35,10.65,13.17,22.42,19.05,34c3.2,6.31,5.39,13.19,7.52,19.97
		c3.18,10.17,5.93,20.48,8.79,30.74c1.09,3.92,2.01,7.88,3.01,11.82c0,27.34,0,54.68,0,82.02c-0.64,0.36-1.76,0.62-1.85,1.08
		c-1.14,6.11-1.94,12.28-3.2,18.36c-1.52,7.31-2.86,14.72-5.24,21.76c-2.66,7.87-6.27,15.43-9.72,23.01
		c-3.27,7.2-6.15,14.73-10.48,21.26c-6.9,10.41-14.58,20.35-22.46,30.05c-7.05,8.68-14.26,17.38-22.41,24.99
		c-9.55,8.91-20.01,16.89-30.44,24.8c-7.4,5.62-14.98,11.25-23.2,15.48c-14.72,7.57-29.71,14.8-45.96,18.72
		c-8.06,1.94-16.17,3.7-24.22,5.68C353.82,643.87,350.92,645.03,347.98,646z M87.58,400.01c2.12,55.92,22.4,108.97,64.81,150.55
		c47.77,46.83,106.53,70.46,174.42,63.88c51.97-5.03,98.16-26.21,134.29-63.62c45.6-47.21,69.19-104.74,63.26-171.34
		c-9.51-106.7-93.35-196.7-217.22-201.75C186.81,181.86,92.41,271.13,87.58,400.01z"/>
	<path class="st1" d="M556,355.93c-1-3.94-1.92-7.91-3.01-11.82c-2.87-10.27-5.61-20.57-8.79-30.74
		c-2.12-6.79-4.32-13.66-7.52-19.97c-5.87-11.59-11.7-23.35-19.05-34c-8.6-12.46-18.27-24.28-28.45-35.5
		c-10.79-11.89-22.78-22.66-35.84-32.14c-10.99-7.98-22.29-15.43-34.8-20.9c-8.54-3.74-16.74-8.32-25.41-11.68
		c-6.35-2.46-13.2-3.65-19.87-5.24c-8.71-2.07-17.43-4.14-26.21-5.88c-4.01-0.79-8.18-1.08-12.28-1.11
		c-16.5-0.12-33.01-0.44-49.49,0.1c-9.4,0.31-18.75,2.11-28.11,3.27c-2.43,0.3-4.9,0.54-7.26,1.15c-9.26,2.4-18.6,4.6-27.69,7.54
		c-6.06,1.96-11.79,4.97-17.62,7.63c-5.79,2.64-11.68,5.15-17.23,8.23c-8.03,4.46-16.24,8.8-23.58,14.26
		c-9.83,7.32-19.19,15.35-28.21,23.66c-12.79,11.77-24.82,24.37-34.48,38.9c-6.93,10.44-13.45,21.19-19.47,32.18
		c-6.37,11.64-11.29,23.89-14.95,36.78c-2.95,10.38-4.73,20.89-6.97,31.37c-5.33,24.9-2.04,49.93-2.43,74.87
		c-0.17,10.6,2.72,21.33,4.89,31.86c1.49,7.19,3.84,14.26,6.36,21.18c2.85,7.85,6.02,15.61,9.59,23.15
		c3.6,7.62,7.52,15.13,11.9,22.32c5.03,8.24,10.48,16.25,16.23,24.01c3.65,4.92,8.06,9.33,12.37,13.72
		c8.88,9.06,17.57,18.35,26.99,26.83c11.94,10.73,25.12,19.76,39.42,27.31c9.22,4.87,18.37,9.65,28.09,13.49
		c11.28,4.46,22.68,8.19,34.61,10.31c5.08,0.9,10.14,1.89,15.17,3.01c0.8,0.18,1.39,1.26,2.08,1.92c-69.65,0-139.29,0-208.98,0
		c0-166.63,0-333.25,0-500c166.64,0,333.32,0,500,0C556,215.94,556,285.93,556,355.93z"/>
	<path class="st1" d="M347.98,646c2.94-0.97,5.83-2.13,8.83-2.87c8.05-1.99,16.16-3.74,24.22-5.68
		c16.25-3.92,31.24-11.14,45.96-18.72c8.22-4.23,15.8-9.86,23.2-15.48c10.42-7.91,20.89-15.89,30.44-24.8
		c8.15-7.6,15.36-16.3,22.41-24.99c7.88-9.71,15.56-19.64,22.46-30.05c4.33-6.53,7.21-14.06,10.48-21.26
		c3.45-7.58,7.06-15.14,9.72-23.01c2.38-7.04,3.73-14.45,5.24-21.76c1.26-6.08,2.07-12.25,3.2-18.36c0.09-0.46,1.21-0.73,1.85-1.08
		c0,69.35,0,138.7,0,208.05C486.66,646,417.32,646,347.98,646z"/>
	<path class="st1" d="M87.58,400.01c4.83-128.88,99.23-218.15,219.57-222.28c123.86,5.05,207.7,95.05,217.22,201.75
		c5.94,66.6-17.66,124.13-63.26,171.34c-36.13,37.41-82.32,58.58-134.29,63.62c-67.9,6.58-126.66-17.05-174.42-63.88
		C109.98,508.98,89.7,455.92,87.58,400.01z M373.56,527.92c3.87-1.57,7.93-2.8,11.58-4.78c9.61-5.21,9.36-15.49,11.36-24.25
		c2.22-9.72,2.9-19.77,4.55-29.63c2.48-14.79,5.45-29.5,7.79-44.32c3.28-20.78,6.26-41.61,9.18-62.44
		c2.08-14.83,3.99-29.69,5.68-44.57c0.53-4.65-0.94-8.84-5.51-11.3c-6.38-3.43-13.5-2.97-19.66-1.13
		c-11.42,3.41-22.37,8.45-33.47,12.91c-19.39,7.8-38.74,15.68-58.11,23.52c-8.54,3.45-17.14,6.75-25.62,10.35
		c-14.8,6.28-29.51,12.76-44.27,19.12c-8.37,3.6-16.86,6.93-25.14,10.74c-11.8,5.44-23.51,11.1-35.15,16.88
		c-6.18,3.07-12.33,6.3-18.1,10.06c-4.07,2.65-3.98,8.46-0.1,10.42c7.27,3.67,14.52,7.61,22.21,10.16
		c11.71,3.89,23.73,6.89,35.73,9.83c3.05,0.75,6.56,0.21,9.77-0.32c14.75-2.44,26.05-11.88,38.15-19.5
		c14.22-8.96,28.05-18.55,41.9-28.07c14.17-9.74,27.02-21.53,43.41-27.78c1.53-0.58,3.19-0.85,4.79-1.26
		c-0.49,1.95-0.38,4.45-1.57,5.75c-7.08,7.68-14.32,15.22-21.8,22.5c-3.62,3.53-8.12,6.15-11.82,9.61
		c-7.92,7.38-15.68,14.94-23.33,22.6c-8.04,8.04-18.27,14.16-22.74,25.36c-2.15,5.38-2.37,10.84,1.83,15.38
		c2.16,2.34,5,4.07,7.63,5.94c9.39,6.68,18.73,13.43,28.25,19.91c15.03,10.24,30.12,20.39,45.33,30.36
		C361.44,523.32,366.35,527.59,373.56,527.92z"/>
	<path class="st0" d="M373.56,527.92c-7.21-0.33-12.13-4.6-17.25-7.96c-15.21-9.97-30.3-20.12-45.33-30.36
		c-9.52-6.49-18.86-13.24-28.25-19.91c-2.63-1.87-5.47-3.6-7.63-5.94c-4.2-4.54-3.98-9.99-1.83-15.38
		c4.47-11.2,14.7-17.33,22.74-25.36c7.66-7.66,15.41-15.22,23.33-22.6c3.71-3.45,8.2-6.08,11.82-9.61
		c7.48-7.28,14.72-14.82,21.8-22.5c1.2-1.3,1.08-3.8,1.57-5.75c-1.6,0.41-3.25,0.67-4.79,1.26c-16.39,6.25-29.24,18.04-43.41,27.78
		c-13.85,9.53-27.68,19.11-41.9,28.07c-12.1,7.63-23.4,17.06-38.15,19.5c-3.2,0.53-6.71,1.07-9.77,0.32
		c-11.99-2.94-24.02-5.94-35.73-9.83c-7.68-2.55-14.94-6.49-22.21-10.16c-3.88-1.96-3.97-7.77,0.1-10.42
		c5.77-3.76,11.92-6.99,18.1-10.06c11.64-5.79,23.35-11.44,35.15-16.88c8.27-3.81,16.77-7.14,25.14-10.74
		c14.76-6.36,29.47-12.84,44.27-19.12c8.48-3.6,17.08-6.89,25.62-10.35c19.37-7.84,38.72-15.72,58.11-23.52
		c11.1-4.47,22.04-9.5,33.47-12.91c6.16-1.84,13.28-2.3,19.66,1.13c4.58,2.45,6.05,6.65,5.51,11.3c-1.7,14.88-3.6,29.74-5.68,44.57
		c-2.92,20.83-5.91,41.66-9.18,62.44c-2.34,14.81-5.31,29.53-7.79,44.32c-1.65,9.86-2.34,19.91-4.55,29.63
		c-2,8.76-1.75,19.04-11.36,24.25C381.49,525.12,377.43,526.35,373.56,527.92z"/>
</g>
</svg>
