<?xml version="1.0" encoding="utf-8"?>
<!-- Generator: Adobe Illustrator 24.0.1, SVG Export Plug-In . SVG Version: 6.00 Build 0)  -->
<svg version="1.1" id="Слой_1" xmlns="http://www.w3.org/2000/svg" xmlns:xlink="http://www.w3.org/1999/xlink" x="0px" y="0px"
	 viewBox="0 0 612 792" style="enable-background:new 0 0 612 792;" xml:space="preserve">
<style type="text/css">
	.st0{fill:#FFFFFF;}
	.st1{display:none;}
</style>
<g>
	<path class="st0" d="M556,310c0,37,0,74,0,111c-0.32,0.51-0.87,0.98-0.94,1.53c-1.06,7.95-2.02,15.91-3.07,23.85
		c-2.22,16.77-7.48,32.69-14.79,47.8c-8.39,17.35-19.3,32.91-34.27,45.6c-14.03,11.9-29.28,21.39-46.58,27.44
		c-27.65,9.67-56.15,15.72-85.26,18.74c-15.86,1.65-31.76,3.45-47.67,3.86c-18.73,0.48-37.51-0.51-56.26-0.75
		c-1.67-0.02-3.87,0.31-4.94,1.37c-5.05,5-9.69,10.42-14.67,15.5C234.42,619.34,221.19,632.65,208,646c-8,0-16,0-24,0
		c-7.41-7.12-9.54-15.84-9.14-25.95c0.56-14.12,0.08-28.29,0.18-42.43c0.02-3.31-0.21-5.36-4.46-6.01
		c-4.73-0.73-9.26-2.92-13.83-4.59c-16.84-6.17-32.28-14.9-45.78-26.66c-16.23-14.14-29.1-31.04-37.65-50.84
		c-5.79-13.4-11.12-27.05-13.39-41.66c-0.99-6.34-2.6-12.57-3.93-18.86c0-40.33,0-80.67,0-121c0.32-0.51,0.84-0.98,0.94-1.52
		c1.55-8.83,2.55-17.79,4.67-26.48c4.13-16.91,9.41-33.54,18.67-48.4c6.28-10.09,12.96-20.15,20.9-28.93
		c14.65-16.2,33.71-26.65,53.72-34.34c28.51-10.95,58.19-17.94,88.79-20.38c4.13-0.33,8.21-1.28,12.31-1.95c32,0,64,0,96,0
		c5.1,0.67,10.2,1.38,15.3,1.99c8.94,1.06,18.01,1.46,26.82,3.21c21.54,4.27,42.79,9.69,63.29,17.77
		c16.2,6.39,31.42,14.61,44.7,25.82c14.75,12.44,25.85,27.95,33.87,45.47c7.31,15.96,12.8,32.58,16.04,49.89
		C553.26,296.79,554.67,303.39,556,310z M192.48,604.06c-0.17,0.01-0.34,0.02-0.52,0.02c0,7.67,0.06,15.33-0.02,23
		c-0.04,3.87,1.9,4.87,5.03,3.35c2.46-1.2,4.94-2.75,6.8-4.72c12.57-13.37,25.08-26.81,37.42-40.41
		c9.63-10.62,18.93-21.54,28.53-32.2c1.04-1.15,3.05-1.96,4.64-2c7.71-0.21,15.43,0,23.15-0.13c12.81-0.22,25.64-0.17,38.42-0.99
		c12.95-0.83,25.82-2.75,38.75-3.88c19.66-1.72,38.36-7.77,57.28-12.7c12.67-3.3,24.22-9.45,34.89-17.3
		c17.91-13.17,30.46-30.28,38.18-50.92c4.92-13.17,8.1-26.79,9.14-40.94c0.84-11.42,3.13-22.75,3.7-34.17
		c0.66-13.35,0.27-26.77,0.11-40.15c-0.1-8.33-0.4-16.66-1.02-24.96c-0.45-6.04-1.16-12.13-2.48-18.03
		c-3.8-17.02-7.67-33.95-15.17-49.98c-8.95-19.14-21.59-34.73-40.1-44.76c-19.17-10.4-40.02-16.6-61.3-21.09
		c-10.54-2.22-21.26-3.75-31.97-5.03c-9.51-1.13-19.11-1.58-28.68-2.15c-7.65-0.45-15.31-0.59-22.96-0.94
		c-5.8-0.26-11.59-0.9-17.38-0.88c-6.62,0.02-13.25,0.41-19.85,0.94c-15.38,1.25-30.99,1.41-46.05,4.36
		c-18.46,3.62-36.68,8.95-54.58,14.82c-15.94,5.23-30.63,13.47-42.46,25.69c-16.68,17.23-26.56,38-32.34,61.29
		c-5.15,20.74-7.1,41.65-7.6,62.84c-0.16,6.69,0.06,13.38-0.08,20.07c-0.18,8.8-1.38,17.67-0.63,26.38
		c1.28,14.81,2.79,29.71,5.9,44.22c5.7,26.63,17.24,50.36,38.46,68.5c14.4,12.31,30.81,20.79,49.04,25.67
		c3.92,1.05,5.58,2.45,5.36,6.61c-0.55,10.26-1.08,20.53-1,30.8C191.14,584.21,191.98,594.14,192.48,604.06z"/>
	<path class="st1" d="M208,646c13.19-13.35,26.42-26.66,39.55-40.07c4.98-5.08,9.62-10.5,14.67-15.5c1.07-1.06,3.27-1.39,4.94-1.37
		c18.76,0.24,37.53,1.23,56.26,0.75c15.92-0.41,31.82-2.21,47.67-3.86c29.11-3.02,57.61-9.07,85.26-18.74
		c17.3-6.05,32.55-15.54,46.58-27.44c14.97-12.69,25.87-28.25,34.27-45.6c7.31-15.11,12.56-31.03,14.79-47.8
		c1.05-7.95,2.01-15.91,3.07-23.85c0.07-0.54,0.61-1.02,0.94-1.53c0,75,0,150,0,225C440,646,324,646,208,646z"/>
	<path class="st1" d="M56,429c1.33,6.28,2.95,12.52,3.93,18.86c2.27,14.61,7.6,28.25,13.39,41.66c8.55,19.8,21.42,36.7,37.65,50.84
		c13.5,11.76,28.94,20.49,45.78,26.66c4.57,1.67,9.1,3.86,13.83,4.59c4.25,0.65,4.48,2.7,4.46,6.01
		c-0.1,14.15,0.38,28.31-0.18,42.43c-0.4,10.11,1.74,18.83,9.14,25.95c-42.67,0-85.33,0-128,0C56,573.67,56,501.33,56,429z"/>
	<path class="st1" d="M556,310c-1.33-6.61-2.74-13.21-3.98-19.85c-3.24-17.31-8.73-33.92-16.04-49.89
		c-8.02-17.52-19.12-33.03-33.87-45.47c-13.29-11.21-28.5-19.44-44.7-25.82c-20.5-8.08-41.75-13.5-63.29-17.77
		c-8.81-1.75-17.88-2.15-26.82-3.21c-5.11-0.61-10.2-1.32-15.3-1.99c68,0,136,0,204,0C556,200.67,556,255.33,556,310z"/>
	<path class="st1" d="M256,146c-4.1,0.66-8.18,1.62-12.31,1.95c-30.6,2.44-60.28,9.43-88.79,20.38
		c-20.02,7.69-39.07,18.14-53.72,34.34c-7.94,8.78-14.62,18.84-20.9,28.93c-9.26,14.86-14.54,31.5-18.67,48.4
		c-2.12,8.69-3.12,17.65-4.67,26.48c-0.1,0.55-0.62,1.02-0.94,1.52c0-53.93,0-107.85,0-162C122.67,146,189.33,146,256,146z"/>
	<path class="st1" d="M192.48,604.06c-0.5-9.93-1.34-19.85-1.41-29.78c-0.08-10.26,0.45-20.54,1-30.8c0.22-4.16-1.44-5.56-5.36-6.61
		c-18.22-4.88-34.63-13.36-49.04-25.67c-21.22-18.14-32.76-41.87-38.46-68.5c-3.1-14.5-4.62-29.41-5.9-44.22
		c-0.75-8.71,0.45-17.58,0.63-26.38c0.14-6.69-0.08-13.38,0.08-20.07c0.5-21.19,2.46-42.1,7.6-62.84
		c5.78-23.28,15.67-44.05,32.34-61.29c11.83-12.22,26.52-20.47,42.46-25.69c17.9-5.87,36.12-11.2,54.58-14.82
		c15.06-2.95,30.67-3.12,46.05-4.36c6.6-0.54,13.23-0.92,19.85-0.94c5.79-0.02,11.59,0.62,17.38,0.88
		c7.65,0.35,15.32,0.49,22.96,0.94c9.57,0.57,19.17,1.01,28.68,2.15c10.71,1.28,21.42,2.81,31.97,5.03
		c21.27,4.49,42.13,10.69,61.3,21.09c18.5,10.04,31.15,25.63,40.1,44.76c7.49,16.03,11.37,32.96,15.17,49.98
		c1.32,5.91,2.03,11.99,2.48,18.03c0.62,8.3,0.92,16.64,1.02,24.96c0.16,13.39,0.55,26.8-0.11,40.15
		c-0.57,11.42-2.86,22.75-3.7,34.17c-1.04,14.14-4.21,27.77-9.14,40.94c-7.72,20.64-20.27,37.76-38.18,50.92
		c-10.67,7.84-22.22,14-34.89,17.3c-18.92,4.93-37.62,10.98-57.28,12.7c-12.93,1.13-25.8,3.05-38.75,3.88
		c-12.78,0.82-25.61,0.78-38.42,0.99c-7.72,0.13-15.44-0.08-23.15,0.13c-1.59,0.04-3.6,0.85-4.64,2
		c-9.6,10.65-18.9,21.58-28.53,32.2c-12.33,13.6-24.84,27.03-37.42,40.41c-1.86,1.97-4.34,3.52-6.8,4.72
		c-3.12,1.52-5.06,0.52-5.03-3.35c0.08-7.66,0.02-15.33,0.02-23C192.13,604.08,192.3,604.07,192.48,604.06z M211.51,248.42
		c-3.08,0.97-6.5,1.38-9.17,3.01c-7.23,4.41-14.94,8.5-21.03,14.23c-12.45,11.74-23.05,23.15-13.54,43.48
		c8.32,17.78,16.6,35.73,26.83,52.41c10.34,16.86,22.25,32.94,34.99,48.08c10.15,12.07,22.02,22.9,34.18,33.01
		c9.99,8.3,21.36,15,32.4,21.96c24.67,15.54,50.63,28.51,78.49,37.33c10.94,3.46,21,0.86,30.52-5.48
		c10.36-6.89,18.1-16.18,24.39-26.5c5.97-9.78,5.08-18.01-3.53-25.03c-11.52-9.39-23.87-17.77-36.08-26.29
		c-4.26-2.97-8.97-5.51-13.79-7.44c-12.68-5.07-23.01-1.57-31.2,10.03c-7.6,10.76-13.69,13.73-23.84,10.33
		c-20.55-6.87-39.16-16.82-53.89-33.43c-10.94-12.33-19.86-25.8-25.68-41.1c-3.9-10.25-2.52-15.73,6.71-22.1
		c2.01-1.39,4.26-2.5,6.09-4.09c6.62-5.74,12.57-12.26,9.43-21.81c-1.99-6.07-5.09-12.03-8.82-17.23
		c-7.85-10.94-16.23-21.53-24.8-31.92C225.47,254.16,220.14,248.76,211.51,248.42z M309.07,235.02c-2.66,0-5.33-0.1-7.99,0.02
		c-4.17,0.19-6.48,3.21-6.76,6.63c-0.3,3.58,2.05,6.62,6.02,7.24c3.72,0.58,7.55,0.52,11.27,1.11c9.81,1.56,19.76,2.67,29.34,5.16
		c19.13,4.97,35.96,14.7,50.5,27.95c11.9,10.85,20.49,24.3,26.22,39.33c2.72,7.12,4.96,14.57,6.17,22.08
		c1.43,8.9,1.49,18.02,2.19,27.03c0.37,4.72,4.29,8.51,8.57,8.41c4.2-0.1,7.38-3.81,7.38-8.79c0.01-13.66-2.46-26.86-5.69-40.16
		c-4.58-18.84-13.67-35.12-25.73-49.62c-11.41-13.72-25.82-24.33-42-32.03C349.8,240.45,330.05,235.07,309.07,235.02z
		 M408.22,354.92c-2.11-8.91-3.8-17.66-6.29-26.18c-4.44-15.18-13.32-27.3-25.24-37.84c-17.58-15.55-38.82-20.63-60.96-23.77
		c-5.19-0.74-9.01,3.56-8.72,8.83c0.23,4.28,3.46,6.73,8.99,7.07c3.77,0.23,7.58,0.41,11.26,1.17
		c18.61,3.82,35.89,10.58,47.64,26.37c5.28,7.09,9.96,15.12,12.76,23.44c2.6,7.74,2.05,16.49,3.5,24.68
		c0.47,2.67,2.45,5.49,4.54,7.34c2.74,2.43,6.39,1.32,8.29-1.24C406,362.13,406.75,358.55,408.22,354.92z M372.11,347.22
		c-0.26-9.55-2.74-17.14-7.17-24.24c-9.46-15.18-23.83-20.73-40.82-20.83c-3.26-0.02-6.76,1.47-7.14,5.96
		c-0.38,4.47,1.28,7.33,5.83,8.17c1.6,0.3,3.22,0.5,4.83,0.7c16.07,1.95,27.11,9.32,28.42,27.31c0.2,2.69,0.65,5.63,1.95,7.9
		c1.71,2.99,4.85,4.76,8.45,3.51C370.92,354.17,373.06,350.92,372.11,347.22z"/>
	<path class="st0" d="M211.51,248.42c8.62,0.34,13.96,5.74,18.67,11.46c8.57,10.39,16.95,20.98,24.8,31.92
		c3.73,5.2,6.83,11.16,8.82,17.23c3.14,9.55-2.81,16.07-9.43,21.81c-1.83,1.59-4.08,2.7-6.09,4.09c-9.23,6.38-10.61,11.85-6.71,22.1
		c5.82,15.29,14.74,28.76,25.68,41.1c14.73,16.61,33.34,26.56,53.89,33.43c10.15,3.4,16.24,0.43,23.84-10.33
		c8.19-11.6,18.52-15.11,31.2-10.03c4.83,1.93,9.53,4.47,13.79,7.44c12.21,8.51,24.56,16.9,36.08,26.29
		c8.61,7.02,9.49,15.25,3.53,25.03c-6.3,10.32-14.04,19.61-24.39,26.5c-9.52,6.34-19.58,8.94-30.52,5.48
		c-27.86-8.81-53.82-21.78-78.49-37.33c-11.04-6.96-22.42-13.66-32.4-21.96c-12.16-10.11-24.03-20.94-34.18-33.01
		c-12.74-15.14-24.65-31.22-34.99-48.08c-10.23-16.69-18.52-34.63-26.83-52.41c-9.51-20.33,1.1-31.75,13.54-43.48
		c6.08-5.74,13.79-9.83,21.03-14.23C205.02,249.8,208.44,249.38,211.51,248.42z"/>
	<path class="st0" d="M309.07,235.02c20.98,0.05,40.73,5.43,59.5,14.37c16.18,7.7,30.59,18.31,42,32.03
		c12.06,14.51,21.16,30.79,25.73,49.62c3.23,13.31,5.7,26.51,5.69,40.16c0,4.98-3.18,8.69-7.38,8.79c-4.29,0.1-8.21-3.69-8.57-8.41
		c-0.7-9.02-0.76-18.14-2.19-27.03c-1.21-7.5-3.45-14.96-6.17-22.08c-5.73-15.03-14.32-28.48-26.22-39.33
		c-14.54-13.25-31.37-22.99-50.5-27.95c-9.58-2.49-19.53-3.6-29.34-5.16c-3.72-0.59-7.55-0.53-11.27-1.11
		c-3.97-0.62-6.31-3.65-6.02-7.24c0.28-3.42,2.59-6.44,6.76-6.63C303.74,234.92,306.41,235.02,309.07,235.02z"/>
	<path class="st0" d="M408.22,354.92c-1.47,3.62-2.23,7.21-4.21,9.87c-1.9,2.55-5.55,3.66-8.29,1.24c-2.09-1.85-4.07-4.67-4.54-7.34
		c-1.45-8.2-0.9-16.95-3.5-24.68c-2.8-8.33-7.48-16.35-12.76-23.44c-11.76-15.79-29.03-22.55-47.64-26.37
		c-3.68-0.76-7.5-0.94-11.26-1.17c-5.53-0.34-8.77-2.79-8.99-7.07c-0.28-5.27,3.54-9.57,8.72-8.83
		c22.14,3.15,43.38,8.23,60.96,23.77c11.93,10.55,20.81,22.66,25.24,37.84C404.43,337.26,406.11,346.02,408.22,354.92z"/>
	<path class="st0" d="M372.11,347.22c0.95,3.7-1.19,6.94-5.64,8.49c-3.6,1.25-6.74-0.52-8.45-3.51c-1.3-2.27-1.76-5.21-1.95-7.9
		c-1.31-17.99-12.35-25.36-28.42-27.31c-1.62-0.2-3.23-0.4-4.83-0.7c-4.55-0.85-6.21-3.7-5.83-8.17c0.38-4.49,3.87-5.98,7.14-5.96
		c16.99,0.1,31.36,5.65,40.82,20.83C369.37,330.09,371.86,337.67,372.11,347.22z"/>
</g>
</svg>
