<?xml version="1.0" encoding="utf-8"?>
<!-- Generator: Adobe Illustrator 24.0.1, SVG Export Plug-In . SVG Version: 6.00 Build 0)  -->
<svg version="1.1" id="Слой_1" xmlns="http://www.w3.org/2000/svg" xmlns:xlink="http://www.w3.org/1999/xlink" x="0px" y="0px"
	 viewBox="0 0 612 792" style="enable-background:new 0 0 612 792;" xml:space="preserve">
<style type="text/css">
	.st0{fill:#FFFFFF;}
	.st1{display:none;}
</style>
<g>
	<path class="st0" d="M292,146c10.33,0,20.67,0,31,0c3.27,0.67,6.51,1.48,9.81,1.97c9.86,1.48,19.91,2.11,29.59,4.36
		c29.77,6.92,57.75,18.17,82.71,36.2c10.32,7.45,20.73,14.78,31.07,22.19c0.8,0.57,1.95,1.36,2.01,2.13
		c0.37,4.3,3.77,5.99,6.46,8.54c6.34,6,12.69,12.09,18.25,18.79c5.82,7.02,10.85,14.72,15.96,22.3c1.89,2.81,3.03,6.12,4.51,9.2
		c2.34,4.4,5.9,8.3,8.28,12.82c2.42,4.6,3.67,9.81,5.43,14.75c1.6,4.5,3.38,8.95,4.72,13.52c0.81,2.76,0.83,5.75,1.42,8.59
		c0.58,2.8,1.33,5.56,2.18,8.29c0.97,3.11,2.44,6.09,3.1,9.25c0.67,3.21,0.33,6.62,0.93,9.85c0.91,4.89,2.89,9.66,3.25,14.56
		c0.6,7.99,0.15,16.06,0.34,24.09c0.43,17.86-1.65,35.41-4.86,52.98c-5.6,30.6-17.83,58.31-34.38,84.38
		c-14.75,23.24-33.55,42.91-55.06,59.67c-20.62,16.07-43.25,29.14-68.19,37.74c-19.68,6.79-39.68,12.24-60.61,12.75
		c-17.69,0.43-35.47,1.09-53.07-0.27c-13.21-1.02-26.45-4.19-39.17-8.07c-13.3-4.05-26.23-9.6-38.87-15.47
		c-6.77-3.15-12.75-4.87-19.89-1.69c-4.6,2.05-9.6,3.28-14.5,4.56c-13.06,3.43-26.17,6.68-39.26,10.01
		c-22.32,5.67-44.65,11.34-67.24,17.09c0.45-2.37,0.64-5.1,1.51-7.6c1.24-3.55,3.25-6.85,4.43-10.42c1.08-3.26,1.06-6.9,2.3-10.08
		c1.65-4.23,1.6-8.77,3.56-13.04c2.34-5.08,3.04-10.92,4.44-16.43c0.17-0.68,0.36-1.38,0.38-2.07c0.03-1.37-0.2-2.76-0.03-4.1
		c0.07-0.52,1.44-1.21,1.36-1.36c-2.46-4.61,1.39-8.05,2.25-11.99c1.11-5.08,2.88-10.01,4.34-15.01c0.59-2.03,0.93-4.16,1.72-6.11
		c0.68-1.66,2.29-3.02,2.7-4.7c0.73-2.97,0.76-6.11,1.28-9.15c0.27-1.6,0.88-3.15,1.46-4.68c0.87-2.28,1.61-4.65,2.83-6.74
		c2.08-3.57,0.09-6.29-1.35-9.26c-4.82-9.94-10.11-19.71-14.2-29.95c-7.53-18.87-12.17-38.53-13.91-58.82
		c-0.42-4.92-0.96-9.85-1.05-14.79c-0.16-8.87-0.03-17.74-0.02-26.61c0-3.66,0.21-7.34-0.1-10.98c-0.13-1.58-1.33-3.07-2.04-4.6
		c0.48-0.2,0.96-0.4,1.44-0.6c0.45,0.67,0.9,1.34,1.35,2.01c0.31-2.1-0.14-3.88-1.05-5.39c-1.27-2.13-0.18-3.53,2.69-2.75
		c0-4.09-1.45-10.64,0.27-11.62c5.12-2.93-1.8-8.62,3.43-10.51c0.05-0.02-0.13-0.91-0.32-1.34c-0.34-0.78-1.28-1.69-1.09-2.27
		c3.04-9.55,5.68-19.27,9.5-28.51c3.94-9.53,9.55-18.37,13.48-27.9c2.51-6.09,6.65-11.04,10.09-16.32
		c7.03-10.83,15.01-21.21,23.73-30.74c7.5-8.2,16.14-15.55,25.05-22.25c13.23-9.95,26.85-19.48,40.89-28.23
		c8.11-5.05,17.27-8.5,26.16-12.18c21.08-8.74,43.06-13.94,65.79-16.03C284.82,147.62,288.4,146.67,292,146z M119.47,581.6
		c3.69-1.47,6.23-2.8,8.93-3.5c21.86-5.6,43.74-11.11,65.65-16.52c1.16-0.29,2.69,0.31,3.87,0.87c13.57,6.49,26.85,13.65,40.7,19.43
		c14.27,5.96,29.54,8.37,44.91,10.39c17.89,2.34,35.69,1.84,53.34-0.55c16.71-2.26,33.09-6.46,48.57-13.74
		c19.04-8.97,37.71-18.3,53.29-32.94c12.39-11.64,24.61-23.2,34.56-37.27c21.83-30.88,34.14-65.03,36.47-102.53
		c0.91-14.7-0.37-29.65-1.87-44.37c-2.11-20.78-9.29-40.23-18.37-58.93c-12.18-25.09-29.4-46.4-50.54-64.42
		c-19.09-16.27-40.38-29.27-64.3-37.03c-13.13-4.26-26.87-6.91-40.5-9.32c-9.2-1.63-18.72-2.25-28.07-2.08
		c-10.04,0.19-20.08,1.57-30.06,2.93c-23.5,3.2-45.59,10.26-66.32,22.28c-18.48,10.72-36.06,22.26-50.19,38.44
		c-7.27,8.32-15.3,16.29-20.98,25.63c-8.12,13.37-14.8,27.67-21.35,41.91c-8.71,18.93-11.64,39.36-13.06,59.91
		c-0.67,9.71-0.33,19.65,0.94,29.3c1.78,13.66,3.91,27.4,7.58,40.64c5.35,19.3,14.28,37.18,25.41,53.91
		c0.88,1.33,1.48,3.43,1.12,4.9c-1.96,8.16-4.22,16.24-6.44,24.33C128.47,549.01,124.13,564.71,119.47,581.6z"/>
	<path class="st1" d="M292,146c-3.6,0.67-7.18,1.62-10.81,1.95c-22.73,2.09-44.71,7.28-65.79,16.03
		c-8.89,3.69-18.05,7.13-26.16,12.18c-14.05,8.75-27.66,18.28-40.89,28.23c-8.91,6.7-17.55,14.04-25.05,22.25
		c-8.72,9.53-16.7,19.91-23.73,30.74c-3.43,5.29-7.57,10.23-10.09,16.32c-3.94,9.53-9.54,18.37-13.48,27.9
		c-3.82,9.23-6.46,18.96-9.5,28.51c-0.18,0.58,0.75,1.48,1.09,2.27c0.19,0.43,0.38,1.32,0.32,1.34c-5.23,1.89,1.69,7.58-3.43,10.51
		c-1.72,0.99-0.27,7.53-0.27,11.62c-2.87-0.79-3.96,0.62-2.69,2.75c0.9,1.51,1.36,3.29,1.05,5.39c-0.45-0.67-0.9-1.34-1.35-2.01
		c-0.48,0.2-0.96,0.4-1.44,0.6c0.71,1.53,1.91,3.02,2.04,4.6c0.31,3.64,0.1,7.32,0.1,10.98c-0.01,8.87-0.14,17.74,0.02,26.61
		c0.09,4.93,0.63,9.86,1.05,14.79c1.74,20.29,6.38,39.96,13.91,58.82c4.09,10.24,9.38,20,14.2,29.95c1.44,2.98,3.43,5.69,1.35,9.26
		c-1.22,2.09-1.96,4.46-2.83,6.74c-0.58,1.53-1.19,3.08-1.46,4.68c-0.52,3.04-0.55,6.17-1.28,9.15c-0.41,1.68-2.02,3.04-2.7,4.7
		c-0.79,1.95-1.13,4.08-1.72,6.11c-1.46,5-3.23,9.93-4.34,15.01c-0.86,3.94-4.71,7.38-2.25,11.99c0.08,0.15-1.29,0.84-1.36,1.36
		c-0.17,1.34,0.06,2.73,0.03,4.1c-0.01,0.69-0.2,1.39-0.38,2.07c-1.4,5.51-2.1,11.35-4.44,16.43c-1.96,4.27-1.91,8.81-3.56,13.04
		c-1.24,3.17-1.23,6.82-2.3,10.08c-1.18,3.57-3.19,6.86-4.43,10.42c-0.87,2.5-1.06,5.24-1.51,7.6
		c22.59-5.74,44.91-11.41,67.24-17.09c13.09-3.33,26.2-6.58,39.26-10.01c4.9-1.29,9.9-2.51,14.5-4.56
		c7.14-3.19,13.11-1.46,19.89,1.69c12.64,5.87,25.57,11.42,38.87,15.47c12.72,3.88,25.97,7.05,39.17,8.07
		c17.59,1.36,35.38,0.7,53.07,0.27c20.93-0.5,40.94-5.96,60.61-12.75c24.94-8.6,47.57-21.68,68.19-37.74
		c21.51-16.76,40.31-36.43,55.06-59.67c16.55-26.07,28.79-53.78,34.38-84.38c3.21-17.57,5.29-35.12,4.86-52.98
		c-0.2-8.03,0.25-16.1-0.34-24.09c-0.37-4.91-2.35-9.67-3.25-14.56c-0.6-3.23-0.26-6.64-0.93-9.85c-0.66-3.16-2.13-6.14-3.1-9.25
		c-0.85-2.73-1.6-5.5-2.18-8.29c-0.59-2.84-0.61-5.82-1.42-8.59c-1.34-4.57-3.12-9.02-4.72-13.52c-1.76-4.94-3.01-10.15-5.43-14.75
		c-2.37-4.52-5.93-8.41-8.28-12.82c-1.48-3.08-2.62-6.4-4.51-9.2c-5.11-7.58-10.14-15.28-15.96-22.3
		c-5.56-6.7-11.91-12.79-18.25-18.79c-2.69-2.55-6.09-4.24-6.46-8.54c-0.07-0.77-1.21-1.56-2.01-2.13
		c-10.34-7.42-20.75-14.74-31.07-22.19c-24.96-18.04-52.94-29.28-82.71-36.2c-9.68-2.25-19.73-2.89-29.59-4.36
		c-3.29-0.49-6.54-1.3-9.81-1.97c77.67,0,155.33,0,233,0c0,166.67,0,333.33,0,500c-166.67,0-333.33,0-500,0c0-166.67,0-333.33,0-500
		C134.67,146,213.33,146,292,146z"/>
	<path class="st1" d="M119.47,581.6c4.66-16.89,9-32.59,13.3-48.31c2.22-8.09,4.48-16.18,6.44-24.33c0.35-1.48-0.24-3.58-1.12-4.9
		c-11.13-16.73-20.06-34.61-25.41-53.91c-3.67-13.24-5.79-26.99-7.58-40.64c-1.26-9.65-1.61-19.59-0.94-29.3
		c1.42-20.54,4.35-40.97,13.06-59.91c6.55-14.24,13.23-28.55,21.35-41.91c5.67-9.35,13.7-17.31,20.98-25.63
		c14.13-16.17,31.71-27.72,50.19-38.44c20.73-12.02,42.82-19.08,66.32-22.28c9.97-1.36,20.02-2.74,30.06-2.93
		c9.35-0.18,18.87,0.45,28.07,2.08c13.63,2.41,27.37,5.06,40.5,9.32c23.92,7.76,45.2,20.76,64.3,37.03
		c21.14,18.01,38.36,39.32,50.54,64.42c9.08,18.69,16.26,38.15,18.37,58.93c1.5,14.71,2.78,29.67,1.87,44.37
		c-2.33,37.49-14.64,71.65-36.47,102.53c-9.94,14.06-22.16,25.63-34.56,37.27c-15.58,14.63-34.24,23.97-53.29,32.94
		c-15.48,7.29-31.86,11.48-48.57,13.74c-17.65,2.39-35.46,2.89-53.34,0.55c-15.37-2.01-30.64-4.43-44.91-10.39
		c-13.86-5.78-27.14-12.94-40.7-19.43c-1.18-0.56-2.71-1.16-3.87-0.87c-21.91,5.41-43.79,10.92-65.65,16.52
		C125.7,578.8,123.16,580.14,119.47,581.6z M181.81,337.03c0.22,19.9,7.65,37.88,18.74,54.4c12.08,17.99,24.87,35.46,39.92,51.2
		c13.88,14.53,29.07,27.53,46.25,37.75c11.28,6.71,23.59,11.95,35.92,16.59c18.15,6.84,36.55,13.3,56.53,12.02
		c15.1-0.97,27.58-7.76,38.99-17.09c9.46-7.74,12.62-18.66,13.53-29.93c0.87-10.76,3.19-13.39-10.97-19.91
		c-5.95-2.74-11.74-5.84-17.72-8.51c-9.7-4.32-19.52-8.37-29.23-12.65c-4-1.77-7.19-0.35-9.61,2.54
		c-6.66,7.99-13.14,16.15-19.54,24.36c-3.31,4.25-6.91,5.69-11.6,3.82c-3.34-1.33-6.61-2.85-9.82-4.46
		c-19.62-9.85-38.38-20.99-52.51-38.26c-7.83-9.57-15.12-19.61-22.21-29.75c-2.72-3.88-2.24-7.87,1.36-12.04
		c5.89-6.82,10.98-14.37,16.04-21.85c1.16-1.71,1.77-4.79,1.05-6.61c-6.45-16.22-13.15-32.34-20.01-48.39
		c-2.84-6.65-5.9-13.35-15.22-12.35c-3.44,0.37-7.16,0.93-10.37,0.04c-3.73-1.04-6.59-0.32-9.46,1.61
		C191.67,293.18,182.08,312.38,181.81,337.03z"/>
	<path class="st0" d="M181.81,337.03c0.27-24.65,9.86-43.85,30.08-57.45c2.87-1.93,5.73-2.65,9.46-1.61
		c3.21,0.89,6.92,0.33,10.37-0.04c9.32-1,12.38,5.7,15.22,12.35c6.85,16.05,13.56,32.17,20.01,48.39c0.72,1.82,0.1,4.9-1.05,6.61
		c-5.06,7.49-10.15,15.03-16.04,21.85c-3.6,4.17-4.08,8.16-1.36,12.04c7.1,10.13,14.38,20.18,22.21,29.75
		c14.13,17.26,32.9,28.4,52.51,38.26c3.21,1.61,6.48,3.13,9.82,4.46c4.69,1.87,8.29,0.42,11.6-3.82
		c6.4-8.21,12.87-16.36,19.54-24.36c2.42-2.9,5.61-4.31,9.61-2.54c9.71,4.29,19.53,8.33,29.23,12.65
		c5.98,2.67,11.77,5.77,17.72,8.51c14.15,6.52,11.84,9.15,10.97,19.91c-0.91,11.27-4.07,22.19-13.53,29.93
		c-11.41,9.33-23.89,16.12-38.99,17.09c-19.98,1.28-38.38-5.17-56.53-12.02c-12.32-4.64-24.63-9.88-35.92-16.59
		c-17.18-10.22-32.37-23.23-46.25-37.75c-15.05-15.74-27.84-33.21-39.92-51.2C189.46,374.91,182.03,356.93,181.81,337.03z"/>
</g>
</svg>
