<?xml version="1.0" encoding="utf-8"?>
<!-- Generator: Adobe Illustrator 24.0.1, SVG Export Plug-In . SVG Version: 6.00 Build 0)  -->
<svg version="1.1" id="Слой_1" xmlns="http://www.w3.org/2000/svg" xmlns:xlink="http://www.w3.org/1999/xlink" x="0px" y="0px"
	 viewBox="0 0 612 792" style="enable-background:new 0 0 612 792;" xml:space="preserve">
<style type="text/css">
	.st0{display:none;}
	.st1{fill:#FFFFFF;}
</style>
<g>
	<path class="st0" d="M6,96c200,0,400,0,600,0c0,200,0,400,0,600c-200,0-400,0-600,0C6,496,6,296,6,96z M279.21,388.23
		c2.22-1.56,4.07-2.49,5.46-3.88c41.15-41.08,82.27-82.2,123.38-123.32c12.32-12.32,12.5-27.25,0.24-39.68
		c-13.57-13.76-27.26-27.4-41.04-40.94c-12.86-12.64-27.65-12.41-40.39,0.34c-62.67,62.68-125.34,125.36-188.02,188.03
		c-12.93,12.93-12.82,27.7,0.17,40.66c31.13,31.07,62.2,62.2,93.3,93.3c32.04,32.04,64.07,64.1,96.16,96.1
		c10.81,10.77,26.71,10.74,37.56-0.01c14.2-14.08,28.39-28.16,42.44-42.38c12.01-12.17,11.82-27.22-0.28-39.33
		c-24.97-24.98-49.95-49.96-74.93-74.92C315.7,424.64,298.13,407.12,279.21,388.23z"/>
	<path class="st1" d="M316.76,394.66c34.38,34.32,66.3,66.16,98.2,98.03c45.4,45.37,90.79,90.75,136.17,136.15
		c21.98,21.99,22.33,49.36,0.5,71.46c-25.53,25.85-51.32,51.43-77.12,77.01c-19.7,19.54-48.61,19.61-68.25,0.03
		c-58.31-58.14-116.51-116.4-174.74-174.63C174.99,546.2,118.54,489.63,61.96,433.18c-23.6-23.55-23.8-50.4-0.3-73.89
		c113.9-113.88,227.79-227.77,341.67-341.68c23.16-23.17,50.04-23.59,73.4-0.61c25.04,24.62,49.93,49.4,74.58,74.4
		c22.28,22.59,21.95,49.71-0.43,72.1c-74.7,74.73-149.41,149.45-224.2,224.1C324.15,390.13,320.79,391.83,316.76,394.66z"/>
</g>
</svg>
