<?xml version="1.0" encoding="utf-8"?>
<!-- Generator: Adobe Illustrator 24.0.1, SVG Export Plug-In . SVG Version: 6.00 Build 0)  -->
<svg version="1.1" id="Слой_1" xmlns="http://www.w3.org/2000/svg" xmlns:xlink="http://www.w3.org/1999/xlink" x="0px" y="0px"
	 viewBox="0 0 612 792" style="enable-background:new 0 0 612 792;" xml:space="preserve">
<style type="text/css">
	.st0{display:none;}
	.st1{fill:#FFFFFF;}
</style>
<g>
	<path class="st0" d="M606,696c-200,0-400,0-600,0C6,496,6,296,6,96c200,0,400,0,600,0C606,296,606,496,606,696z M332.15,389.24
		c-2.3,2.05-3.99,3.41-5.52,4.94c-40.43,40.4-80.59,81.06-121.4,121.07c-12.12,11.88-12.33,29.99-0.07,41.36
		c14.04,13.02,27.2,26.98,40.8,40.48c11.32,11.23,26.94,11.23,38.22-0.05c63.05-63,126.09-126.02,189.1-189.06
		c11.16-11.16,11.21-26.6,0.07-37.75c-63.12-63.17-126.27-126.31-189.45-189.43c-10.86-10.85-26.62-10.95-37.48-0.24
		c-13.87,13.69-27.69,27.44-41.41,41.29c-13.02,13.14-12.88,27.62,0.21,40.71c32.98,32.99,65.97,65.98,98.97,98.96
		C313.26,370.55,322.37,379.54,332.15,389.24z"/>
	<path class="st1" d="M322.27,396.36c-17.89-17.75-34.56-34.19-51.12-50.74c-60.37-60.33-120.72-120.68-181.06-181.04
		c-23.95-23.95-24.21-50.44-0.39-74.48c25.1-25.33,50.37-50.48,75.76-75.53c19.85-19.59,48.7-19.4,68.56,0.45
		C349.59,130.49,465.12,246,580.6,361.57c20.38,20.4,20.29,48.65-0.12,69.07C465.2,545.97,349.88,661.26,234.53,776.52
		c-20.65,20.63-49.22,20.63-69.93,0.09c-24.88-24.69-48.96-50.23-74.64-74.05c-22.44-20.82-22.05-53.94,0.12-75.67
		c74.67-73.18,148.14-147.58,222.1-221.49C314.97,402.6,318.07,400.11,322.27,396.36z"/>
</g>
</svg>
