<?xml version="1.0" encoding="utf-8"?>
<!-- Generator: Adobe Illustrator 24.0.1, SVG Export Plug-In . SVG Version: 6.00 Build 0)  -->
<svg version="1.1" id="Слой_1" xmlns="http://www.w3.org/2000/svg" xmlns:xlink="http://www.w3.org/1999/xlink" x="0px" y="0px"
	 viewBox="0 0 612 792" style="enable-background:new 0 0 612 792;" xml:space="preserve">
<style type="text/css">
	.st0{display:none;}
	.st1{fill:#FFFFFF;}
</style>
<g>
	<path class="st0" d="M47.57,35.15c175.11,0,350.22,0,525.33,0c0,175.11,0,350.22,0,525.32c-175.08,0-350.16,0-525.33,0
		C47.57,385.24,47.57,210.19,47.57,35.15z M331.22,129.73c-13.64-2.02-26.97-1.96-40.3-0.28c-25.73,3.23-49.44,11.94-70.94,26.47
		c-23.84,16.11-42.28,37.04-54.92,62.87c-36.56,74.68-9.49,157.68,46.93,199.79c1.66-1.8,3.28-3.75,5.08-5.5
		c7.52-7.32,15.1-14.58,22.66-21.87c1.47-1.42,2.91-2.86,4.37-4.28c7.69-7.43,15.36-14.88,23.08-22.28
		c8.14-7.8,16.32-15.55,24.48-23.33c4.29-4.09,8.54-8.21,12.87-12.26c1.3-1.21,1.94-1.16,3.2,0.14c2.06,2.13,4.04,4.33,6.01,6.53
		c3.56,3.97,7.11,7.94,10.61,11.96c0.9,1.03,1.46,0.96,2.42,0c7.41-7.49,14.87-14.93,22.35-22.36c5.9-5.86,11.86-11.65,17.75-17.51
		c10.03-9.99,20.02-20.01,30.04-30.01c0.61-0.61,1.04-1.07,0.18-1.86c-3.14-2.9-6.23-5.84-9.33-8.79c-0.99-0.94-1.95-1.9-2.89-2.88
		c-1.53-1.6-1.29-2.62,0.76-3.34c0.23-0.08,0.45-0.16,0.68-0.23c6.12-1.76,12.25-3.51,18.37-5.27c17.54-5.04,35.07-10.1,52.62-15.13
		c1.71-0.49,3.47-0.78,5.2-1.16c0.14,0.18,0.28,0.36,0.43,0.55c-0.46,1.28-0.8,2.62-1.41,3.82c-6.06,12.04-12.17,24.05-18.27,36.07
		c-4.09,8.07-8.17,16.15-12.26,24.22c-1.2,2.37-2.01,2.47-3.82,0.6c-2.57-2.65-5.16-5.29-7.76-7.91c-2.76-2.79-2.7-2.72-5.24,0.27
		c-3.46,4.06-7.03,8.02-10.58,11.99c-4.46,4.99-8.98,9.93-13.43,14.92c-4.42,4.95-8.79,9.95-13.2,14.92
		c-2.63,2.97-5.31,5.89-7.95,8.86c-3.63,4.09-7.23,8.21-10.87,12.29c-2.94,3.29-5.94,6.52-8.88,9.81c-5.52,6.18-11,12.4-16.54,18.57
		c-1.79,1.99-2.65,1.99-4.53,0.09c-2.42-2.45-4.77-4.97-7.18-7.43c-5.2-5.32-10.45-10.59-15.6-15.95c-0.99-1.03-1.67-0.94-2.69-0.17
		c-4.66,3.58-9.35,7.13-14.06,10.65c-8.42,6.28-16.87,12.52-25.3,18.79c-8.58,6.38-17.14,12.79-25.71,19.18
		c-9,6.71-18.01,13.41-27.02,20.11c-6.57,4.88-13.14,9.75-19.71,14.63c-1.74,1.29-3.47,2.59-5.21,3.88
		c0.49,0.07,0.82-0.09,1.14-0.28c6.38-3.76,12.77-7.52,19.15-11.28c5.88-3.47,11.77-6.93,17.63-10.42c1.61-0.96,3.13-1.01,4.75-0.04
		c1.87,1.12,3.77,2.18,5.69,3.22c14.1,7.59,29.02,12.96,44.73,16c6.64,1.28,13.36,2.51,20.1,2.88c10.41,0.57,20.85,0.6,31.26-0.95
		c9.15-1.36,18.2-3.09,27.05-5.76c23.19-7.01,43.71-18.85,61.73-34.96c7.83-7,14.87-14.78,21.13-23.25
		c10.89-14.73,19.27-30.73,24.79-48.21c2.59-8.21,4.57-16.58,5.8-25.1c0.62-4.26,1.25-8.54,1.46-12.83
		c0.26-5.14-0.08-10.31,0.13-15.46c0.31-7.77-0.98-15.38-2.23-22.97c-2.07-12.49-5.94-24.47-10.95-36.1
		c-6.91-16.04-16.13-30.6-27.71-43.64c-11-12.39-23.59-22.95-37.89-31.36c-2.58-1.51-3.74-3.44-4.2-6.27
		c-1.27-7.81-2.69-15.6-4.08-23.4c-1.62-9.1-3.27-18.2-4.92-27.3c-0.25-1.38-0.54-2.75-0.81-4.12c-0.11,0.02-0.23,0.03-0.34,0.05
		c0,0.56,0,1.12,0,1.68c0,64.2,0,128.4,0,192.61c0,2.46-0.67,4.51-2.56,6.31c-9.12,8.68-18.13,17.48-27.17,26.23
		c-6.18,5.98-12.34,11.99-18.57,17.93c-0.79,0.75-1.9,1.17-2.87,1.74c-0.26-1.09-0.75-2.19-0.75-3.28
		c-0.04-65.42-0.03-130.84-0.06-196.26c0-2.13,0.44-3.87,2.12-5.26C329.91,131.54,330.38,130.76,331.22,129.73z"/>
	<path class="st1" d="M47.57,35.15c0,175.04,0,350.09,0,525.32c175.17,0,350.25,0,525.33,0c-0.05,0.1-0.09,0.28-0.15,0.28
		c-0.39,0.02-0.78,0.01-1.17,0.01c-174.77,0-349.54,0-524.3,0c0-174.77,0-349.53,0.01-524.3C47.29,36.02,47.47,35.59,47.57,35.15z"
		/>
	<path class="st1" d="M339.18,146.38c-1.44,1.75-2.22,3.07-3.34,4c-2.85,2.37-3.6,5.32-3.6,8.92c0.06,110.9,0.04,221.81,0.11,332.71
		c0,1.85,0.83,3.71,1.28,5.56c1.63-0.97,3.52-1.68,4.86-2.96c10.55-10.07,20.99-20.25,31.47-30.4
		c15.34-14.84,30.61-29.75,46.06-44.47c3.21-3.06,4.34-6.53,4.34-10.7c-0.01-108.84-0.01-217.68-0.01-326.52c0-0.95,0-1.9,0-2.85
		c0.19-0.03,0.39-0.05,0.58-0.08c0.46,2.33,0.95,4.65,1.37,6.99c2.79,15.43,5.59,30.85,8.34,46.28c2.36,13.21,4.78,26.42,6.92,39.66
		c0.78,4.79,2.75,8.05,7.12,10.62c24.25,14.25,45.59,32.15,64.24,53.16c19.63,22.11,35.27,46.8,46.98,73.99
		c8.49,19.72,15.06,40.02,18.56,61.19c2.13,12.87,4.3,25.76,3.78,38.94c-0.34,8.73,0.22,17.49-0.21,26.21
		c-0.36,7.28-1.43,14.53-2.48,21.76c-2.09,14.45-5.44,28.64-9.83,42.56c-9.35,29.63-23.56,56.77-42.03,81.73
		c-10.62,14.35-22.56,27.54-35.83,39.41c-30.55,27.32-65.33,47.38-104.65,59.27c-15,4.54-30.34,7.47-45.86,9.77
		c-17.65,2.62-35.34,2.57-52.99,1.61c-11.42-0.63-22.81-2.7-34.07-4.88c-26.63-5.15-51.92-14.25-75.83-27.12
		c-3.25-1.75-6.49-3.55-9.65-5.45c-2.75-1.66-5.33-1.56-8.06,0.06c-9.94,5.93-19.92,11.79-29.89,17.67
		c-10.82,6.38-21.64,12.75-32.46,19.12c-0.54,0.32-1.11,0.59-1.94,0.47c2.94-2.2,5.88-4.4,8.83-6.59
		c11.14-8.27,22.28-16.53,33.41-24.8c15.28-11.36,30.55-22.72,45.81-34.09c14.53-10.83,29.05-21.69,43.59-32.51
		c14.29-10.63,28.62-21.21,42.9-31.86c7.99-5.96,15.92-11.99,23.83-18.05c1.72-1.32,2.88-1.46,4.55,0.28
		c8.74,9.09,17.63,18.02,26.45,27.03c4.08,4.17,8.06,8.45,12.17,12.59c3.19,3.22,4.65,3.22,7.68-0.16
		c9.38-10.46,18.68-21,28.04-31.48c4.98-5.58,10.07-11.05,15.05-16.63c6.18-6.92,12.27-13.91,18.43-20.84
		c4.47-5.03,9.01-9.99,13.48-15.02c7.47-8.42,14.88-16.89,22.37-25.29c7.55-8.47,15.21-16.84,22.77-25.3
		c6.02-6.74,12.08-13.45,17.94-20.33c4.31-5.06,4.2-5.19,8.89-0.46c4.41,4.45,8.79,8.92,13.15,13.42c3.08,3.17,4.44,3,6.48-1.02
		c6.94-13.68,13.85-27.38,20.78-41.07c10.33-20.38,20.69-40.75,30.97-61.15c1.03-2.04,1.6-4.31,2.38-6.48
		c-0.24-0.31-0.48-0.62-0.72-0.93c-2.94,0.65-5.93,1.15-8.82,1.97c-29.74,8.52-59.47,17.09-89.2,25.64
		c-10.38,2.98-20.76,5.95-31.14,8.93c-0.39,0.11-0.77,0.25-1.15,0.39c-3.48,1.23-3.89,2.95-1.29,5.67c1.6,1.67,3.23,3.3,4.9,4.89
		c5.25,4.99,10.5,9.98,15.82,14.89c1.45,1.34,0.73,2.12-0.31,3.15c-16.99,16.95-33.92,33.94-50.93,50.87
		c-9.98,9.94-20.1,19.75-30.09,29.68c-12.67,12.59-25.31,25.21-37.88,37.9c-1.62,1.63-2.57,1.75-4.09,0
		c-5.94-6.81-11.96-13.55-17.99-20.28c-3.35-3.74-6.7-7.47-10.19-11.07c-2.12-2.2-3.21-2.3-5.42-0.24
		c-7.34,6.85-14.55,13.85-21.83,20.78c-13.83,13.18-27.71,26.32-41.5,39.54c-13.08,12.55-26.09,25.17-39.12,37.77
		c-2.49,2.4-4.93,4.85-7.41,7.25c-12.81,12.35-25.66,24.66-38.42,37.07c-3.06,2.98-5.81,6.27-8.62,9.33
		C41.39,564.68-4.5,423.96,57.48,297.36c21.44-43.8,52.7-79.28,93.11-106.58c36.46-24.63,76.65-39.4,120.27-44.87
		C293.46,143.07,316.05,142.97,339.18,146.38z M129.43,472.79c0,49.64-0.01,99.27,0.04,148.91c0,1.11,0.59,2.22,0.9,3.33
		c1.09-0.41,2.44-0.55,3.23-1.28c5.82-5.34,11.58-10.75,17.27-16.24c10.32-9.95,20.56-19.99,30.86-29.96
		c10.36-10.03,20.67-20.11,31.16-30.01c3.3-3.11,4.64-6.66,4.64-11.09c-0.04-92.68-0.03-185.36-0.05-278.03
		c0-2.29-0.24-4.58-0.48-6.86c-0.3-2.73-1.26-3.15-3.45-1.45c-2.33,1.82-4.54,3.79-6.81,5.69c-8.42,7.07-16.82,14.16-25.26,21.2
		c-8.5,7.1-17.05,14.14-25.57,21.22c-7.63,6.34-15.25,12.7-22.87,19.05c-2.22,1.85-3.67,3.9-3.66,7.09
		C129.46,373.85,129.44,423.32,129.43,472.79z M297.84,462.91c5.9,5.91,11.6,11.63,17.33,17.32c0.69,0.68,1.45,1.34,2.29,1.81
		c1.26,0.71,2.24,0.45,2.46-1.17c0.18-1.37,0.47-2.75,0.47-4.13c0.02-103.15,0.02-206.31,0.02-309.46c0-0.58,0.13-1.19-0.03-1.72
		c-0.34-1.12-0.55-2.74-1.34-3.14c-0.78-0.4-2.45,0.13-3.28,0.8c-2.54,2.07-4.79,4.49-7.3,6.61c-8.07,6.85-16.2,13.61-24.3,20.43
		c-5.09,4.28-10.14,8.59-15.23,12.86c-5.15,4.32-10.34,8.59-15.48,12.91c-5.28,4.44-10.59,8.83-15.76,13.4
		c-2.43,2.15-5.43,3.8-5.43,7.94c0.08,94.41,0.07,188.83,0.08,283.24c0,0.66-0.06,1.33,0.05,1.97c0.4,2.36,1.3,2.81,3.31,1.57
		c1.03-0.64,1.98-1.46,2.84-2.33c18.96-18.94,37.91-37.89,56.87-56.83C296.15,464.27,296.98,463.65,297.84,462.91z"/>
	<path class="st0" d="M207.5,322.27c0-29.18,0.01-58.36-0.03-87.55c0-1.88,0.85-3.09,2.16-4.18c4.5-3.75,8.99-7.5,13.49-11.24
		c5.02-4.18,10.07-8.33,15.08-12.52c4.98-4.16,9.94-8.34,14.9-12.51c1.34-1.12,2.64-2.28,4.01-3.35c1.29-1.01,1.86-0.76,2.03,0.85
		c0.15,1.34,0.28,2.7,0.29,4.04c0.01,54.67,0.01,109.34,0.03,164c0,2.61-0.79,4.7-2.74,6.54c-6.18,5.84-12.27,11.78-18.38,17.7
		c-6.07,5.88-12.12,11.8-18.2,17.67c-3.35,3.24-6.75,6.43-10.19,9.58c-0.47,0.43-1.26,0.51-1.91,0.76
		c-0.19-0.65-0.53-1.31-0.53-1.96C207.5,380.83,207.5,351.55,207.5,322.27z"/>
	<path class="st0" d="M306.84,316.44c-0.51,0.43-1,0.8-1.43,1.23c-11.18,11.17-22.36,22.35-33.54,33.52c-0.51,0.51-1.07,1-1.68,1.37
		c-1.18,0.73-1.72,0.46-1.95-0.93c-0.06-0.38-0.03-0.78-0.03-1.16c0-55.69,0-111.38-0.04-167.08c0-2.44,1.77-3.42,3.2-4.68
		c3.05-2.69,6.18-5.29,9.3-7.9c3.04-2.55,6.1-5.07,9.13-7.62c3-2.52,5.99-5.06,8.99-7.59c4.78-4.02,9.57-8.01,14.33-12.05
		c1.48-1.25,2.8-2.68,4.3-3.9c0.49-0.4,1.48-0.71,1.93-0.47c0.46,0.24,0.59,1.19,0.79,1.85c0.09,0.31,0.02,0.68,0.02,1.02
		c0,60.85,0,121.7-0.01,182.54c0,0.81-0.17,1.62-0.28,2.44c-0.13,0.96-0.71,1.11-1.45,0.69c-0.5-0.28-0.95-0.66-1.35-1.07
		C313.68,323.3,310.32,319.92,306.84,316.44z"/>
</g>
</svg>
