<?xml version="1.0" encoding="utf-8"?>
<!-- Generator: Adobe Illustrator 24.0.1, SVG Export Plug-In . SVG Version: 6.00 Build 0)  -->
<svg version="1.1" id="Слой_1" xmlns="http://www.w3.org/2000/svg" xmlns:xlink="http://www.w3.org/1999/xlink" x="0px" y="0px"
	 viewBox="0 0 612 792" style="enable-background:new 0 0 612 792;" xml:space="preserve">
<style type="text/css">
	.st0{display:none;}
	.st1{fill:#FFFFFF;}
</style>
<g>
	<path class="st0" d="M756,846c-300,0-600,0-900,0c0-300,0-600,0-900c300,0,600,0,900,0C756,246,756,546,756,846z M611.11,243.45
		c0-3.33-0.46-6.75,0.09-9.98c1.35-7.86-7.25-15.45-14.67-15.64c-7.62-0.19-15.24-1-22.8-2.01c-30.83-4.11-61.03-10.88-90.25-21.72
		c-41.04-15.23-78-37.23-110.12-67.02c-20.48-19-37.79-40.7-52.12-64.68c-7.79-13.04-22.75-11.83-30.61,0.04
		C279.65,79.02,268.2,95.54,255,110.35c-29.65,33.27-65.88,57.89-106.66,75.76c-42.39,18.58-86.87,28.51-132.92,31.83
		C6.8,218.57,0.98,224.66,1,233.2c0.08,35.98,3.86,71.6,9.67,107.09c6.18,37.73,15.06,74.75,27.24,110.97
		c22.92,68.19,55.81,130.66,105.07,183.88c43.82,47.34,95.88,81.95,156.91,102.87c3.78,1.3,8.79,1.25,12.58-0.06
		c74.24-25.54,134.22-70.79,181.98-132.7c31.34-40.63,54.69-85.62,72.56-133.57c17.09-45.84,28.7-93.07,36.1-141.41
		C607.53,301.46,610.09,272.54,611.11,243.45z"/>
	<path class="st1" d="M611.11,243.45c-1.02,29.09-3.59,58.01-7.99,86.81c-7.4,48.35-19.01,95.57-36.1,141.41
		c-17.88,47.95-41.22,92.95-72.56,133.57c-47.76,61.91-107.73,107.16-181.98,132.7c-3.79,1.3-8.8,1.35-12.58,0.06
		c-61.03-20.92-113.09-55.53-156.91-102.87C93.72,581.92,60.83,519.44,37.91,451.26c-12.17-36.22-21.05-73.24-27.24-110.97
		C4.86,304.8,1.09,269.18,1,233.2c-0.02-8.54,5.79-14.63,14.4-15.25c46.05-3.32,90.53-13.25,132.92-31.83
		c40.78-17.88,77.01-42.49,106.66-75.76c13.2-14.81,24.65-31.34,35.63-47.92c7.86-11.87,22.82-13.08,30.61-0.04
		c14.32,23.98,31.63,45.68,52.12,64.68c32.12,29.79,69.08,51.79,110.12,67.02c29.22,10.84,59.42,17.61,90.25,21.72
		c7.56,1.01,15.19,1.82,22.8,2.01c7.42,0.19,16.02,7.78,14.67,15.64C610.65,236.7,611.11,240.11,611.11,243.45z M601,243.6
		c-0.26-0.02-0.53-0.05-0.79-0.07c0-1.17,0-2.33,0-3.5c0.01-9.89-1.11-10.84-11.16-11.38c-6.96-0.38-14-0.72-20.8-2.08
		c-22.73-4.52-45.71-8.26-67.97-14.54c-49.73-14.04-93.92-38.72-131.99-73.84c-22.23-20.51-41.67-43.42-57.28-69.45
		c-3.29-5.49-6.45-5.44-9.88,0.16c-17.32,28.34-38.9,53.04-63.75,74.97c-28.75,25.37-61.24,44.57-96.86,58.54
		c-38.6,15.13-78.74,23.44-120.03,26.41c-7.04,0.51-9.01,2.32-8.64,9.29c0.97,17.93,1.28,35.98,3.66,53.74
		c3.67,27.4,7.92,54.78,13.55,81.84C41.26,432.33,61.03,488.41,90.05,541c22.98,41.66,51.05,79.46,86.67,111.24
		c36.41,32.49,77.72,56.87,123.63,73.48c4.02,1.45,7.46,1.44,11.46-0.02c75.43-27.54,136.08-74.26,182.27-139.9
		c39.73-56.45,65.59-119.08,82.88-185.52c8.19-31.47,14.47-63.32,18.09-95.65C597.32,284.31,599.03,263.94,601,243.6z"/>
	<path class="st0" d="M601,243.6c-1.97,20.34-3.68,40.72-5.95,61.03c-3.62,32.32-9.9,64.18-18.09,95.65
		c-17.3,66.45-43.16,129.07-82.88,185.52c-46.19,65.64-106.84,112.36-182.27,139.9c-4,1.46-7.45,1.47-11.46,0.02
		c-45.91-16.61-87.22-40.99-123.63-73.48C141.1,620.46,113.03,582.67,90.05,541c-29.02-52.6-48.78-108.67-60.98-167.33
		c-5.63-27.05-9.88-54.44-13.55-81.84c-2.38-17.76-2.69-35.81-3.66-53.74c-0.38-6.97,1.6-8.78,8.64-9.29
		c41.29-2.97,81.43-11.28,120.03-26.41c35.62-13.96,68.1-33.16,96.86-58.54c24.86-21.93,46.44-46.63,63.75-74.97
		c3.42-5.6,6.59-5.65,9.88-0.16c15.6,26.03,35.05,48.94,57.28,69.45c38.07,35.12,82.26,59.8,131.99,73.84
		c22.25,6.28,45.24,10.02,67.97,14.54c6.8,1.35,13.85,1.7,20.8,2.08c10.06,0.55,11.17,1.5,11.16,11.38c0,1.17,0,2.33,0,3.5
		C600.47,243.55,600.73,243.57,601,243.6z M305.85,562.95c27.31,0.18,54.47-1.87,81.44-6.02c20.68-3.18,41.07-7.72,60.76-14.99
		c7.31-2.7,11.27-7.81,10.83-15.42c-0.57-9.92-0.99-19.96-2.89-29.67c-4.68-23.99-16.39-43.19-39.13-54.6
		c-12.18-6.11-23.92-13.08-35.83-19.72c-9.36-5.21-15.76-4.73-24.06,1.87c-2.21,1.76-4.41,3.57-6.78,5.09
		c-16.24,10.42-33.56,16.53-53.25,13.47c-16.22-2.52-30.21-9.54-42.59-20.17c-6.18-5.31-13.28-5.77-20.31-1.89
		c-11.06,6.11-22.04,12.38-33.24,18.21c-14.4,7.49-27.4,16.36-35.27,31.22c-9.34,17.64-12.43,36.62-12.51,56.29
		c-0.03,6.93,3.77,12.56,10.17,15.07c2.78,1.09,5.63,1.99,8.48,2.89C215.36,558.38,260.35,562.57,305.85,562.95z M306.52,228.98
		c-6.46,0.45-12.98,0.55-19.38,1.41c-33.03,4.48-59.65,31.02-59.41,64.35c0.05,7.35-1.54,14.04-4.03,21.08
		c-5.75,16.27-2.83,32.42,6.42,46.69c6.42,9.89,11.65,20.27,17.08,30.66c16.1,30.79,48.63,44.85,79.69,34.57
		c18.15-6.01,30.93-18.83,39.48-35.41c5.39-10.44,11.02-20.62,17.18-30.63c9.26-15.03,11.57-31.51,5.11-48.28
		c-1.85-4.8-2.89-9.29-2.87-14.34c0.1-24.98-9.7-44.85-31.05-58.37C340.06,231.4,323.66,228.69,306.52,228.98z"/>
	<path class="st1" d="M305.85,562.95c-45.51-0.37-90.5-4.56-134.17-18.37c-2.85-0.9-5.7-1.81-8.48-2.89
		c-6.4-2.51-10.2-8.14-10.17-15.07c0.08-19.67,3.17-38.65,12.51-56.29c7.87-14.86,20.87-23.73,35.27-31.22
		c11.21-5.83,22.18-12.1,33.24-18.21c7.03-3.88,14.13-3.42,20.31,1.89c12.38,10.63,26.38,17.65,42.59,20.17
		c19.69,3.06,37.01-3.04,53.25-13.47c2.37-1.52,4.57-3.33,6.78-5.09c8.3-6.6,14.7-7.08,24.06-1.87
		c11.91,6.63,23.66,13.61,35.83,19.72c22.74,11.4,34.45,30.61,39.13,54.6c1.89,9.71,2.31,19.75,2.89,29.67
		c0.44,7.61-3.52,12.72-10.83,15.42c-19.69,7.27-40.08,11.81-60.76,14.99C360.32,561.08,333.17,563.12,305.85,562.95z M301.04,455.3
		c-6.49-1.15-11.76-1.79-16.88-3.04c-13.67-3.32-25.54-10.11-36.03-19.41c-2.31-2.05-4.49-3.6-7.96-1.65
		c-15.06,8.5-30.37,16.57-45.31,25.26c-4.63,2.69-9.1,6.31-12.45,10.47c-13.29,16.52-16.95,36.4-18.43,56.85
		c-0.28,3.94,2.05,6.14,5.88,7.51c37.9,13.58,77.36,18.38,117.22,20.36c28.76,1.43,57.44-0.38,86.01-4.39
		c23.55-3.31,46.71-7.97,69.17-15.93c4.42-1.57,6.48-4.23,5.77-8.49c-1.88-11.26-3.25-22.72-6.46-33.62
		c-4.77-16.19-14.29-28.81-30.27-36.38c-12.9-6.11-25.19-13.52-37.55-20.71c-3.76-2.18-6.27-1.58-9.2,1.09
		c-9.5,8.63-20.45,14.83-32.78,18.33c-5.76,1.64-11.76,2.44-18.91,3.88c3.6,3.3,6.46,6.07,9.48,8.65c2.99,2.56,2.83,4.9,0.08,7.5
		c-3.62,3.44-6.96,7.2-10.75,10.44c-2.76,2.36-2.66,4.24-0.83,7.15c4.16,6.62,7.77,13.59,11.92,20.22
		c2.43,3.88,2.37,7.47,0.13,11.21c-4.27,7.15-8.55,14.29-12.9,21.39c-2.3,3.76-4.01,3.69-6.34-0.24
		c-4.07-6.88-7.95-13.87-12.09-20.71c-2.61-4.31-2.54-8.31,0.12-12.58c4.65-7.48,9.1-15.09,13.52-22.45
		c-0.28-0.65-0.34-1.02-0.55-1.24c-3.7-3.83-7.43-7.65-11.14-11.46c-5.3-5.44-5.32-5.99,0.01-11.13
		C295.78,460.01,298.13,457.95,301.04,455.3z M307.09,500.13c-2.92,4.8-5.44,8.83-7.81,12.95c-0.45,0.78-0.77,2.13-0.41,2.82
		c2.44,4.56,5.09,9.01,8.04,14.14c3-4.95,5.47-8.87,7.76-12.89c0.51-0.9,0.94-2.41,0.53-3.17
		C312.78,509.53,310.11,505.22,307.09,500.13z M307.87,459.68c-3.51,2.95-6.49,5.46-8.55,7.19c2.75,3.54,5.13,6.62,7.05,9.09
		c3.48-2.97,6.45-5.5,9.52-8.12C312.78,464.67,310.13,461.98,307.87,459.68z"/>
	<path class="st1" d="M306.52,228.98c17.14-0.29,33.54,2.42,48.23,11.73c21.35,13.52,31.15,33.4,31.05,58.37
		c-0.02,5.04,1.02,9.54,2.87,14.34c6.46,16.77,4.16,33.25-5.11,48.28c-6.17,10.01-11.8,20.19-17.18,30.63
		c-8.55,16.58-21.34,29.41-39.48,35.41c-31.06,10.28-63.59-3.78-79.69-34.57c-5.43-10.39-10.66-20.76-17.08-30.66
		c-9.26-14.27-12.17-30.41-6.42-46.69c2.49-7.04,4.08-13.73,4.03-21.08c-0.24-33.33,26.38-59.87,59.41-64.35
		C293.55,229.52,300.06,229.43,306.52,228.98z M306.56,239.57c-6.4,0.83-12.9,1.18-19.17,2.59c-17.25,3.9-32.24,11.44-41.15,27.79
		c-5.61,10.3-8.1,21.31-7.83,33.06c0.09,3.88,0.3,8.35-1.4,11.57c-5.5,10.45-6.76,21.02-1.38,31.43
		c8.64,16.72,18.05,33.04,27.14,49.52c0.32,0.58,0.71,1.13,1.13,1.64c12.44,15.21,28.06,24.3,48.11,21.92
		c17.22-2.04,31.24-10.94,39.92-26.05c8.06-14.02,15.72-28.29,23.71-42.37c6.86-12.09,7.46-24.9-0.29-37.4
		c-1.17-1.89-0.87-4.79-0.96-7.23c-0.15-3.98,0.3-8-0.13-11.93c-2.29-20.73-11.59-36.87-31.04-46.06
		C331.66,242.6,319.47,239.86,306.56,239.57z"/>
	<path class="st0" d="M301.04,455.3c-2.9,2.65-5.26,4.7-7.51,6.87c-5.33,5.14-5.31,5.69-0.01,11.13c3.72,3.82,7.44,7.63,11.14,11.46
		c0.21,0.22,0.27,0.59,0.55,1.24c-4.42,7.36-8.87,14.97-13.52,22.45c-2.66,4.27-2.73,8.27-0.12,12.58
		c4.14,6.84,8.02,13.83,12.09,20.71c2.33,3.94,4.04,4,6.34,0.24c4.35-7.1,8.63-14.24,12.9-21.39c2.24-3.74,2.3-7.32-0.13-11.21
		c-4.15-6.63-7.77-13.59-11.92-20.22c-1.83-2.91-1.93-4.78,0.83-7.15c3.79-3.24,7.13-7,10.75-10.44c2.74-2.6,2.91-4.95-0.08-7.5
		c-3.02-2.58-5.88-5.35-9.48-8.65c7.15-1.43,13.14-2.24,18.91-3.88c12.33-3.5,23.28-9.7,32.78-18.33c2.94-2.67,5.45-3.28,9.2-1.09
		c12.36,7.18,24.65,14.6,37.55,20.71c15.98,7.57,25.51,20.19,30.27,36.38c3.21,10.9,4.58,22.36,6.46,33.62
		c0.71,4.26-1.35,6.93-5.77,8.49c-22.47,7.96-45.62,12.62-69.17,15.93c-28.57,4.01-57.25,5.82-86.01,4.39
		c-39.86-1.98-79.32-6.78-117.22-20.36c-3.84-1.37-6.17-3.58-5.88-7.51c1.48-20.45,5.14-40.32,18.43-56.85
		c3.35-4.16,7.81-7.78,12.45-10.47c14.94-8.69,30.26-16.75,45.31-25.26c3.46-1.96,5.65-0.4,7.96,1.65
		c10.49,9.3,22.35,16.09,36.03,19.41C289.28,453.51,294.55,454.16,301.04,455.3z"/>
	<path class="st0" d="M307.09,500.13c3.02,5.09,5.69,9.4,8.11,13.85c0.41,0.76-0.02,2.27-0.53,3.17c-2.29,4.02-4.76,7.94-7.76,12.89
		c-2.95-5.13-5.6-9.58-8.04-14.14c-0.37-0.69-0.05-2.04,0.41-2.82C301.65,508.96,304.17,504.93,307.09,500.13z"/>
	<path class="st0" d="M307.87,459.68c2.25,2.29,4.9,4.99,8.02,8.16c-3.07,2.62-6.04,5.15-9.52,8.12c-1.91-2.47-4.3-5.55-7.05-9.09
		C301.38,465.14,304.36,462.64,307.87,459.68z"/>
	<path class="st0" d="M306.56,239.57c12.91,0.29,25.11,3.03,36.68,8.49c19.45,9.18,28.75,25.32,31.04,46.06
		c0.43,3.93-0.02,7.96,0.13,11.93c0.09,2.44-0.21,5.34,0.96,7.23c7.75,12.5,7.15,25.31,0.29,37.4
		c-7.99,14.08-15.65,28.35-23.71,42.37c-8.69,15.11-22.7,24.01-39.92,26.05c-20.05,2.37-35.67-6.71-48.11-21.92
		c-0.42-0.51-0.81-1.06-1.13-1.64c-9.09-16.48-18.5-32.8-27.14-49.52c-5.38-10.42-4.12-20.99,1.38-31.43
		c1.7-3.22,1.49-7.69,1.4-11.57c-0.28-11.75,2.22-22.76,7.83-33.06c8.9-16.35,23.9-23.9,41.15-27.79
		C293.65,240.75,300.16,240.41,306.56,239.57z"/>
</g>
</svg>
