<?xml version="1.0" encoding="utf-8"?>
<!-- Generator: Adobe Illustrator 24.0.1, SVG Export Plug-In . SVG Version: 6.00 Build 0)  -->
<svg version="1.1" id="Слой_1" xmlns="http://www.w3.org/2000/svg" xmlns:xlink="http://www.w3.org/1999/xlink" x="0px" y="0px"
	 viewBox="0 0 612 792" style="enable-background:new 0 0 612 792;" xml:space="preserve">
<style type="text/css">
	.st0{display:none;}
	.st1{fill:#FFFFFF;}
</style>
<g>
	<path class="st0" d="M-144,846c0-300,0-600,0-900c300,0,600,0,900,0c0,300,0,600,0,900C456,846,156,846-144,846z M133.48,359.1
		c-4.01,0.2-7.64,0.51-11.27,0.53c-30.33,0.14-60.66,0.17-90.99,0.37c-8.86,0.06-14.64,5.12-16.21,13.91
		c-0.55,3.1-0.66,6.3-0.71,9.45c-0.52,35.49-1.21,70.99-1.42,106.49c-0.19,32.16,0.03,64.33,0.34,96.49
		c0.11,11.33,8.41,19.2,19.79,19.51c8.33,0.23,16.66,0.36,25,0.36c136.66,0,273.32-0.02,409.98-0.07
		c30.83-0.01,61.66-0.13,92.49-0.32c2.75-0.02,5.71-0.52,8.2-1.64c8.02-3.59,12.28-9.76,12.24-18.84
		c-0.28-59-0.45-117.99-0.74-176.99c-0.05-10.66-0.16-21.35-0.89-31.98c-0.73-10.75-6.85-16.33-17.52-16.41
		c-30.16-0.21-60.33-0.22-90.49-0.35c-3.46-0.02-6.93-0.33-10.78-0.53c-0.13-2.73-0.35-5.02-0.33-7.32
		c0.19-20.66,0.46-41.33,0.59-61.99c0.02-3.14-0.24-6.34-0.82-9.43c-2.32-12.35-7.63-16.65-20.21-16.65c-88.83,0-177.66,0-266.49,0
		c-7.5,0-15,0-22.5,0.04c-7.58,0.04-12.82,3.72-14.99,10.88c-1.38,4.56-2.44,9.42-2.45,14.15c-0.06,20.66,0.33,41.33,0.52,61.99
		C133.85,353.41,133.61,356.03,133.48,359.1z M297.36,621.39c-91.8,0-183.6-0.02-275.39,0.02c-10.61,0-15.67,4.01-16.37,13.97
		c-0.66,9.28-0.71,18.67-0.06,27.95c0.71,10.16,5.82,14.37,16.03,14.56c12.49,0.23,24.98,0.48,37.47,0.41
		c84.47-0.45,168.93-1.34,253.4-1.37c74.47-0.02,148.94,0.93,223.41,1.37c12.32,0.07,24.65-0.16,36.97-0.43
		c9.57-0.21,14.45-3.98,15.44-13.46c0.93-8.87,0.98-17.93,0.41-26.84c-0.8-12.36-5.21-16.17-17.42-16.18
		C479.95,621.37,388.66,621.38,297.36,621.39z M286.17,170.06c-26.08,0.88-45.77,12.94-60.52,32.55
		c-7.1,9.44-11.98,20.67-17.14,31.44c-5.49,11.45-2.97,15.1,9.81,15.15c46.66,0.16,93.32,0.23,139.98,0.28
		c7.16,0.01,14.34-0.1,21.49-0.41c7.18-0.31,10.27-4.57,7.42-10.97c-4.53-10.17-8.73-20.69-14.81-29.92
		c-12.49-19-29.44-32.64-52.53-36.72c-8.3-1.47-16.8-1.81-25.05-2.65c0-17.55,0-34.94,0-52.58c10.57,0,20.53,0.15,30.49-0.13
		c1.98-0.06,4.96-1.39,5.55-2.89c0.56-1.43-0.92-4.31-2.32-5.76c-3.42-3.54-7.31-6.63-11.37-10.23c4.52-3.72,8.82-6.87,12.59-10.56
		c1.52-1.49,3.1-4.7,2.46-6.14c-0.71-1.6-3.94-2.88-6.08-2.89c-10.66-0.08-21.33,0.22-31.99,0.54c-5.41,0.16-7.02,1.97-7.08,7.42
		c-0.31,26.16-0.6,52.32-0.89,78.49C286.15,165.86,286.17,167.67,286.17,170.06z"/>
	<path class="st1" d="M133.48,359.1c0.13-3.07,0.37-5.7,0.35-8.32c-0.18-20.66-0.57-41.33-0.52-61.99c0.01-4.73,1.07-9.6,2.45-14.15
		c2.18-7.16,7.41-10.84,14.99-10.88c7.5-0.04,15-0.04,22.5-0.04c88.83,0,177.66,0,266.49,0c12.57,0,17.88,4.3,20.21,16.65
		c0.58,3.09,0.84,6.29,0.82,9.43c-0.14,20.66-0.41,41.33-0.59,61.99c-0.02,2.29,0.2,4.59,0.33,7.32c3.86,0.2,7.32,0.52,10.78,0.53
		c30.16,0.13,60.33,0.14,90.49,0.35c10.67,0.08,16.79,5.66,17.52,16.41c0.72,10.63,0.83,21.32,0.89,31.98
		c0.29,59,0.45,117.99,0.74,176.99c0.04,9.08-4.22,15.25-12.24,18.84c-2.49,1.11-5.45,1.62-8.2,1.64
		c-30.83,0.2-61.66,0.31-92.49,0.32c-136.66,0.05-273.32,0.06-409.98,0.07c-8.33,0-16.67-0.13-25-0.36
		c-11.38-0.31-19.68-8.18-19.79-19.51c-0.31-32.16-0.53-64.33-0.34-96.49c0.21-35.5,0.89-70.99,1.42-106.49
		c0.05-3.16,0.16-6.36,0.71-9.45c1.56-8.79,7.35-13.86,16.21-13.91c30.33-0.2,60.66-0.23,90.99-0.37
		C125.84,359.61,129.47,359.3,133.48,359.1z M296.49,595.43c0,0.14,0,0.29,0,0.43c24.33,0,48.66-0.04,72.99,0.01
		c62.66,0.11,125.32,0.3,187.98,0.34c10.77,0.01,13.77-2.94,13.72-13.68c-0.35-66.99-0.83-133.98-1.36-200.97
		c-0.08-10.57-1.29-11.93-11.76-12.02c-28.66-0.24-57.33-0.15-85.99-0.25c-4.16-0.01-8.36-0.04-12.47-0.57
		c-5.94-0.76-8.58-3.65-8.77-9.57c-0.26-8.16-0.26-16.33-0.23-24.49c0.06-16.16,0.36-32.33,0.28-48.49
		c-0.05-10.17-2.91-12.88-12.13-12.84c-50.33,0.17-100.65,0.4-150.98,0.43c-42.5,0.03-84.99-0.13-127.49-0.3
		c-15.99-0.06-17.18,1.01-17.24,17.18c0,0.67-0.01,1.33,0,2c0.08,21.83,0.28,43.66,0.18,65.49c-0.03,7.33-2.99,10.22-10.28,10.77
		c-4.98,0.38-9.99,0.37-14.99,0.39c-28,0.12-55.99,0.11-83.99,0.35c-7.79,0.07-9.57,2.14-9.76,9.89
		c-0.36,14.99-0.85,29.99-0.92,44.99c-0.24,53.33-0.36,106.65-0.42,159.98c-0.01,7.99,3.64,11.48,11.65,11.67
		c11.33,0.27,22.66,0.56,33.99,0.5C144.5,596.3,220.5,595.85,296.49,595.43z"/>
	<path class="st1" d="M297.36,621.39c91.3,0,182.6-0.02,273.89,0.02c12.21,0.01,16.62,3.82,17.42,16.18
		c0.58,8.91,0.52,17.97-0.41,26.84c-0.99,9.48-5.87,13.24-15.44,13.46c-12.32,0.27-24.65,0.5-36.97,0.43
		c-74.47-0.44-148.94-1.39-223.41-1.37c-84.47,0.03-168.93,0.92-253.4,1.37c-12.49,0.07-24.98-0.18-37.47-0.41
		c-10.21-0.19-15.32-4.4-16.03-14.56c-0.65-9.28-0.6-18.67,0.06-27.95c0.71-9.97,5.76-13.97,16.37-13.97
		C113.76,621.38,205.56,621.39,297.36,621.39z M296.99,631.09c0-0.25,0-0.51,0-0.76c-42.67,0-85.33-0.1-128,0.03
		c-49,0.14-98,0.53-147,0.68c-4.64,0.01-6.88,1.65-6.89,6.29c0,7.99-0.01,15.98-0.09,23.97c-0.05,5.14,2.51,6.91,7.49,6.85
		c12.33-0.14,24.66,0.14,37,0.14c140.83-0.05,281.66-0.13,422.49-0.19c29.67-0.01,59.33,0.02,89-0.02c6.77-0.01,7.66-0.65,7.94-7.29
		c0.31-7.31,0.25-14.65-0.01-21.97c-0.25-7.11-0.96-7.7-7.95-7.7C479.65,631.08,388.32,631.09,296.99,631.09z"/>
	<path class="st1" d="M286.17,170.06c0-2.39-0.02-4.19,0-6c0.29-26.16,0.58-52.33,0.89-78.49c0.06-5.45,1.67-7.26,7.08-7.42
		c10.66-0.32,21.33-0.63,31.99-0.54c2.14,0.02,5.37,1.3,6.08,2.89c0.64,1.45-0.94,4.65-2.46,6.14c-3.77,3.69-8.07,6.84-12.59,10.56
		c4.06,3.59,7.95,6.68,11.37,10.23c1.4,1.45,2.88,4.32,2.32,5.76c-0.59,1.5-3.57,2.83-5.55,2.89c-9.95,0.29-19.92,0.13-30.49,0.13
		c0,17.64,0,35.03,0,52.58c8.25,0.84,16.75,1.18,25.05,2.65c23.09,4.09,40.04,17.72,52.53,36.72c6.07,9.23,10.28,19.75,14.81,29.92
		c2.85,6.41-0.25,10.66-7.42,10.97c-7.16,0.31-14.33,0.42-21.49,0.41c-46.66-0.05-93.32-0.12-139.98-0.28
		c-12.78-0.05-15.3-3.7-9.81-15.15c5.16-10.77,10.04-21.99,17.14-31.44C240.4,182.99,260.09,170.93,286.17,170.06z M216.95,239.37
		c53.6,0,106.64,0,159.84,0c-9.64-29.26-32.13-59.28-75.38-60.4C258.2,177.84,232.11,198.32,216.95,239.37z M295.19,107.8
		c7.07,0,13.91,0,21.78,0c-2.66-2.36-4.65-4.04-6.55-5.83c-4.14-3.91-4.1-6.17,0.14-9.78c2.09-1.78,4.25-3.48,7.1-5.82
		c-8.12,0-15.13,0-22.48,0C295.19,93.66,295.19,100.56,295.19,107.8z"/>
	<path class="st0" d="M296.49,595.43c-75.99,0.42-151.98,0.88-227.98,1.24c-11.33,0.05-22.66-0.23-33.99-0.5
		c-8-0.19-11.66-3.68-11.65-11.67c0.06-53.33,0.18-106.65,0.42-159.98c0.07-15,0.56-29.99,0.92-44.99c0.19-7.75,1.97-9.82,9.76-9.89
		c27.99-0.24,55.99-0.23,83.99-0.35c5-0.02,10.01-0.02,14.99-0.39c7.29-0.55,10.24-3.44,10.28-10.77c0.1-21.83-0.1-43.66-0.18-65.49
		c0-0.67,0-1.33,0-2c0.06-16.18,1.24-17.25,17.24-17.18c42.5,0.16,84.99,0.33,127.49,0.3c50.33-0.04,100.65-0.26,150.98-0.43
		c9.22-0.03,12.08,2.67,12.13,12.84c0.08,16.16-0.22,32.33-0.28,48.49c-0.03,8.16-0.03,16.33,0.23,24.49
		c0.19,5.92,2.82,8.81,8.77,9.57c4.12,0.53,8.31,0.55,12.47,0.57c28.66,0.1,57.33,0.01,85.99,0.25
		c10.47,0.09,11.68,1.44,11.76,12.02c0.52,66.99,1,133.98,1.36,200.97c0.06,10.74-2.95,13.69-13.72,13.68
		c-62.66-0.04-125.32-0.23-187.98-0.34c-24.33-0.04-48.66-0.01-72.99-0.01C296.49,595.71,296.49,595.57,296.49,595.43z M281.71,424
		c-0.28,0-0.56,0-0.84,0c0-8.66,0.04-17.32-0.01-25.99c-0.09-16.82-0.21-33.65-0.36-50.47c-0.09-10.24-0.73-10.86-10.71-10.85
		c-4.5,0.01-9,0-13.49,0.03c-7.5,0.04-9.05,1.6-9,9.13c0.12,17.99,0.26,35.98,0.38,53.97c0.23,34.15,0.43,68.3,0.68,102.44
		c0.05,6.93,1.73,8.56,8.57,8.6c5.16,0.03,10.33,0.03,15.49,0c7.78-0.04,9.29-1.6,9.29-9.41C281.71,475.63,281.71,449.81,281.71,424
		z M425.71,424.28c-0.27,0-0.55,0-0.82,0c0-5,0.03-9.99,0-14.99c-0.13-21.49-0.22-42.98-0.43-64.46c-0.07-6.79-1.58-8.12-8.37-8.13
		c-5.83-0.01-11.66-0.05-17.49,0.05c-5.22,0.09-7.21,2.1-7.29,7.32c-0.07,4.5,0.05,8.99,0.08,13.49
		c0.32,48.14,0.63,96.28,0.97,144.42c0.05,7.27,1.66,8.86,8.79,8.89c5,0.02,9.99,0.02,14.99,0c8.13-0.03,9.58-1.52,9.58-9.63
		C425.7,475.59,425.71,449.93,425.71,424.28z M213.2,424.04c-0.3,0-0.61,0-0.91,0c0-15.82,0.03-31.65-0.01-47.47
		c-0.03-10.83-0.09-21.65-0.26-32.48c-0.09-5.82-1.74-7.35-7.57-7.39c-6.33-0.04-12.66-0.03-18.99,0.05
		c-4.23,0.05-6.45,2.3-6.48,6.55c-0.03,4,0.03,7.99,0.05,11.99c0.33,48.97,0.65,97.94,0.98,146.91c0.05,6.99,1.65,8.62,8.46,8.66
		c5.33,0.03,10.66,0.04,15.99-0.01c7.23-0.06,8.73-1.61,8.73-8.87C213.2,476,213.2,450.02,213.2,424.04z M357.2,423.81
		c-0.38,0-0.76,0-1.14,0c0-26.15,0.03-52.3-0.02-78.45c-0.01-7.44-1.34-8.66-8.82-8.67c-5.66,0-11.33-0.05-16.99,0.05
		c-5.29,0.09-7.27,2.03-7.24,7.29c0.32,53.13,0.67,106.27,1.05,159.4c0.04,5.54,1.99,7.35,7.66,7.42c5.5,0.07,10.99,0.04,16.49,0.01
		c7.56-0.05,9-1.53,9-9.1C357.2,475.78,357.2,449.79,357.2,423.81z M94.38,435.99c0.07,0,0.15,0,0.22,0
		c0,6.66-0.08,13.31,0.03,19.97c0.08,5.33,1.6,6.93,6.85,6.99c6.65,0.08,13.31-0.1,19.97-0.19c4.2-0.05,6.53-2.02,6.54-6.39
		c0.01-13.64,0.03-27.29,0.05-40.93c0-4.09-2.19-6.23-6.13-6.31c-6.99-0.14-13.98-0.15-20.96-0.03c-4.38,0.07-6.68,2.29-6.58,6.92
		C94.48,422.67,94.38,429.33,94.38,435.99z M94.38,507.9c0.07,0,0.14,0,0.21,0c0,6.49-0.06,12.98,0.02,19.47
		c0.07,6.04,1.47,7.54,7.28,7.59c6.49,0.05,12.98-0.13,19.47-0.2c4.51-0.05,6.66-2.26,6.64-6.82c-0.04-13.31-0.02-26.62,0.06-39.94
		c0.03-4.53-2.1-6.88-6.58-6.93c-6.82-0.08-13.65-0.12-20.47,0c-4.34,0.07-6.75,2.18-6.66,6.85
		C94.47,494.59,94.38,501.25,94.38,507.9z M83.9,435.88c0.02,0,0.03,0,0.05,0c0-6.66-0.04-13.31,0.01-19.97
		c0.04-4.56-2.24-6.8-6.69-6.83c-6.82-0.06-13.65-0.12-20.47,0.01c-4.36,0.09-6.65,2.29-6.59,6.93c0.16,13.31,0.2,26.63,0.19,39.94
		c0,4.78,2.19,7.09,6.97,7.02c6.49-0.09,12.98-0.08,19.47-0.24c5.34-0.13,6.99-1.87,7.04-7.39C83.95,448.86,83.9,442.37,83.9,435.88
		z M83.89,508.27c0.02,0,0.04,0,0.06,0c0-6.82-0.03-13.65,0.01-20.47c0.03-4.28-2.05-6.62-6.29-6.69
		c-6.99-0.12-13.98-0.15-20.97-0.01c-4.07,0.08-6.5,2.08-6.46,6.53c0.11,13.48,0.08,26.96,0.23,40.44c0.06,5.2,1.73,6.82,7.02,6.87
		c6.65,0.07,13.31-0.1,19.97-0.2c4.24-0.06,6.45-2.18,6.44-6.51C83.88,521.59,83.89,514.93,83.89,508.27z M499.76,440.39
		c0.01,0,0.03,0,0.04,0c0-6.66-0.02-13.31,0.01-19.97c0.02-4.23-1.96-6.68-6.24-6.75c-7.15-0.12-14.31-0.18-21.46,0.02
		c-3.82,0.11-6.08,2.1-6.04,6.35c0.13,13.48,0.16,26.96,0.1,40.44c-0.02,4.87,2.34,7.06,7,7.01c6.66-0.07,13.31-0.3,19.97-0.32
		c4.64-0.02,6.64-2.35,6.63-6.81C499.74,453.7,499.76,447.05,499.76,440.39z M466.11,512.47c0.03,0,0.07,0,0.1,0
		c0,6.66,0.09,13.32-0.03,19.97c-0.08,4.86,2.29,7.09,6.96,7.04c6.99-0.07,13.98-0.19,20.96-0.39c3.92-0.11,5.62-2.53,5.63-6.21
		c0.05-13.65,0.06-27.29,0.05-40.94c-0.01-3.73-1.88-6.12-5.69-6.22c-7.32-0.18-14.64-0.24-21.96-0.05
		c-4.15,0.11-6.21,2.43-6.08,6.82C466.25,499.16,466.11,505.82,466.11,512.47z M543.83,512.66c0.02,0,0.03,0,0.05,0
		c0-6.82-0.01-13.65,0.01-20.47c0.01-4.01-1.92-6.4-5.94-6.49c-7.15-0.17-14.31-0.21-21.46-0.05c-4.41,0.1-6.43,2.51-6.36,7.11
		c0.2,13.15,0.09,26.3,0.21,39.44c0.05,5.56,1.59,7.2,7.17,7.26c6.82,0.07,13.64-0.17,20.47-0.34c4.17-0.1,5.87-2.54,5.86-6.49
		C543.82,525.97,543.83,519.32,543.83,512.66z M510.17,440.42c0.04,0,0.09,0,0.13,0c0,6.66,0.08,13.32-0.03,19.97
		c-0.08,4.81,2.19,7.14,6.91,7.09c6.66-0.07,13.31-0.29,19.97-0.31c4.58-0.01,6.69-2.2,6.68-6.73c-0.02-13.31-0.02-26.63,0.06-39.94
		c0.03-4.57-2.2-6.83-6.64-6.88c-6.82-0.08-13.65-0.14-20.47-0.01c-4.63,0.09-6.85,2.48-6.67,7.34
		C510.34,427.43,510.17,433.93,510.17,440.42z"/>
	<path class="st0" d="M296.99,631.09c91.33,0,182.66-0.01,273.99,0.01c6.99,0,7.7,0.58,7.95,7.7c0.26,7.32,0.32,14.66,0.01,21.97
		c-0.28,6.64-1.17,7.28-7.94,7.29c-29.67,0.04-59.33,0.01-89,0.02c-140.83,0.06-281.66,0.14-422.49,0.19
		c-12.33,0-24.67-0.28-37-0.14c-4.99,0.06-7.54-1.71-7.49-6.85c0.08-7.99,0.08-15.98,0.09-23.97c0-4.64,2.24-6.28,6.89-6.29
		c49-0.14,98-0.53,147-0.68c42.67-0.13,85.33-0.03,128-0.03C296.99,630.58,296.99,630.84,296.99,631.09z"/>
	<path class="st0" d="M216.95,239.37c15.16-41.05,41.25-61.53,84.46-60.4c43.25,1.12,65.73,31.14,75.38,60.4
		C323.59,239.37,270.55,239.37,216.95,239.37z"/>
	<path class="st0" d="M295.19,107.8c0-7.24,0-14.14,0-21.43c7.35,0,14.36,0,22.48,0c-2.86,2.34-5.01,4.04-7.1,5.82
		c-4.24,3.61-4.28,5.88-0.14,9.78c1.9,1.79,3.89,3.47,6.55,5.83C309.11,107.8,302.26,107.8,295.19,107.8z"/>
	<path class="st1" d="M281.71,424c0,25.82,0,51.64,0,77.45c0,7.81-1.51,9.37-9.29,9.41c-5.16,0.03-10.33,0.03-15.49,0
		c-6.85-0.04-8.52-1.67-8.57-8.6c-0.25-34.15-0.45-68.3-0.68-102.44c-0.12-17.99-0.26-35.98-0.38-53.97c-0.05-7.53,1.5-9.09,9-9.13
		c4.5-0.02,9-0.02,13.49-0.03c9.98-0.02,10.62,0.6,10.71,10.85c0.15,16.82,0.27,33.65,0.36,50.47c0.05,8.66,0.01,17.32,0.01,25.99
		C281.15,424,281.43,424,281.71,424z M272.8,502.7c0-52.81,0-105.16,0-157.62c-6.25,0-11.66,0-16.66,0c0,52.68,0,105.03,0,157.62
		C262.31,502.7,267.58,502.7,272.8,502.7z"/>
	<path class="st1" d="M425.71,424.28c0,25.65-0.01,51.3,0,76.95c0,8.11-1.44,9.6-9.58,9.63c-5,0.02-9.99,0.02-14.99,0
		c-7.13-0.03-8.74-1.62-8.79-8.89c-0.34-48.14-0.65-96.28-0.97-144.42c-0.03-4.5-0.14-9-0.08-13.49c0.08-5.22,2.07-7.22,7.29-7.32
		c5.83-0.1,11.66-0.06,17.49-0.05c6.79,0.02,8.3,1.35,8.37,8.13c0.21,21.49,0.31,42.98,0.43,64.46c0.03,5,0,9.99,0,14.99
		C425.16,424.28,425.44,424.28,425.71,424.28z M416.82,502.8c0-52.87,0-105.23,0-157.74c-6.23,0-11.64,0-16.5,0
		c0,52.76,0,105.2,0,157.74C406.53,502.8,411.67,502.8,416.82,502.8z"/>
	<path class="st1" d="M213.2,424.04c0,25.98,0,51.97,0,77.95c0,7.26-1.5,8.81-8.73,8.87c-5.33,0.04-10.66,0.04-15.99,0.01
		c-6.81-0.04-8.41-1.67-8.46-8.66c-0.34-48.97-0.66-97.94-0.98-146.91c-0.03-4-0.08-8-0.05-11.99c0.03-4.25,2.24-6.5,6.48-6.55
		c6.33-0.08,12.66-0.09,18.99-0.05c5.83,0.04,7.48,1.56,7.57,7.39c0.18,10.82,0.23,21.65,0.26,32.48
		c0.04,15.82,0.01,31.65,0.01,47.47C212.59,424.04,212.9,424.04,213.2,424.04z M204.36,502.79c0-52.83,0-105.17,0-157.74
		c-6.17,0-11.56,0-16.44,0c0,52.74,0,105.19,0,157.74C194.06,502.79,199.19,502.79,204.36,502.79z"/>
	<path class="st1" d="M357.2,423.81c0,25.98,0,51.97,0,77.95c0,7.57-1.44,9.05-9,9.1c-5.5,0.03-10.99,0.06-16.49-0.01
		c-5.68-0.07-7.62-1.88-7.66-7.42c-0.39-53.13-0.74-106.27-1.05-159.4c-0.03-5.26,1.95-7.2,7.24-7.29
		c5.66-0.1,11.33-0.06,16.99-0.05c7.48,0.01,8.81,1.22,8.82,8.67c0.04,26.15,0.02,52.3,0.02,78.45
		C356.44,423.81,356.82,423.81,357.2,423.81z M331.85,344.97c0,52.91,0,105.24,0,157.72c6.19,0,11.44,0,16.41,0
		c0-52.71,0-105.17,0-157.72C342.1,344.97,336.82,344.97,331.85,344.97z"/>
	<path class="st1" d="M94.38,435.99c0-6.66,0.1-13.31-0.03-19.97c-0.09-4.63,2.21-6.85,6.58-6.92c6.99-0.12,13.98-0.11,20.96,0.03
		c3.94,0.08,6.14,2.22,6.13,6.31c-0.01,13.64-0.04,27.29-0.05,40.93c0,4.37-2.33,6.34-6.54,6.39c-6.66,0.08-13.31,0.27-19.97,0.19
		c-5.26-0.06-6.77-1.66-6.85-6.99c-0.1-6.65-0.03-13.31-0.03-19.97C94.53,435.99,94.45,435.99,94.38,435.99z M119.88,417.18
		c-6.02,0-11.45,0-17.08,0c0,12.6,0,24.97,0,37.32c5.97,0,11.49,0,17.08,0C119.88,441.87,119.88,429.76,119.88,417.18z"/>
	<path class="st1" d="M94.38,507.9c0-6.66,0.09-13.31-0.03-19.97c-0.09-4.67,2.33-6.78,6.66-6.85c6.82-0.12,13.64-0.08,20.47,0
		c4.48,0.05,6.61,2.39,6.58,6.93c-0.08,13.31-0.1,26.62-0.06,39.94c0.01,4.56-2.13,6.77-6.64,6.82c-6.49,0.07-12.98,0.25-19.47,0.2
		c-5.81-0.05-7.21-1.55-7.28-7.59c-0.08-6.49-0.02-12.98-0.02-19.47C94.52,507.9,94.45,507.9,94.38,507.9z M102.83,489.21
		c0,12.63,0,25,0,37.43c5.88,0,11.28,0,16.84,0c0-12.72,0-25.06,0-37.43C113.8,489.21,108.37,489.21,102.83,489.21z"/>
	<path class="st1" d="M83.9,435.88c0,6.49,0.05,12.98-0.01,19.47c-0.05,5.52-1.69,7.26-7.04,7.39c-6.49,0.16-12.98,0.15-19.47,0.24
		c-4.78,0.07-6.97-2.24-6.97-7.02c0.01-13.31-0.04-26.63-0.19-39.94c-0.06-4.64,2.23-6.84,6.59-6.93
		c6.82-0.13,13.64-0.07,20.47-0.01c4.45,0.04,6.73,2.27,6.69,6.83c-0.06,6.66-0.01,13.31-0.01,19.97
		C83.94,435.88,83.92,435.88,83.9,435.88z M75.62,454.68c0-12.92,0-25.15,0-37.3c-5.96,0-11.51,0-16.95,0c0,12.69,0,24.96,0,37.3
		C64.51,454.68,69.93,454.68,75.62,454.68z"/>
	<path class="st1" d="M83.89,508.27c0,6.66-0.01,13.31,0,19.97c0.01,4.32-2.2,6.44-6.44,6.51c-6.66,0.1-13.31,0.27-19.97,0.2
		c-5.28-0.05-6.96-1.67-7.02-6.87c-0.16-13.48-0.12-26.96-0.23-40.44c-0.04-4.45,2.4-6.44,6.46-6.53
		c6.99-0.15,13.98-0.11,20.97,0.01c4.24,0.07,6.32,2.41,6.29,6.69c-0.04,6.82-0.01,13.65-0.01,20.47
		C83.93,508.27,83.91,508.27,83.89,508.27z M75.6,526.67c0-12.94,0-25.17,0-37.27c-5.97,0-11.52,0-16.93,0c0,12.71,0,24.98,0,37.27
		C64.53,526.67,69.96,526.67,75.6,526.67z"/>
	<path class="st1" d="M499.76,440.39c0,6.66-0.02,13.31,0.01,19.97c0.02,4.46-1.99,6.79-6.63,6.81c-6.66,0.02-13.31,0.26-19.97,0.32
		c-4.66,0.05-7.02-2.14-7-7.01c0.06-13.48,0.02-26.96-0.1-40.44c-0.04-4.25,2.22-6.24,6.04-6.35c7.15-0.2,14.31-0.14,21.46-0.02
		c4.28,0.07,6.26,2.53,6.24,6.75c-0.03,6.66-0.01,13.31-0.01,19.97C499.79,440.39,499.77,440.39,499.76,440.39z M491.63,459.16
		c0-12.86,0-24.94,0-37.27c-5.92,0-11.6,0-17.15,0c0,12.68,0,24.91,0,37.27C480.31,459.16,485.73,459.16,491.63,459.16z"/>
	<path class="st1" d="M466.11,512.47c0-6.66,0.14-13.32-0.05-19.97c-0.12-4.4,1.93-6.72,6.08-6.82c7.31-0.19,14.64-0.13,21.96,0.05
		c3.8,0.09,5.68,2.49,5.69,6.22c0.02,13.65,0.01,27.29-0.05,40.94c-0.01,3.68-1.71,6.09-5.63,6.21c-6.99,0.2-13.98,0.32-20.96,0.39
		c-4.67,0.05-7.05-2.19-6.96-7.04c0.12-6.66,0.03-13.31,0.03-19.97C466.17,512.47,466.14,512.47,466.11,512.47z M491.63,531.16
		c0-12.86,0-24.94,0-37.26c-5.92,0-11.6,0-17.14,0c0,12.68,0,24.92,0,37.26C480.32,531.16,485.74,531.16,491.63,531.16z"/>
	<path class="st1" d="M543.83,512.66c0,6.66-0.01,13.31,0,19.97c0.01,3.95-1.7,6.38-5.86,6.49c-6.82,0.17-13.65,0.41-20.47,0.34
		c-5.58-0.06-7.13-1.7-7.17-7.26c-0.11-13.15-0.01-26.3-0.21-39.44c-0.07-4.6,1.95-7.01,6.36-7.11c7.15-0.16,14.31-0.12,21.46,0.05
		c4.02,0.09,5.95,2.48,5.94,6.49c-0.02,6.82-0.01,13.65-0.01,20.47C543.86,512.66,543.84,512.66,543.83,512.66z M535.59,531.22
		c0-12.88,0-25.08,0-37.4c-5.93,0-11.5,0-16.89,0c0,12.72,0,25.08,0,37.4C524.53,531.22,529.82,531.22,535.59,531.22z"/>
	<path class="st1" d="M510.17,440.42c0-6.49,0.17-12.99-0.06-19.47c-0.17-4.86,2.04-7.25,6.67-7.34c6.82-0.13,13.65-0.07,20.47,0.01
		c4.44,0.05,6.67,2.32,6.64,6.88c-0.07,13.31-0.08,26.63-0.06,39.94c0.01,4.53-2.1,6.72-6.68,6.73c-6.66,0.02-13.31,0.25-19.97,0.31
		c-4.72,0.05-6.99-2.28-6.91-7.09c0.11-6.66,0.03-13.31,0.03-19.97C510.26,440.42,510.22,440.42,510.17,440.42z M518.68,421.8
		c0,12.71,0,25.07,0,37.25c5.94,0,11.34,0,16.93,0c0-12.68,0-24.88,0-37.25C529.7,421.8,524.13,421.8,518.68,421.8z"/>
	<path class="st0" d="M272.8,502.7c-5.22,0-10.49,0-16.66,0c0-52.59,0-104.94,0-157.62c5,0,10.41,0,16.66,0
		C272.8,397.54,272.8,449.89,272.8,502.7z"/>
	<path class="st0" d="M416.82,502.8c-5.15,0-10.29,0-16.5,0c0-52.53,0-104.98,0-157.74c4.85,0,10.26,0,16.5,0
		C416.82,397.57,416.82,449.93,416.82,502.8z"/>
	<path class="st0" d="M204.36,502.79c-5.18,0-10.31,0-16.44,0c0-52.55,0-105,0-157.74c4.88,0,10.27,0,16.44,0
		C204.36,397.62,204.36,449.96,204.36,502.79z"/>
	<path class="st0" d="M331.85,344.97c4.97,0,10.25,0,16.41,0c0,52.54,0,105,0,157.72c-4.97,0-10.22,0-16.41,0
		C331.85,450.22,331.85,397.89,331.85,344.97z"/>
	<path class="st0" d="M119.88,417.18c0,12.58,0,24.68,0,37.32c-5.59,0-11.11,0-17.08,0c0-12.35,0-24.72,0-37.32
		C108.42,417.18,113.86,417.18,119.88,417.18z"/>
	<path class="st0" d="M102.83,489.21c5.54,0,10.97,0,16.84,0c0,12.38,0,24.71,0,37.43c-5.56,0-10.96,0-16.84,0
		C102.83,514.21,102.83,501.84,102.83,489.21z"/>
	<path class="st0" d="M75.62,454.68c-5.69,0-11.11,0-16.95,0c0-12.34,0-24.61,0-37.3c5.44,0,10.99,0,16.95,0
		C75.62,429.53,75.62,441.76,75.62,454.68z"/>
	<path class="st0" d="M75.6,526.67c-5.65,0-11.07,0-16.93,0c0-12.29,0-24.56,0-37.27c5.4,0,10.95,0,16.93,0
		C75.6,501.5,75.6,513.73,75.6,526.67z"/>
	<path class="st0" d="M491.63,459.16c-5.9,0-11.32,0-17.15,0c0-12.35,0-24.59,0-37.27c5.55,0,11.23,0,17.15,0
		C491.63,434.22,491.63,446.31,491.63,459.16z"/>
	<path class="st0" d="M491.63,531.16c-5.89,0-11.31,0-17.14,0c0-12.34,0-24.58,0-37.26c5.54,0,11.22,0,17.14,0
		C491.63,506.22,491.63,518.3,491.63,531.16z"/>
	<path class="st0" d="M535.59,531.22c-5.77,0-11.06,0-16.89,0c0-12.33,0-24.69,0-37.4c5.4,0,10.96,0,16.89,0
		C535.59,506.14,535.59,518.34,535.59,531.22z"/>
	<path class="st0" d="M518.68,421.8c5.45,0,11.02,0,16.93,0c0,12.37,0,24.57,0,37.25c-5.59,0-10.99,0-16.93,0
		C518.68,446.87,518.68,434.51,518.68,421.8z"/>
</g>
</svg>
