<?xml version="1.0" encoding="utf-8"?>
<!-- Generator: Adobe Illustrator 24.0.1, SVG Export Plug-In . SVG Version: 6.00 Build 0)  -->
<svg version="1.1" id="Слой_1" xmlns="http://www.w3.org/2000/svg" xmlns:xlink="http://www.w3.org/1999/xlink" x="0px" y="0px"
	 viewBox="0 0 900 900" style="enable-background:new 0 0 900 900;" xml:space="preserve">
<style type="text/css">
	.st0{display:none;}
	.st1{fill:#FFFFFF;}
</style>
<g>
	<path class="st0" d="M1095.62,1095.62c-424.85,0-849.7,0-1274.55,0c0-424.85,0-849.7,0-1274.55c424.85,0,849.7,0,1274.55,0
		C1095.62,245.91,1095.62,670.77,1095.62,1095.62z M442.54,372.05c-16.82-2.03-32.66-4.36-48.56-5.62
		c-6.42-0.51-6.32-4.97-8.24-8.74c-2-3.89-0.88-6.2,2.11-9.11c5.06-4.9,10.38-9.93,13.89-15.9c3.6-6.13,7.86-8.75,14.61-8.26
		c1.63,0.13,3.3-0.17,4.94-0.25c7.96-0.42,10.69-2.52,11.17-10.49c1.98-32.53-0.17-64.58-11.92-95.41
		c-6.03-15.83-16.84-26.34-33.44-30.76c-26.17-6.98-52.27-6.67-78.19,0.93c-17.79,5.23-29.48,16.77-34.99,34.78
		c-8.2,26.77-10.69,54.14-8.74,81.85c1.36,19.08-1.37,20.93,20.89,20.63c2.42-0.03,5.51,1.87,7.21,3.81
		c5.4,6.19,9.63,13.5,15.54,19.09c5.03,4.76,2.1,8.72,1.32,13.34c-0.82,4.8-4.35,4.01-7.51,4.4c-12.39,1.54-24.78,3.07-37.16,4.72
		c-11.77,1.56-18.28,8.89-21.31,19.84c-1.54,5.55-2.92,11.15-4.09,15.71c-3.97-0.78-7.24-1.9-10.55-2c-8.26-0.24-16.51-0.06-24.77,0
		c-15.31,0.11-17.94-1.56-21.94-16.02c-0.79-2.86,0.28-6.64,1.53-9.56c1.74-4.08,4.39-7.77,6.74-11.57
		c3.54-5.72,6.97-11.51,10.75-17.08c7.56-11.12,9.09-24.27,5.88-35.94c-1.98-7.21-2.25-13.91-2.75-20.9
		c-0.31-4.46-0.01-8.98-0.37-13.44c-1.98-24.73-14.53-42.12-37.53-51.05c-23.71-9.22-48.22-9.13-72.13-1.19
		c-20,6.64-35.59,19.47-39.48,41.39c-2.04,11.44-0.65,23.49-0.82,35.28c-0.03,2.11,0.38,4.33-0.14,6.32
		c-4.45,16.64-3.48,32.02,9.63,44.89c1.3,1.27,2.14,3.04,3.07,4.66c4.09,7.12,8.17,14.25,12.15,21.44c0.84,1.53,2.03,3.57,1.63,4.96
		c-4.06,14.29-6.29,18.84-20.96,19.16c-9.21,0.2-18.44-0.4-27.6,0.27c-3.78,0.28-8.65,1.98-10.82,4.76
		c-5.42,7-10.64,14.53-14.09,22.63c-12.8,30.07-16.92,62.2-20.36,94.33c-1.88,17.57-2.68,35.28-3.64,52.94
		c-0.47,8.57,4.96,11.75,12.86,8.03c1.06-0.5,2.08-1.09,3.12-1.66c84.04-45.84,168.09-91.63,252.04-137.62
		c4.7-2.58,8.09-2.68,12.8,0.07c57.43,33.53,114.98,66.83,172.5,100.18c9.06,5.25,11.8,4.98,19.36-1.77
		c37.13-33.17,74.29-66.32,111.41-99.49c32.37-28.93,64.7-57.92,97.12-86.8c4.14-3.68,7.55-7.58,5.27-13.35
		c-2.66-6.77-5.68-13.43-9.06-19.85c-2.58-4.87-6.76-7.21-12.79-6.98c-9.87,0.38-19.81,0.3-29.67-0.4
		c-6.16-0.42-13.96-13.06-11.29-18.48c4.33-8.78,8.78-17.86,15.01-25.28c9.18-10.95,10.83-23.76,8.06-35.9
		c-1.59-6.94-1.66-13.55-2.31-20.34c-0.23-2.34-0.01-4.72-0.14-7.08c-1.42-26.2-14.56-44.04-38.73-51.76
		c-17.93-5.72-36.32-6.08-54.48-1.49c-30.16,7.62-43.86,25.65-43.86,56.42c0,4.96,0.4,9.9,0.41,14.86c0,2.29-0.35,4.62-0.79,6.88
		c-2.12,11.09-2.39,22.16,3.26,32.26c5.35,9.57,11.02,19.1,17.73,27.74c4.36,5.61,3.19,9.94,0.92,15.38
		c-2.42,5.83-6.7,8.28-12.62,8.44c-6.84,0.17-13.82,1.05-20.51,0.04c-12.99-1.95-19.8,4.97-24.71,15.27
		c-2.32,4.87-4.35,9.93-6.1,15.04C446.09,359.72,444.29,366.29,442.54,372.05z M710.6,359.17c-1.2,0.93-2.95,2.11-4.49,3.5
		C622.55,437.34,538.96,512,455.55,586.86c-4.63,4.15-7.72,3.88-12.66,0.99c-58.64-34.21-117.47-68.15-176.11-102.37
		c-6.49-3.78-11.91-3.75-18.41-0.17c-38.59,21.31-77.31,42.37-116.01,63.47C90.33,571.69,48.3,594.55,6.28,617.45
		c-8.23,4.49-10.03,8.78-6.17,15.88c17.99,33.15,36.03,66.28,54.18,99.33c4.66,8.48,8.57,9.3,17.29,4.55
		c59.59-32.52,119.21-64.97,178.75-97.6c3.8-2.08,6.56-2.03,10.24,0.13c25.62,15.04,51.35,29.87,77.05,44.77
		c40.59,23.54,81.17,47.07,121.76,70.6c7.62,4.42,11.09,4.01,17.53-2.05c9.28-8.72,18.33-17.72,27.79-26.24
		c93.93-84.67,187.94-169.27,281.95-253.89c7.14-6.42,14.33-12.76,23.03-20.51c12.79,13.48,25.08,26.52,37.49,39.47
		c7.32,7.63,13.98,6,16.92-4.14c22.59-77.82,45.15-155.64,67.66-233.48c3.5-12.08-0.48-16.14-12.72-12.87
		c-79.21,21.17-158.38,42.43-237.56,63.69c-13.09,3.51-14.47,9.21-4.97,18.86C687.73,335.33,698.76,346.92,710.6,359.17z"/>
	<path class="st1" d="M442.25,380.21c1.56-5.13,3.17-10.98,5.14-16.71c1.57-4.55,3.36-9.05,5.44-13.4
		c4.38-9.18,10.45-15.34,22.01-13.6c5.95,0.89,12.16,0.11,18.25-0.03c5.27-0.13,9.08-2.32,11.23-7.51c2.01-4.84,3.06-8.7-0.82-13.69
		c-5.98-7.69-11.02-16.17-15.79-24.7c-5.03-8.99-4.8-18.85-2.9-28.72c0.38-2.01,0.71-4.09,0.71-6.13c0-4.4-0.37-8.82-0.37-13.23
		c0-27.4,12.19-43.45,39.04-50.23c16.16-4.08,32.53-3.77,48.5,1.33c21.51,6.87,33.21,22.76,34.48,46.08c0.11,2.1-0.07,4.22,0.13,6.3
		c0.57,6.03,0.64,11.92,2.05,18.1c2.48,10.81,1.01,22.22-7.17,31.96c-5.54,6.61-9.5,14.69-13.37,22.5
		c-2.39,4.84,4.57,16.07,10.05,16.46c8.78,0.61,17.62,0.68,26.41,0.35c5.37-0.21,9.09,1.87,11.39,6.22
		c3.02,5.72,5.69,11.66,8.07,17.69c2.03,5.14-1.01,8.6-4.69,11.88c-28.88,25.7-57.65,51.52-86.49,77.28
		c-33.05,29.54-66.14,59.05-99.2,88.58c-6.73,6-9.16,6.25-17.23,1.57c-51.22-29.7-102.46-59.34-153.58-89.2
		c-4.19-2.45-7.21-2.37-11.4-0.07c-74.75,40.94-149.59,81.73-224.41,122.53c-0.92,0.5-1.83,1.03-2.78,1.47
		c-7.04,3.31-11.87,0.48-11.46-7.15c0.86-15.72,1.57-31.48,3.24-47.13c3.07-28.61,6.73-57.21,18.14-83.99
		c3.07-7.21,7.7-13.92,12.55-20.15c1.93-2.48,6.26-3.99,9.63-4.25c8.16-0.61,16.39-0.06,24.57-0.24
		c13.06-0.3,15.04-4.33,18.67-17.06c0.35-1.25-0.71-3.06-1.46-4.42c-3.54-6.4-7.18-12.75-10.82-19.09
		c-0.82-1.44-1.57-3.02-2.73-4.15c-11.67-11.47-12.53-25.17-8.57-39.98c0.47-1.76,0.1-3.74,0.13-5.62
		c0.14-10.49-1.09-21.21,0.72-31.41c3.47-19.51,17.35-30.94,35.16-36.86c21.27-7.07,43.11-7.14,64.21,1.06
		c20.48,7.96,31.65,23.44,33.42,45.46c0.31,3.97,0.06,7.99,0.34,11.97c0.44,6.23,0.67,12.19,2.44,18.61
		c2.87,10.39,1.5,22.11-5.23,32.01c-3.37,4.94-6.43,10.11-9.57,15.21c-2.1,3.38-4.46,6.67-6,10.31c-1.1,2.59-2.05,5.96-1.36,8.51
		c3.54,12.87,5.89,14.36,19.53,14.26c7.35-0.06,14.71-0.23,22.06,0c2.95,0.08,5.86,1.08,9.39,1.78c1.06-4.06,2.28-9.05,3.65-13.98
		c2.7-9.74,8.5-16.29,18.98-17.66c11.02-1.46,22.05-2.82,33.08-4.19c2.8-0.35,5.96,0.35,6.68-3.92c0.69-4.11,3.31-7.63-1.16-11.88
		c-5.25-4.98-9.04-11.49-13.84-16.99c-1.52-1.73-4.26-3.43-6.42-3.4c-19.81,0.27-17.39-1.39-18.59-18.37
		c-1.74-24.67,0.48-49.04,7.77-72.88c4.91-16.03,15.32-26.31,31.16-30.97c23.07-6.78,46.31-7.05,69.62-0.84
		c14.78,3.95,24.4,13.3,29.77,27.39c10.47,27.46,12.39,56,10.62,84.96c-0.44,7.1-2.86,8.96-9.96,9.35c-1.47,0.08-2.95,0.34-4.4,0.23
		c-6.02-0.45-9.81,1.9-13.01,7.35c-3.13,5.32-7.87,9.8-12.38,14.16c-2.66,2.58-3.65,4.63-1.88,8.1c1.73,3.36,1.63,7.32,7.34,7.77
		C413.19,376.33,427.28,378.4,442.25,380.21z M297.07,327.36c3.61,0,6.77,0.25,9.86-0.06c6.77-0.68,10.69,2.04,13.72,8.3
		c2.68,5.54,6.37,11.39,11.22,14.9c7.46,5.42,7.9,11.61,5.79,19.23c-0.84,3.03-1.69,6.06-2.46,9.11c-1.25,4.86-4.08,7.1-9.33,7.58
		c-12.11,1.12-24.15,3.03-36.24,4.39c-7.32,0.82-11.22,4.97-12.63,11.87c-1.73,8.43-3.13,16.92-5.24,25.24
		c-0.67,2.62-2.83,6.19-4.98,6.73c-2.22,0.57-5.55-1.6-7.79-3.34c-1.69-1.32-2.56-3.8-3.54-5.88c-1.84-3.95-4.77-5.27-9.09-5.04
		c-7.12,0.37-14.29,0.3-21.43,0.3c-14.22,0-20.14-4.23-24.63-17.63c-0.99-2.97-1.74-6.05-2.51-9.09c-1.23-4.93-0.59-9.19,2.92-13.43
		c3.16-3.82,5.06-8.67,7.68-12.96c2.56-4.21,5.28-8.33,8.07-12.38c4.46-6.49,8.06-14.26,4.76-21.13c-2.52-5.25-2.66-9.69-2.48-14.81
		c0.2-5.66,0.65-11.39,0.07-16.98c-1.78-17.19-8.85-30.93-26.03-37.68c-19.01-7.48-38.01-7.89-57.14-0.54
		c-14.56,5.59-24.98,15.18-26.91,31.17c-1.06,8.87,0.14,17.99,0.28,27.01c0.04,2.89,0.82,6.13-0.2,8.61
		c-3.72,9.09-0.69,18.65,5.28,26.14c7.45,9.36,12.9,20.31,19.22,30.58c0.1,0.16,0.04,0.41,0.08,0.62
		c2.93,16.12-11.33,33.58-27.64,33.78c-3.36,0.04-6.73-0.11-10.08-0.11c-21.72-0.01-22.38,0.38-30.38,20.8
		c-8.34,21.27-12.45,43.55-15.2,66.09c-1.97,16.19-3.36,32.44-5.13,49.98c3.6-1.88,5.98-3.07,8.31-4.35
		c72.25-39.4,144.51-78.77,216.69-118.31c5.82-3.19,10.58-3.09,16.37,0.28c51.12,29.87,102.43,59.42,153.57,89.28
		c4.21,2.46,6.57,2.1,10.15-1.12c59.11-53.05,118.38-105.93,177.57-158.88c2.18-1.95,5.91-3.46,3.34-7.51
		c-2.78-4.4-2.41-11.64-10.58-11.24c-7.34,0.35-14.71,0.5-22.05,0.14c-3.64-0.17-7.86-0.76-10.72-2.73
		c-10.99-7.58-13.99-25.68-6.84-36.66c2.39-3.68,4.11-7.79,6.26-11.63c1.4-2.51,2.7-5.18,4.65-7.25c6.36-6.78,7.62-14.47,3.68-23.06
		c-0.74-1.61-0.65-3.7-0.57-5.55c0.18-3.98,1.03-7.97,0.89-11.94c-0.57-16.81-3.77-32.37-21.23-40.33
		c-18.86-8.6-37.78-8.6-56.68-0.13c-13.68,6.13-20.46,16.98-20.99,31.72c-0.21,5.85,0.55,11.73,0.78,17.6
		c0.11,2.92,1.09,6.5-0.21,8.62c-4.15,6.74-1.63,12.9,1.42,18.38c5.57,9.97,12.18,19.34,18.35,28.97c0.67,1.05,1.67,1.98,2.01,3.13
		c4.01,13.26-8.92,31.45-22.79,31.95c-7.14,0.25-14.3,0.27-21.43-0.08c-4.59-0.23-7.66,1.26-9.5,5.45
		c-1.77,4.04-4.05,7.89-5.32,12.07c-2.87,9.42-5.37,18.95-7.85,28.48c-1.64,6.37-7.92,9.04-11.5,4.09c-5.2-7.17-12.72-7.6-20-8.71
		c-9.74-1.47-19.59-2.38-29.43-3.1c-8.27-0.61-8.84-7.43-10.73-12.87c-2.11-6-6.78-12.29-0.55-18.64c1.32-1.35,3.02-2.32,4.29-3.7
		c3.81-4.18,8.74-7.9,10.95-12.83c4.32-9.63,11.27-12.9,21.03-12.04c3.97,0.35,5.65-1.26,5.83-5.27
		c1.18-25.51-2.52-50.23-11.67-74.11c-3.63-9.45-10.18-15.44-19.88-18.61c-22.23-7.25-44.14-6.57-66.05,1.35
		c-10.25,3.71-16.6,10.59-20.04,20.93c-7.07,21.2-9.74,42.91-8.78,65.14C295.89,319.43,296.57,323.14,297.07,327.36z"/>
	<path class="st1" d="M680.95,368.73c-10.55-10.9-20.36-21.21-30.36-31.37c-8.47-8.6-7.24-13.67,4.42-16.8
		c70.5-18.93,141.01-37.85,211.52-56.7c10.9-2.92,14.44,0.69,11.33,11.46c-20.04,69.31-40.13,138.6-60.24,207.89
		c-2.62,9.04-8.54,10.49-15.07,3.68c-11.05-11.53-21.99-23.15-33.38-35.15c-7.75,6.9-14.15,12.53-20.51,18.25
		c-83.7,75.34-167.39,150.67-251.03,226.06c-8.43,7.59-16.48,15.59-24.74,23.37c-5.75,5.4-8.82,5.76-15.62,1.83
		c-36.14-20.95-72.28-41.9-108.42-62.86c-22.89-13.27-45.8-26.47-68.61-39.87c-3.27-1.93-5.74-1.97-9.12-0.11
		c-53.01,29.06-106.09,57.96-159.15,86.91c-7.77,4.23-11.26,3.5-15.39-4.05c-16.16-29.44-32.23-58.93-48.25-88.45
		c-3.43-6.32-1.83-10.14,5.49-14.13c37.42-20.39,74.84-40.74,112.25-61.15c34.46-18.79,68.94-37.54,103.3-56.52
		c5.78-3.19,10.61-3.21,16.39,0.16c52.21,30.48,104.58,60.68,156.81,91.14c4.4,2.56,7.15,2.82,11.27-0.88
		c74.26-66.66,148.68-133.13,223.09-199.62C678.33,370.61,679.87,369.56,680.95,368.73z M864.4,277.24
		c-67.92,18.21-134.56,36.1-202,54.2c1.94,2.1,3.14,3.5,4.45,4.79c8.67,8.57,17.39,17.08,26.02,25.69c4.08,4.06,4.01,7.87,0,11.94
		c-1.33,1.35-2.75,2.61-4.15,3.87c-77.38,69.19-154.77,138.35-232.07,207.62c-4.91,4.4-9.25,4.4-14.7,1.23
		c-52.99-30.83-106.09-61.48-159.05-92.35c-3.88-2.27-6.6-2.51-10.68-0.25c-61.46,33.73-123.04,67.25-184.58,100.85
		c-8.78,4.79-17.52,9.64-26.65,14.67c15.44,28.31,30.55,56.05,45.78,84.04c3.04-1.57,5.47-2.76,7.83-4.05
		c51.24-27.94,102.47-55.85,153.67-83.88c4.81-2.63,9.23-3.27,14.16-0.41c49.01,28.48,98.07,56.89,147.11,85.31
		c11.58,6.71,23.17,13.44,34.89,20.24c6.73-6.39,12.99-12.6,19.51-18.51c45.66-41.3,91.34-82.56,137.07-123.77
		c46.51-41.92,93.11-83.74,139.55-125.74c3.37-3.04,6.84-4.32,10.78-2.89c2.18,0.79,3.85,3.14,5.64,4.9
		c9.83,9.62,19.63,19.27,30.16,29.61C826.33,408.29,845.18,343.39,864.4,277.24z"/>
	<path class="st0" d="M279.46,312.7c-0.55-4.74-1.32-8.89-1.5-13.09c-1.08-24.97,1.93-49.35,9.87-73.16
		c3.87-11.6,10.99-19.33,22.52-23.51c24.6-8.89,49.21-9.66,74.18-1.52c10.89,3.55,18.27,10.28,22.33,20.89
		c10.28,26.82,14.43,54.58,13.11,83.23c-0.21,4.5-2.11,6.3-6.56,5.91c-10.96-0.98-18.76,2.69-23.62,13.52
		c-2.48,5.54-8.02,9.71-12.29,14.4c-1.42,1.56-3.33,2.65-4.81,4.16c-7,7.12-1.74,14.18,0.62,20.93c2.14,6.09,2.76,13.77,12.05,14.44
		c11.05,0.81,22.11,1.83,33.05,3.48c8.17,1.23,16.61,1.73,22.45,9.77c4.02,5.55,11.06,2.56,12.92-4.59
		c2.78-10.71,5.57-21.41,8.81-31.99c1.43-4.69,3.99-9.02,5.98-13.55c2.05-4.7,5.51-6.39,10.66-6.13c8,0.4,16.05,0.38,24.06,0.1
		c15.58-0.55,30.08-20.99,25.59-35.87c-0.38-1.27-1.52-2.34-2.27-3.51c-6.94-10.81-14.37-21.34-20.62-32.54
		c-3.43-6.15-6.26-13.07-1.6-20.63c1.46-2.38,0.35-6.42,0.24-9.69c-0.25-6.6-1.1-13.2-0.88-19.77c0.58-16.54,8.21-28.73,23.57-35.62
		c21.23-9.52,42.47-9.5,63.66,0.14c19.63,8.94,23.21,26.41,23.85,45.3c0.16,4.45-0.79,8.92-1.01,13.4c-0.1,2.08-0.18,4.43,0.64,6.23
		c4.42,9.66,3,18.28-4.14,25.9c-2.17,2.31-3.64,5.32-5.21,8.14c-2.42,4.32-4.35,8.94-7.02,13.06c-8.03,12.33-4.66,32.66,7.69,41.18
		c3.21,2.22,7.96,2.87,12.05,3.07c8.24,0.4,16.53,0.24,24.77-0.17c9.16-0.44,8.75,7.68,11.87,12.63c2.87,4.55-1.3,6.23-3.75,8.43
		c-66.49,59.46-133.05,118.86-199.44,178.44c-4.02,3.61-6.67,4.01-11.4,1.25c-57.43-33.53-115.05-66.73-172.48-100.26
		c-6.49-3.8-11.84-3.91-18.38-0.33C167.95,479.19,86.79,523.4,5.65,567.65c-2.62,1.43-5.3,2.78-9.33,4.89
		c2-19.68,3.54-37.94,5.75-56.12c3.09-25.32,7.69-50.34,17.06-74.22c8.99-22.93,9.71-23.37,34.12-23.35c3.78,0,7.55,0.18,11.33,0.13
		c18.31-0.23,34.34-19.83,31.04-37.94c-0.04-0.23,0.03-0.51-0.08-0.69C88.45,368.81,82.32,356.5,73.95,346
		c-6.7-8.41-10.13-19.15-5.93-29.37c1.15-2.79,0.27-6.43,0.23-9.67c-0.16-10.13-1.52-20.38-0.33-30.32
		c2.15-17.97,13.88-28.73,30.22-35.01c21.47-8.24,42.82-7.79,64.17,0.61c19.29,7.59,27.23,23,29.23,42.32
		c0.65,6.29,0.14,12.72-0.08,19.08c-0.2,5.76-0.06,10.73,2.79,16.64c3.71,7.72-0.34,16.44-5.34,23.74
		c-3.13,4.56-6.17,9.19-9.06,13.91c-2.95,4.81-5.07,10.27-8.61,14.56c-3.94,4.76-4.65,9.54-3.27,15.08
		c0.85,3.43,1.69,6.87,2.8,10.21c5.03,15.04,11.68,19.8,27.66,19.8c8.03,0,16.06,0.08,24.06-0.33c4.84-0.25,8.14,1.22,10.21,5.65
		c1.09,2.34,2.08,5.11,3.98,6.6c2.52,1.97,6.26,4.39,8.75,3.75c2.41-0.61,4.84-4.62,5.59-7.56c2.38-9.35,3.95-18.89,5.89-28.34
		c1.59-7.76,5.96-12.41,14.19-13.34c13.58-1.54,27.09-3.68,40.7-4.94c5.91-0.54,9.09-3.06,10.48-8.51
		c0.88-3.43,1.83-6.83,2.76-10.24c2.38-8.55,1.87-15.51-6.5-21.6c-5.44-3.95-9.59-10.51-12.59-16.74
		c-3.4-7.04-7.82-10.08-15.41-9.32C287.05,312.98,283.51,312.7,279.46,312.7z"/>
	<path class="st0" d="M916.66,256.41c-21.58,74.29-42.75,147.2-64.31,221.35c-11.83-11.61-22.83-22.46-33.87-33.27
		c-2.01-1.97-3.88-4.6-6.33-5.49c-4.42-1.6-8.33-0.18-12.11,3.24c-52.16,47.17-104.5,94.13-156.74,141.22
		c-51.36,46.29-102.67,92.63-153.95,139.01c-7.34,6.64-14.37,13.61-21.92,20.79c-13.17-7.63-26.17-15.2-39.19-22.73
		c-55.07-31.93-110.18-63.84-165.22-95.82c-5.52-3.21-10.49-2.49-15.9,0.47c-57.48,31.48-115.04,62.84-172.59,94.2
		c-2.66,1.44-5.38,2.79-8.79,4.55c-17.12-31.42-34.1-62.58-51.44-94.37c10.25-5.65,20.07-11.1,29.94-16.48
		c69.12-37.71,138.29-75.37,207.31-113.25c4.57-2.52,7.63-2.25,11.99,0.3c59.48,34.68,119.11,69.09,178.64,103.72
		c6.13,3.57,10.99,3.57,16.51-1.37c86.81-77.8,173.75-155.47,260.65-233.17c1.59-1.42,3.19-2.82,4.67-4.33
		c4.5-4.57,4.57-8.84,0-13.41c-9.69-9.67-19.49-19.23-29.22-28.85c-1.47-1.46-2.82-3.03-5-5.38
		C765.51,296.95,840.38,276.87,916.66,256.41z"/>
</g>
</svg>
