<?xml version="1.0" encoding="utf-8"?>
<!-- Generator: Adobe Illustrator 24.0.1, SVG Export Plug-In . SVG Version: 6.00 Build 0)  -->
<svg version="1.1" id="Слой_1" xmlns="http://www.w3.org/2000/svg" xmlns:xlink="http://www.w3.org/1999/xlink" x="0px" y="0px"
	 viewBox="0 0 612 792" style="enable-background:new 0 0 612 792;" xml:space="preserve">
<style type="text/css">
	.st0{display:none;}
	.st1{fill:#FFFFFF;}
</style>
<g>
	<path class="st0" d="M756,846c-300,0-600,0-900,0c0-300,0-600,0-900c300,0,600,0,900,0C756,246,756,546,756,846z M506.21,435.64
		c3.42,0,5.58-0.28,7.63,0.06c5.15,0.85,10.01-3.57,8.88-8.72c-6.11-28.02-18.38-52.45-42.18-69.7c-3.61-2.62-4.63-5.25-4.63-9.44
		c0.11-76.82,0.09-153.65,0.08-230.47c0-21.22-13.85-35.18-34.87-35.18c-95.65,0-191.31-0.01-286.96,0.01
		c-15.47,0-28.57,5.6-39.01,17.13c-28.4,31.38-56.61,62.93-85.23,94.11c-12.28,13.38-17.93,28.72-17.91,46.74
		c0.12,99.65,0.05,199.31,0.04,298.96c0,44.66-0.03,89.32,0.02,133.98c0.02,17.31,9.37,30.84,24.16,34.41
		c4.93,1.19,10.22,1.25,15.35,1.25c84.48,0.07,168.97,0.04,253.45,0.04c90.32,0,180.64,0.01,270.96-0.03
		c14.34-0.01,23.36-9.06,23.56-23.42c0.1-7.33,0.18-14.67-0.07-22c-0.77-22.55-10.33-39.87-30.51-50.88
		c-24.42-13.32-48.78-26.76-73.16-40.16c-5.23-2.87-5.99-5.44-3.46-10.9c2.73-5.89,5.68-11.7,7.97-17.76
		c2.7-7.13,4.81-14.42,11.89-18.82c1.6-0.99,2.66-2.96,3.77-4.61c6.6-9.76,10.19-20.69,10.68-32.31c0.51-11.96-2-23.03-14.48-28.76
		c-0.53-0.24-1.1-0.88-1.22-1.43C509.37,450.55,507.85,443.33,506.21,435.64z"/>
	<path class="st1" d="M506.21,435.64c1.64,7.69,3.16,14.91,4.76,22.1c0.12,0.55,0.69,1.18,1.22,1.43
		c12.48,5.74,14.99,16.8,14.48,28.76c-0.49,11.62-4.08,22.55-10.68,32.31c-1.12,1.65-2.17,3.62-3.77,4.61
		c-7.07,4.4-9.18,11.69-11.89,18.82c-2.29,6.06-5.25,11.87-7.97,17.76c-2.53,5.45-1.76,8.02,3.46,10.9
		c24.38,13.4,48.73,26.84,73.16,40.16c20.18,11,29.74,28.32,30.51,50.88c0.25,7.32,0.17,14.66,0.07,22
		c-0.19,14.35-9.22,23.41-23.56,23.42c-90.32,0.05-180.64,0.03-270.96,0.03c-84.48,0-168.97,0.03-253.45-0.04
		c-5.13,0-10.41-0.06-15.35-1.25c-14.79-3.56-24.14-17.1-24.16-34.41c-0.06-44.66-0.03-89.32-0.02-133.98
		c0-99.65,0.07-199.31-0.04-298.96c-0.02-18.02,5.64-33.37,17.91-46.74c28.62-31.18,56.83-62.73,85.23-94.11
		c10.43-11.53,23.54-17.12,39.01-17.13c95.65-0.03,191.31-0.02,286.96-0.01c21.02,0,34.87,13.96,34.87,35.18
		c0.01,76.82,0.03,153.65-0.08,230.47c-0.01,4.19,1.02,6.83,4.63,9.44c23.8,17.25,36.07,41.68,42.18,69.7
		c1.12,5.16-3.73,9.58-8.88,8.72C511.78,435.36,509.63,435.64,506.21,435.64z M26.87,234.29c0,2.42,0,4.07,0,5.72
		c0,145.97,0,291.93,0.01,437.9c0,10.28,3.98,14.28,14.11,14.28c63.32,0,126.64,0,189.96,0c1.78,0,3.55,0,5.92,0
		c0-9.92-0.14-19.21,0.03-28.49c0.43-22.87,10.23-40.19,30.56-51.29c23.98-13.09,47.89-26.28,71.82-39.45
		c5.34-2.94,6.01-5.96,3.44-11.71c-3.95-8.8-7.49-17.78-11.42-26.59c-0.96-2.15-2.31-4.54-4.17-5.79
		c-12.42-8.37-23.97-39.04-16.32-56.25c1.94-4.36,5.01-9.32,8.94-11.42c5.12-2.75,5.26-6.12,4.83-10.51
		c-0.27-2.81-0.82-5.59-1.12-8.39c-1.83-16.98-2.44-33.98,2.68-50.5c6.41-20.68,19.06-34.86,41.74-37.79
		c1.28-0.17,2.61-0.62,3.72-1.29c25.53-15.39,52.65-17.02,80.88-9.56c2.6,0.68,5.4,0.57,8.59,0.87c0-2.45,0-4.09,0-5.72
		c0-74.98-0.01-149.97-0.01-224.95c0-11.2-3.38-14.58-14.59-14.58c-96.98,0-193.96,0-290.93-0.01c-1.81,0-3.62,0-6.12,0
		c0,2.55,0,4.67,0,6.79c0.01,31.66,0.03,63.32,0.02,94.98c0,18.52-13.79,34.55-33.94,33.95c-27.3-0.82-54.65-0.2-81.98-0.2
		C31.55,234.29,29.59,234.29,26.87,234.29z M504.05,416.62c0-1.73,0.03-3.71-0.02-5.68c-0.02-0.65-0.16-1.33-0.4-1.94
		c-8.68-22.44-22.85-39.61-45.93-48.49c-14.53-5.6-29.66-5.83-44.81-5.21c-14.19,0.58-27.61,4.14-39.33,12.74
		c-1.4,1.02-3.34,1.84-5.03,1.85c-17.57,0.05-27.42,12.24-29.44,26.51c-1.65,11.63-1.77,23.51-1.92,35.29
		c-0.14,10.76,0.86,21.53,0.85,32.3c-0.01,8.49-3.2,11.39-11.45,12.39c-1.29,0.16-3.32,1.92-3.41,3.05
		c-0.86,11.62-0.03,23.01,6.66,33.13c0.96,1.46,2.37,3.35,3.84,3.61c5.99,1.08,7.88,5.33,9.39,10.38
		c7.21,24.13,18.2,46.17,36.74,63.73c19.68,18.65,45.15,21.89,65.69,7.51c7.92-5.55,15.01-12.74,21.15-20.27
		c12.14-14.87,20.03-32.16,25.33-50.59c1.5-5.21,3.48-9.63,9.68-10.74c1.46-0.26,2.89-2.18,3.81-3.66
		c6.97-11.17,7.44-23.44,6.2-36.25c-1.67-0.12-2.97-0.26-4.27-0.29c-5.51-0.15-9.09-3.59-10.08-9c-1.93-10.42-3.97-20.83-6.31-31.17
		c-1.49-6.58,0.03-11.99,5.55-15.68C498.71,418.72,501.29,417.9,504.05,416.62z M585.27,691.89c-0.57-14.58-0.4-28.9-1.94-43.03
		c-0.97-8.88-6.78-16.03-14.71-20.46c-26.9-15.03-53.95-29.81-80.98-44.61c-4.5-2.46-7.89-1.46-11.14,2.6
		c-8.48,10.62-17.79,20.51-29.92,26.86c-5.55,2.91-6.05,6.26-4.98,11.58c2.48,12.38,4.49,24.86,6.73,37.29
		c1.79,9.93,3.66,19.86,5.48,29.77C497.63,691.89,540.89,691.89,585.27,691.89z M252.03,691.83c0.95,0.17,1.43,0.33,1.91,0.33
		c41.31,0.02,82.62,0.01,123.93,0.08c2.69,0,3.72-0.93,4.17-3.63c2.27-13.43,4.84-26.8,7.16-40.22c1.64-9.49,3.2-18.99,4.38-28.54
		c0.19-1.56-1.31-4.16-2.76-4.98c-12.69-7.17-23.1-16.82-31.94-28.3c-3.34-4.33-6.18-5-11.12-2.29
		c-26.42,14.49-52.84,28.98-79.2,43.59c-9.35,5.18-15.45,13.43-16.29,23.84C251.23,664.9,252.03,678.24,252.03,691.83z
		 M134.57,99.79c-0.39-0.28-0.77-0.56-1.16-0.84c-35.65,39.39-71.29,78.78-107.7,119.01c1.97,0.21,2.57,0.32,3.16,0.32
		c30.83-0.11,61.66-0.24,92.49-0.36c9.39-0.03,13.21-3.87,13.21-13.39c0-29.33,0-58.66-0.01-88
		C134.57,110.96,134.57,105.38,134.57,99.79z M396.12,691.97c14.91,0,28.32,0,42.37,0c-0.15-3.02,0-5.83-0.46-8.53
		c-2.91-16.83-5.99-33.62-8.91-50.45c-0.49-2.81-1.72-3.92-4.64-3.77c-4.48,0.23-8.99,0.27-13.47-0.01
		c-3.45-0.21-4.5,1.22-5.03,4.43c-1.84,11.13-4.1,22.18-6.01,33.3C398.57,675.05,397.46,683.21,396.12,691.97z"/>
	<path class="st0" d="M26.87,234.29c2.72,0,4.68,0,6.65,0c27.33,0,54.67-0.62,81.98,0.2c20.15,0.6,33.94-15.43,33.94-33.95
		c0-31.66-0.01-63.32-0.02-94.98c0-2.12,0-4.24,0-6.79c2.5,0,4.31,0,6.12,0c96.98,0,193.96,0,290.93,0.01
		c11.2,0,14.59,3.38,14.59,14.58c0,74.98,0.01,149.97,0.01,224.95c0,1.63,0,3.27,0,5.72c-3.18-0.3-5.99-0.19-8.59-0.87
		c-28.24-7.45-55.36-5.82-80.88,9.56c-1.1,0.66-2.44,1.12-3.72,1.29c-22.68,2.93-35.33,17.12-41.74,37.79
		c-5.12,16.53-4.51,33.52-2.68,50.5c0.3,2.81,0.85,5.59,1.12,8.39c0.43,4.39,0.29,7.76-4.83,10.51c-3.93,2.11-7,7.06-8.94,11.42
		c-7.65,17.2,3.9,47.88,16.32,56.25c1.86,1.25,3.21,3.65,4.17,5.79c3.92,8.81,7.47,17.79,11.42,26.59c2.58,5.75,1.9,8.77-3.44,11.71
		c-23.93,13.17-47.85,26.36-71.82,39.45c-20.33,11.1-30.13,28.42-30.56,51.29c-0.17,9.28-0.03,18.57-0.03,28.49
		c-2.37,0-4.15,0-5.92,0c-63.32,0-126.64,0-189.96,0c-10.12,0-14.11-4-14.11-14.28c-0.01-145.97,0-291.93-0.01-437.9
		C26.87,238.36,26.87,236.71,26.87,234.29z M203.46,330.98c0,0.01,0,0.01,0,0.02c-25.97,0-51.94-0.01-77.91,0.01
		c-5.59,0-10.41,3.57-10.63,7.76c-0.23,4.33,4.69,8.34,10.54,8.57c0.83,0.03,1.66-0.02,2.5-0.02c11.32,0,22.64,0.01,33.96,0.01
		c39.29,0,78.57,0.02,117.86,0c6.67,0,11.93-3.68,11.98-8.2c0.05-4.45-5.32-8.13-11.88-8.14c-0.33,0-0.67,0-1,0
		C253.73,330.98,228.6,330.98,203.46,330.98z M192.62,414.99c21.99,0,43.97,0,65.96,0c7.38,0,12.9-3.63,12.75-8.37
		c-0.14-4.63-5.53-8.16-12.55-8.16c-43.81-0.01-87.61-0.01-131.42,0.01c-1.65,0-3.38-0.02-4.94,0.43c-4.12,1.2-7.29,3.63-7.39,8.28
		c-0.08,3.52,4.41,7.32,8.64,7.77c1.32,0.14,2.66,0.05,3.99,0.05C149.31,414.99,170.97,414.99,192.62,414.99z M192.93,301.93
		c21.98,0,43.96,0.01,65.94,0c7.19,0,12.46-3.42,12.46-8.03c0-4.67-5.28-8.11-12.42-8.12c-36.3-0.03-72.6-0.06-108.9-0.07
		c-8.49,0-16.99-0.07-25.48,0.1c-5.29,0.1-9.77,4.17-9.6,8.31c0.16,3.99,4.58,7.6,9.55,7.79c1,0.04,2,0.02,3,0.02
		C149.3,301.93,171.11,301.93,192.93,301.93z M173.04,460c15.81,0,31.63,0.03,47.44-0.02c5.03-0.02,9.89-3.93,10.09-7.92
		c0.17-3.48-4.58-7.78-9.31-8.35c-1.15-0.14-2.33-0.08-3.49-0.08c-30.29,0-60.59-0.02-90.88,0.03c-1.97,0-4.52-0.19-5.77,0.89
		c-2.45,2.12-5.59,4.96-5.84,7.73c-0.36,4.03,3.32,6.59,7.34,7.59c1.26,0.31,2.65,0.11,3.98,0.11
		C142.08,459.99,157.56,459.99,173.04,460z M325.99,301.96c5.65,0,11.3,0.08,16.95-0.02c5.23-0.1,9.86-3.85,10.02-7.91
		c0.15-3.88-4.64-8.14-9.74-8.2c-11.63-0.13-23.26-0.13-34.89,0.02c-5.28,0.07-9.85,4.12-9.72,8.14c0.13,4.1,4.74,7.88,9.94,7.96
		C314.35,302.04,320.17,301.97,325.99,301.96z M68.01,621.19c-0.16-3.43-0.01-7.12-0.6-10.69c-0.65-3.95-2.76-7.31-7.09-7.99
		c-2.72-0.43-6.92,4.61-7.07,8.6c-0.25,6.63-0.25,13.27-0.03,19.9c0.15,4.4,4.3,9.54,7.23,8.97c4.21-0.82,6.38-4.14,6.99-8.15
		C67.97,628.41,67.84,624.89,68.01,621.19z M206.28,621.21c-0.01,0-0.01,0-0.02,0c0,3.48-0.35,7.01,0.09,10.44
		c0.51,4,2.68,7.88,6.85,8.13c4.36,0.26,6.9-3.75,7.2-7.59c0.57-7.24,0.56-14.59,0.02-21.84c-0.29-3.88-3.13-8.25-7.1-7.47
		c-2.75,0.54-5.58,4.79-6.79,7.99C205.37,613.9,206.28,617.72,206.28,621.21z M103.69,620.79c0.43,4.46,0.17,9.12,1.55,13.22
		c0.83,2.46,4.15,5.42,6.53,5.59c1.91,0.13,5.7-3.47,5.87-5.64c0.68-8.49,0.66-17.09-0.04-25.58c-0.18-2.14-4.04-5.71-5.92-5.53
		c-2.4,0.23-5.56,3.2-6.48,5.69C103.83,612.29,104.12,616.65,103.69,620.79z M169.84,621.21c0.11-0.01,0.23-0.02,0.34-0.03
		c-0.36-4.1,0.03-8.49-1.35-12.21c-0.97-2.63-4.19-5.79-6.7-6.06c-1.86-0.2-5.81,3.69-6.02,6.02c-0.75,8.15-0.74,16.46,0.02,24.62
		c0.22,2.34,4.18,6.24,6.05,6.03c2.5-0.28,4.83-3.7,6.83-6.1c0.82-0.98,0.73-2.83,0.79-4.3
		C169.92,626.52,169.84,623.86,169.84,621.21z"/>
	<path class="st0" d="M504.05,416.62c-2.76,1.28-5.34,2.1-7.5,3.54c-5.53,3.68-7.04,9.09-5.55,15.68
		c2.34,10.34,4.38,20.74,6.31,31.17c1,5.4,4.57,8.85,10.08,9c1.3,0.03,2.59,0.17,4.27,0.29c1.24,12.81,0.78,25.08-6.2,36.25
		c-0.92,1.48-2.36,3.4-3.81,3.66c-6.2,1.11-8.18,5.53-9.68,10.74c-5.29,18.43-13.19,35.72-25.33,50.59
		c-6.14,7.53-13.23,14.72-21.15,20.27c-20.54,14.38-46.01,11.14-65.69-7.51c-18.54-17.57-29.53-39.6-36.74-63.73
		c-1.51-5.06-3.39-9.3-9.39-10.38c-1.46-0.26-2.87-2.16-3.84-3.61c-6.69-10.11-7.52-21.5-6.66-33.13c0.08-1.14,2.12-2.9,3.41-3.05
		c8.24-1,11.44-3.9,11.45-12.39c0.01-10.77-0.99-21.54-0.85-32.3c0.15-11.78,0.27-23.67,1.92-35.29
		c2.03-14.27,11.87-26.46,29.44-26.51c1.69,0,3.63-0.82,5.03-1.85c11.72-8.6,25.14-12.16,39.33-12.74
		c15.15-0.62,30.28-0.39,44.81,5.21c23.08,8.88,37.25,26.06,45.93,48.49c0.23,0.61,0.38,1.29,0.4,1.94
		C504.08,412.92,504.05,414.89,504.05,416.62z M455.01,436.85c3,0,5.99-0.01,8.99,0c6.45,0.01,11.95-3.69,11.97-8.08
		c0.02-4.36-5.44-7.87-12-8.04c-9.63-0.24-19.31-0.2-28.88-1.15c-17.34-1.72-33.03-8.51-48.09-16.99
		c-8.17-4.6-13.35-3.29-18.38,4.58c-3.85,6.02-7.42,12.23-10.99,18.42c-2,3.48-0.64,7.18,3.11,9.66c3.6,2.38,5.76-0.04,7.45-2.45
		c2.77-3.94,5.39-8.04,7.5-12.35c2.29-4.69,5.71-4.34,9.53-2.93c1.86,0.68,3.56,1.8,5.31,2.75
		C410.62,431.26,432.08,436.9,455.01,436.85z"/>
	<path class="st0" d="M585.27,691.89c-44.38,0-87.64,0-131.45,0c-1.83-9.91-3.69-19.83-5.48-29.77
		c-2.24-12.43-4.25-24.91-6.73-37.29c-1.07-5.32-0.57-8.67,4.98-11.58c12.13-6.35,21.44-16.24,29.92-26.86
		c3.25-4.06,6.63-5.07,11.14-2.6c27.03,14.8,54.07,29.58,80.98,44.61c7.93,4.43,13.74,11.58,14.71,20.46
		C584.87,662.99,584.7,677.31,585.27,691.89z"/>
	<path class="st0" d="M252.03,691.83c0-13.59-0.8-26.93,0.26-40.13c0.83-10.41,6.93-18.65,16.29-23.84
		c26.36-14.6,52.78-29.1,79.2-43.59c4.94-2.71,7.78-2.04,11.12,2.29c8.84,11.48,19.24,21.13,31.94,28.3
		c1.45,0.82,2.95,3.41,2.76,4.98c-1.18,9.55-2.74,19.05-4.38,28.54c-2.32,13.42-4.89,26.79-7.16,40.22
		c-0.46,2.7-1.48,3.64-4.17,3.63c-41.31-0.07-82.62-0.06-123.93-0.08C253.46,692.16,252.98,692,252.03,691.83z"/>
	<path class="st0" d="M134.57,99.79c0,5.58,0,11.16,0,16.75c0,29.33,0.01,58.66,0.01,88c0,9.52-3.82,13.36-13.21,13.39
		c-30.83,0.11-61.66,0.24-92.49,0.36c-0.59,0-1.19-0.12-3.16-0.32c36.4-40.23,72.05-79.62,107.7-119.01
		C133.8,99.23,134.18,99.51,134.57,99.79z"/>
	<path class="st0" d="M396.12,691.97c1.33-8.76,2.44-16.92,3.84-25.02c1.92-11.12,4.17-22.17,6.01-33.3
		c0.53-3.21,1.59-4.65,5.03-4.43c4.47,0.27,8.99,0.23,13.47,0.01c2.93-0.15,4.15,0.96,4.64,3.77c2.93,16.82,6.01,33.62,8.91,50.45
		c0.47,2.7,0.32,5.51,0.46,8.53C424.44,691.97,411.03,691.97,396.12,691.97z"/>
	<path class="st1" d="M203.46,330.98c25.14,0,50.28,0,75.41,0c0.33,0,0.67,0,1,0c6.56,0.01,11.93,3.7,11.88,8.14
		c-0.05,4.52-5.31,8.2-11.98,8.2c-39.29,0.02-78.57,0.01-117.86,0c-11.32,0-22.64-0.01-33.96-0.01c-0.83,0-1.67,0.05-2.5,0.02
		c-5.85-0.23-10.77-4.24-10.54-8.57c0.22-4.19,5.04-7.76,10.63-7.76c25.97-0.02,51.94-0.01,77.91-0.01
		C203.46,330.99,203.46,330.98,203.46,330.98z"/>
	<path class="st1" d="M192.62,414.99c-21.65,0-43.31,0-64.96,0c-1.33,0-2.68,0.09-3.99-0.05c-4.23-0.45-8.72-4.25-8.64-7.77
		c0.11-4.65,3.27-7.08,7.39-8.28c1.56-0.45,3.29-0.43,4.94-0.43c43.81-0.02,87.61-0.02,131.42-0.01c7.02,0,12.41,3.53,12.55,8.16
		c0.15,4.74-5.37,8.37-12.75,8.37C236.59,414.99,214.61,414.99,192.62,414.99z"/>
	<path class="st1" d="M192.93,301.93c-21.82,0-43.63,0-65.45,0c-1,0-2,0.02-3-0.02c-4.98-0.19-9.39-3.8-9.55-7.79
		c-0.17-4.14,4.31-8.21,9.6-8.31c8.49-0.16,16.98-0.1,25.48-0.1c36.3,0.02,72.6,0.05,108.9,0.07c7.14,0.01,12.41,3.45,12.42,8.12
		c0,4.6-5.26,8.02-12.46,8.03C236.89,301.94,214.91,301.93,192.93,301.93z"/>
	<path class="st1" d="M173.04,460c-15.48,0-30.96,0-46.44-0.01c-1.33,0-2.72,0.2-3.98-0.11c-4.02-1-7.7-3.56-7.34-7.59
		c0.25-2.77,3.4-5.61,5.84-7.73c1.25-1.09,3.81-0.89,5.77-0.89c30.29-0.05,60.59-0.04,90.88-0.03c1.16,0,2.34-0.06,3.49,0.08
		c4.72,0.57,9.48,4.87,9.31,8.35c-0.19,3.98-5.06,7.9-10.09,7.92C204.67,460.03,188.85,460,173.04,460z"/>
	<path class="st1" d="M325.99,301.96c-5.82,0-11.63,0.07-17.45-0.02c-5.2-0.08-9.81-3.86-9.94-7.96c-0.13-4.01,4.44-8.07,9.72-8.14
		c11.63-0.14,23.26-0.14,34.89-0.02c5.1,0.06,9.89,4.32,9.74,8.2c-0.16,4.05-4.79,7.81-10.02,7.91
		C337.29,302.04,331.64,301.96,325.99,301.96z"/>
	<path class="st1" d="M68.01,621.19c-0.17,3.7-0.04,7.22-0.56,10.64c-0.61,4.01-2.78,7.32-6.99,8.15c-2.93,0.57-7.08-4.57-7.23-8.97
		c-0.22-6.63-0.22-13.28,0.03-19.9c0.15-4,4.35-9.03,7.07-8.6c4.32,0.68,6.43,4.04,7.09,7.99C68,614.07,67.85,617.76,68.01,621.19z"
		/>
	<path class="st1" d="M206.28,621.21c0-3.48-0.9-7.31,0.25-10.35c1.21-3.2,4.04-7.45,6.79-7.99c3.96-0.77,6.81,3.59,7.1,7.47
		c0.54,7.25,0.55,14.6-0.02,21.84c-0.3,3.84-2.84,7.85-7.2,7.59c-4.16-0.25-6.33-4.14-6.85-8.13c-0.44-3.43-0.09-6.95-0.09-10.44
		C206.26,621.21,206.27,621.21,206.28,621.21z"/>
	<path class="st1" d="M103.69,620.79c0.42-4.14,0.14-8.5,1.51-12.25c0.92-2.49,4.08-5.46,6.48-5.69c1.88-0.18,5.74,3.39,5.92,5.53
		c0.71,8.48,0.72,17.09,0.04,25.58c-0.17,2.17-3.96,5.77-5.87,5.64c-2.38-0.17-5.7-3.13-6.53-5.59
		C103.86,629.91,104.13,625.24,103.69,620.79z"/>
	<path class="st1" d="M169.84,621.21c0,2.66,0.08,5.31-0.03,7.97c-0.06,1.47,0.03,3.32-0.79,4.3c-2,2.4-4.33,5.82-6.83,6.1
		c-1.87,0.21-5.83-3.69-6.05-6.03c-0.76-8.15-0.77-16.46-0.02-24.62c0.21-2.33,4.15-6.22,6.02-6.02c2.5,0.27,5.72,3.43,6.7,6.06
		c1.38,3.73,0.98,8.11,1.35,12.21C170.06,621.19,169.95,621.2,169.84,621.21z"/>
	<path class="st1" d="M455,436.85c-22.92,0.05-44.38-5.59-64.47-16.57c-1.75-0.96-3.45-2.07-5.31-2.75
		c-3.83-1.4-7.24-1.76-9.53,2.93c-2.11,4.31-4.73,8.41-7.5,12.35c-1.69,2.41-3.85,4.83-7.45,2.45c-3.75-2.48-5.11-6.19-3.11-9.66
		c3.57-6.19,7.14-12.4,10.99-18.42c5.03-7.87,10.2-9.19,18.38-4.58c15.06,8.48,30.74,15.27,48.09,16.99
		c9.57,0.95,19.24,0.91,28.88,1.15c6.56,0.16,12.02,3.68,12,8.04c-0.02,4.39-5.52,8.1-11.97,8.08C461,436.84,458,436.85,455,436.85z
		"/>
</g>
</svg>
