<?xml version="1.0" encoding="utf-8"?>
<!-- Generator: Adobe Illustrator 24.0.1, SVG Export Plug-In . SVG Version: 6.00 Build 0)  -->
<svg version="1.1" id="Слой_1" xmlns="http://www.w3.org/2000/svg" xmlns:xlink="http://www.w3.org/1999/xlink" x="0px" y="0px"
	 viewBox="0 0 612 792" style="enable-background:new 0 0 612 792;" xml:space="preserve">
<style type="text/css">
	.st0{display:none;}
	.st1{fill:#FFFFFF;}
</style>
<g>
	<path class="st0" d="M-144-54c300,0,600,0,900,0c0,300,0,600,0,900c-300,0-600,0-900,0C-144,546-144,246-144-54z M118.54,594.28
		c-0.8-139.77-1.6-279.66-2.41-420.04c2.39,0,4.35,0,6.32,0c68.99-0.11,137.99-0.26,206.98-0.23c5.16,0,7.84-1.7,9.59-6.56
		c2.59-7.19,5.64-14.25,9.06-21.09c4.86-9.74,11.35-18.43,22.13-21.96c6.69-2.19,13.92-3.71,20.92-3.75
		c27.73-0.15,49.27,21.08,49.03,46.67c-0.68,72.82-1.17,145.65-1.74,218.47c-0.01,1.5-0.51,3.32,0.16,4.43
		c1.23,2.03,3.15,3.64,4.79,5.43c1.59-1.8,3.31-3.51,4.69-5.46c0.47-0.67,0.1-1.95,0.1-2.95c0.49-64.33,0.97-128.65,1.47-192.98
		c0.07-9.33,0.47-18.66,0.25-27.98c-0.24-10.31-2.74-19.98-8.65-28.76c-12.55-18.69-30.56-26.9-52.36-26.9
		c-69.16,0-138.32,0.31-207.48,0.67c-24.33,0.13-48.67,0.4-72.98,1.27c-28.18,1-51.84,26.2-51.7,54.24c0.03,5.95,1.44,7.51,7.3,7.57
		c7,0.08,14-0.02,21-0.03c7.12-0.01,14.24,0,21.34,0c0,2.69-0.01,4.83,0,6.97c0.83,137.82,1.67,275.64,2.5,413.46
		c0.05,8.5,1.67,10.15,10.3,10.09c59.83-0.38,119.65-0.79,179.48-1.18c4.93-0.03,9.86,0,15.21,0c2.44,14.42,4.93,29.52,7.56,44.59
		c2.39,13.73,2.48,13.84,16.06,11.61c47.48-7.81,94.94-15.7,142.41-23.59c6.54-1.09,7.83-3.09,6.71-9.55
		c-3.21-18.37-6.39-36.75-9.52-55.13c-9.42-55.15-18.81-110.3-28.22-165.44c-1.16-6.77-3.08-8.17-9.89-7.06
		c-8.88,1.45-17.73,3.01-26.6,4.52c-14.39,2.44-28.77,4.86-43.16,7.29c0.29-2.53,0.72-4.62,0.73-6.7c0.05-16,0.01-32-0.01-48
		c0-1.16,0.34-2.64-0.24-3.43c-1.17-1.6-2.78-3.82-4.33-3.92c-1.51-0.1-3.58,1.86-4.64,3.43c-0.81,1.2-0.53,3.22-0.53,4.87
		c-0.01,14.67-0.06,29.33,0.12,44c0.04,3.59,0.89,7.17,1.4,11.03c-6.38,1.07-13.29,2.24-19.73,3.32c0.66-2.65,1.68-4.97,1.75-7.32
		c0.23-7.83,0.09-15.66,0.13-23.5c0.02-3.48-0.72-6.7-4.89-6.7c-4.21-0.01-4.87,3.35-4.9,6.74c-0.07,7.5-0.31,15.01,0,22.49
		c0.12,2.98,1.5,5.91,2.4,9.22c-13.82,2.38-28.39,4.89-42.95,7.38c-8.58,1.46-9.56,2.79-8.46,11.6c0.1,0.77,0.01,1.56,0.01,1.99
		c-22.66,0-44.91,0-67.23,0c0.78-2.43,1.93-4.39,1.96-6.37c0.41-29.66,0.68-59.32,0.95-88.99c0.03-3.15-1.11-5.85-4.64-5.96
		c-3.86-0.12-4.96,2.71-5.08,6.05c-0.03,0.83-0.03,1.67-0.03,2.5c-0.28,27.66-0.6,55.33-0.76,82.99c-0.02,3.13,0.86,6.26,1.34,9.56
		c-18.07,0-36.65,0-55.32,0c0-18.5-0.05-36.62,0.01-54.75c0.06-16.83,0.24-33.66,0.34-50.49c0.02-3.5-1.03-6.66-5.15-6.52
		c-3.77,0.13-4.69,3.17-4.66,6.48c0,0.67,0,1.33-0.01,2c-0.19,34.33-0.39,68.66-0.58,102.99c-0.05,9.02,1.26,10.33,10.46,10.31
		c39.33-0.06,78.66-0.11,117.99-0.26c3.99-0.02,7.99-0.68,12.18-1.06c8.35,48.84,16.79,98.21,25.37,148.37
		C247.68,594.28,183.57,594.28,118.54,594.28z M198.02,308.78c15.16,0,30.32,0.01,45.48-0.01c6.98-0.01,9.08-1.85,9.1-8.79
		c0.09-30.65,0.07-61.3,0.02-91.96c-0.01-6.02-2.21-8.19-8.15-8.2c-30.49-0.04-60.97-0.04-91.46,0c-6.26,0.01-8.52,2.17-8.61,8.36
		c-0.44,30.65-0.84,61.3-1.16,91.95c-0.07,6.45,2.27,8.62,8.8,8.64C167.36,308.8,182.69,308.78,198.02,308.78z M337.87,250.04
		c21.98,0,43.96,0,65.94,0c3.52,0,7.21-0.35,7.26-4.85c0.05-4.49-3.58-4.98-7.14-4.98c-0.67,0-1.33,0-2,0c-42.79,0-85.59,0-128.38,0
		c-1.17,0-2.34-0.05-3.5,0.03c-3.19,0.22-6.07,1.73-5.4,5.03c0.38,1.86,3.3,3.4,5.34,4.63c0.98,0.59,2.6,0.14,3.94,0.14
		C295.24,250.05,316.56,250.05,337.87,250.04z M337.61,267.74c0-0.06,0-0.13,0-0.19c19.65,0,39.29,0,58.94,0
		c3,0,6.17,0.56,8.93-0.26c2.07-0.62,3.59-3.05,5.36-4.67c-1.82-1.57-3.47-3.43-5.52-4.6c-1.14-0.65-2.93-0.16-4.43-0.16
		c-22.48,0.02-44.95,0.05-67.43,0.07c-20.64,0.02-41.29,0.06-61.93,0.06c-3.51,0-7.29,0.21-7.39,4.68
		c-0.11,4.85,3.89,5.04,7.54,5.07c1.17,0.01,2.33,0,3.5,0C295.98,267.74,316.79,267.74,337.61,267.74z M338.51,285.63
		c21.83,0,43.65,0.01,65.48-0.01c3.36,0,6.83-0.48,6.94-4.68c0.11-4.54-3.45-5.06-7.04-5.03c-0.5,0-1,0-1.5,0
		c-42.65,0-85.31,0-127.96,0c-1.17,0-2.34-0.02-3.5,0.06c-3.04,0.19-5.73,1.73-5.04,4.77c0.43,1.9,3.2,3.47,5.21,4.73
		c0.97,0.6,2.6,0.15,3.93,0.16C296.19,285.63,317.35,285.63,338.51,285.63z M338.02,221.86c-22.16,0-44.32,0-66.47,0
		c-3.47,0-6.66,0.79-6.57,5.01c0.09,3.92,3.21,4.59,6.45,4.64c0.67,0.01,1.33,0.01,2,0.01c42.82,0,85.63,0.01,128.45,0
		c1.33,0,2.99,0.37,3.92-0.26c1.72-1.18,4.13-2.96,4.16-4.53c0.02-1.55-2.3-3.54-4.05-4.59c-1.25-0.75-3.25-0.29-4.91-0.29
		C380,221.85,359.01,221.86,338.02,221.86z M337.13,212.65c0-0.14,0-0.28,0-0.41c21.16,0,42.32,0.01,63.48,0
		c7.15,0,10.08-1.44,9.58-5.04c-0.81-5.84-5.6-4.7-9.42-4.69c-42.49,0.1-84.97,0.28-127.46,0.45c-1.49,0.01-3.32-0.36-4.41,0.35
		c-1.62,1.05-3.71,2.89-3.74,4.43c-0.03,1.53,1.96,3.6,3.59,4.51c1.43,0.8,3.57,0.41,5.39,0.41
		C295.14,212.65,316.14,212.65,337.13,212.65z M178.12,556.52c0-2.66,0.05-5.32-0.01-7.97c-0.13-5.62-2.25-7.97-7.77-8.15
		c-5.48-0.18-10.96-0.04-16.44-0.05c-4.24-0.01-6.56,2.2-6.82,6.3c-0.22,3.47-0.11,6.97-0.02,10.45
		c0.39,15.21,0.4,15.21,15.43,15.21C178.13,572.31,178.13,572.31,178.12,556.52z M161.41,501.79c0-0.02,0-0.05,0-0.07
		c-2.49,0-4.98-0.04-7.47,0.01c-5.68,0.11-7.71,1.68-7.88,7.27c-0.19,6.13,0.13,12.29,0.51,18.42c0.25,3.89,2.86,6.03,6.6,6.19
		c5.64,0.24,11.3,0.25,16.94,0.02c4.48-0.18,7.01-2.77,7.06-7.37c0.06-5.81,0.11-11.63-0.01-17.44c-0.08-4.32-2.39-6.81-6.78-7
		C167.4,501.69,164.4,501.79,161.41,501.79z M160.51,462.98c-1.99,0-3.99,0-5.98,0c-7.61,0.02-9.51,1.8-9.49,9.3
		c0.02,5.15,0.21,10.3,0.56,15.43c0.33,4.97,2.62,7.09,7.66,7.21c5.15,0.12,10.3,0.13,15.45-0.01c4.96-0.14,7.29-2.46,7.54-7.36
		c0.15-2.98,0.06-5.98,0.06-8.97C176.31,462.98,176.31,462.98,160.51,462.98z M173.91,396.47c0-10.8-0.02-21.61,0.01-32.41
		c0.01-3.41-0.51-6.73-4.68-6.88c-4.2-0.15-5.04,3.12-5.05,6.54c-0.03,21.94-0.02,43.88,0,65.83c0,3.41,0.68,6.66,4.97,6.59
		c4.28-0.07,4.76-3.34,4.76-6.75C173.9,418.41,173.91,407.44,173.91,396.47z M222.02,563.15c0,0.05,0,0.09,0,0.14
		c-10.47,0-20.94-0.01-31.41,0c-3.24,0-6.34,0.74-6.44,4.62c-0.1,4.18,3.08,5.05,6.54,5.05c20.61-0.01,41.22-0.04,61.83-0.08
		c3.42-0.01,6.69-0.73,6.64-4.94c-0.05-4.2-3.3-4.8-6.74-4.8C242.3,563.17,232.16,563.15,222.02,563.15z M302.97,304.77
		c0-0.05,0-0.11,0-0.16c3.99,0,7.98,0.02,11.97,0c6.65-0.03,13.3-0.05,19.95-0.16c3.19-0.05,5.77-1.38,5.69-4.89
		c-0.08-3.47-2.67-4.69-5.88-4.7c-0.5,0-1-0.02-1.5-0.01c-20.29,0.07-40.57,0.17-60.86,0.2c-3.46,0.01-6.81,0.62-6.9,4.68
		c-0.1,4.46,3.53,5.04,7.09,5.04C282.69,304.78,292.83,304.77,302.97,304.77z M219.93,485.82c0,0.03,0,0.06,0,0.09
		c-10.14,0-20.28,0.02-30.43-0.01c-3.58-0.01-7.22,0.42-7.15,4.89c0.07,4.45,3.84,4.82,7.33,4.81c20.28-0.04,40.57-0.09,60.85-0.15
		c3.37-0.01,6.84-0.56,6.91-4.7c0.07-4.49-3.48-4.96-7.09-4.94C240.21,485.84,230.07,485.82,219.93,485.82z M318.73,383.46
		c0.04,0,0.09,0,0.13,0c0-9.15-0.01-18.3,0.01-27.45c0.01-3.56-0.4-7.13-4.97-7.08c-4.22,0.04-4.76,3.45-4.78,6.82
		c-0.06,18.64-0.11,37.27-0.17,55.91c-0.01,3.43,0.64,6.83,4.74,6.87c4.38,0.04,5.06-3.48,5.04-7.11
		C318.71,402.1,318.73,392.78,318.73,383.46z M219.02,561.97c0-0.02,0-0.04,0-0.06c9.49,0,18.97,0.02,28.46-0.01
		c3.22-0.01,6.33-0.73,6.45-4.64c0.12-4.23-3.07-5.07-6.52-5.07c-18.8,0.01-37.61,0.06-56.41,0.1c-3.43,0.01-6.73,0.76-6.71,4.92
		c0.02,4.19,3.35,4.78,6.78,4.77C200.38,561.96,209.7,561.97,219.02,561.97z M217.43,484.75c0-0.1,0-0.2,0-0.29
		c9.82,0,19.64,0.07,29.45-0.04c2.96-0.03,5.3-1.41,5.27-4.75c-0.03-3.28-2.24-4.6-5.28-4.76c-1.33-0.07-2.66-0.05-3.99-0.04
		c-15.14,0.04-30.29,0.07-45.43,0.11c-3.33,0.01-6.78-0.49-9.94,0.25c-1.95,0.46-3.45,2.81-5.15,4.32c1.54,1.66,2.88,3.63,4.71,4.87
		c1.06,0.72,2.91,0.33,4.4,0.33C200.12,484.77,208.77,484.75,217.43,484.75z M220.47,534.22c0-0.02,0-0.05,0-0.07
		c5.48,0,10.97,0.01,16.45,0c5.32-0.01,10.68,0.37,15.93-0.27c2-0.24,4.9-2.6,5.3-4.44c0.72-3.37-2.17-4.78-5.36-4.97
		c-0.99-0.06-1.99-0.03-2.99-0.03c-19.44,0.08-38.88,0.17-58.33,0.26c-1.49,0.01-3.33-0.4-4.4,0.3c-1.6,1.05-3.49,2.83-3.67,4.47
		c-0.15,1.32,1.79,3.34,3.28,4.24c1.26,0.76,3.22,0.48,4.87,0.48C201.19,534.23,210.83,534.22,220.47,534.22z M218.18,523.24
		c0-0.04,0-0.07,0-0.11c9.81,0,19.64,0.24,29.43-0.21c1.89-0.09,4.76-2.59,5.24-4.48c0.79-3.1-1.97-4.53-4.94-4.84
		c-0.66-0.07-1.33-0.08-1.99-0.08c-18.63,0.06-37.26,0.13-55.89,0.17c-3.47,0.01-6.75,0.73-6.68,4.88c0.07,4.19,3.49,4.67,6.88,4.67
		C199.55,523.23,208.87,523.24,218.18,523.24z M235.87,404.45c-0.28,0-0.57,0-0.85,0c0,8.32-0.01,16.64,0,24.96
		c0,3.26,0.76,6.3,4.66,6.41c4.18,0.12,5.1-3,5.16-6.48c0.3-16.47,0.59-32.95,0.85-49.42c0.05-3.37-0.56-6.79-4.71-6.92
		c-4.51-0.13-5.12,3.39-5.12,6.98C235.87,388.14,235.87,396.29,235.87,404.45z M185.36,410.97c0,6.16-0.03,12.32,0.01,18.49
		c0.02,3.37,0.6,6.69,4.88,6.74c4.28,0.05,4.93-3.17,4.93-6.61c0-12.49,0-24.98,0-37.47c0-3.51-0.94-6.67-5.05-6.57
		c-3.78,0.09-4.73,3.17-4.75,6.44C185.34,398.31,185.37,404.64,185.36,410.97z M293.38,397.47c0.19,0,0.39,0,0.58,0
		c0-6.33,0.02-12.66-0.01-18.99c-0.01-3.38-1.21-6.18-5.02-6.08c-3.49,0.09-4.64,2.81-4.69,5.96c-0.2,12.83-0.39,25.65-0.54,38.48
		c-0.04,3.27,0.8,6.25,4.76,6.29c3.93,0.04,4.89-2.86,4.91-6.17C293.41,410.46,293.38,403.96,293.38,397.47z M269.12,413.97
		c0-5.32,0.02-10.64-0.01-15.96c-0.01-3.25-1.48-6.11-4.81-5.49c-1.85,0.34-4.47,3.34-4.54,5.24c-0.44,10.62-0.3,21.27-0.17,31.91
		c0.04,3.14,1.68,6.07,5.09,5.19c1.83-0.47,4-3.41,4.24-5.44C269.52,424.32,269.11,419.12,269.12,413.97z M202.03,463.05
		c0-0.03,0-0.06,0-0.08c-4.66,0-9.33-0.04-13.99,0.01c-3.34,0.04-6.17,1.14-6.06,5.03c0.1,3.58,2.84,4.62,5.95,4.65
		c9.33,0.08,18.65,0.12,27.98,0.11c3.35,0,6.17-1.18,6.05-5.04c-0.11-3.52-2.8-4.63-5.95-4.66
		C211.36,463.02,206.69,463.05,202.03,463.05z M203.97,549.98c0,0.03,0,0.06,0,0.09c4.66,0,9.32,0,13.98,0
		c3.23,0,6.16-1.31,5.67-4.66c-0.27-1.85-3.21-4.61-5.06-4.71c-9.8-0.51-19.64-0.55-29.44-0.13c-1.86,0.08-4.81,2.75-5.15,4.62
		c-0.62,3.38,2.28,4.76,5.51,4.78C194.32,549.99,199.15,549.98,203.97,549.98z M202.79,511.23c0,0.04,0,0.08,0,0.12
		c4.99,0,9.99,0.08,14.98-0.03c3.05-0.07,5.63-1.72,4.98-4.81c-0.38-1.81-3.06-4.36-4.8-4.44c-9.97-0.46-19.96-0.35-29.95-0.28
		c-3.02,0.02-5.25,1.59-5.13,4.87c0.11,3.28,2.41,4.53,5.44,4.55C193.13,511.26,197.96,511.23,202.79,511.23z"/>
	<path class="st1" d="M105.2,669.42c85.44,0,169.66,0,254.49,0c-11.27-65.9-22.36-130.76-33.33-194.92c-5.51,0.5-10.75,1.37-16,1.39
		c-51.67,0.2-103.34,0.26-155.01,0.34c-12.09,0.02-13.81-1.7-13.74-13.55c0.25-45.1,0.5-90.2,0.76-135.31
		c0-0.88,0.02-1.75,0.01-2.63c-0.03-4.35,1.18-8.34,6.13-8.52c5.4-0.19,6.79,3.96,6.76,8.56c-0.12,22.11-0.37,44.23-0.44,66.34
		c-0.08,23.82-0.02,47.63-0.02,71.93c24.52,0,48.94,0,72.67,0c-0.64-4.33-1.79-8.44-1.76-12.56c0.22-36.34,0.64-72.69,1-109.03
		c0.01-1.09,0.01-2.19,0.05-3.28c0.16-4.39,1.6-8.12,6.67-7.95c4.63,0.15,6.13,3.69,6.09,7.84c-0.36,38.97-0.71,77.94-1.25,116.91
		c-0.04,2.6-1.55,5.18-2.58,8.37c29.32,0,58.57,0,88.33,0c0-0.57,0.11-1.61-0.02-2.62c-1.44-11.58-0.15-13.32,11.12-15.24
		c19.14-3.27,38.27-6.57,56.43-9.7c-1.19-4.35-3-8.2-3.16-12.11c-0.4-9.83-0.09-19.7,0-29.55c0.04-4.45,0.91-8.86,6.44-8.86
		c5.48,0.01,6.44,4.23,6.42,8.81c-0.05,10.29,0.12,20.59-0.17,30.87c-0.09,3.09-1.43,6.13-2.3,9.62c8.46-1.42,17.53-2.95,25.92-4.36
		c-0.67-5.07-1.78-9.77-1.84-14.49c-0.24-19.26-0.17-38.53-0.16-57.8c0-2.17-0.37-4.81,0.69-6.39c1.38-2.07,4.1-4.64,6.09-4.51
		c2.04,0.13,4.16,3.05,5.69,5.15c0.75,1.03,0.31,2.97,0.31,4.5c0.03,21.02,0.07,42.04,0.01,63.06c-0.01,2.74-0.58,5.48-0.96,8.8
		c18.9-3.19,37.8-6.38,56.7-9.58c11.65-1.97,23.28-4.03,34.94-5.93c8.94-1.46,11.48,0.38,12.99,9.27
		c12.37,72.45,24.7,144.9,37.08,217.35c4.12,24.15,8.3,48.29,12.51,72.42c1.48,8.48-0.21,11.11-8.81,12.54
		c-62.36,10.36-124.72,20.73-187.09,30.99c-17.84,2.93-17.96,2.78-21.1-15.25c-3.45-19.8-6.73-39.63-9.93-58.58
		c-7.03,0-13.51-0.04-19.99,0.01c-78.6,0.51-157.2,1.04-235.8,1.55c-11.34,0.07-13.46-2.1-13.53-13.26
		c-1.09-181.06-2.19-362.13-3.29-543.19c-0.02-2.81,0-5.62,0-9.15c-9.33,0-18.69-0.01-28.04,0c-9.2,0.01-18.39,0.14-27.59,0.04
		c-7.69-0.08-9.55-2.13-9.59-9.95c-0.19-36.84,30.9-69.94,67.92-71.25c31.94-1.13,63.91-1.5,95.88-1.66
		C278.65,34.4,369.52,34,460.38,34c28.64,0,52.29,10.79,68.78,35.34c7.76,11.54,11.04,24.25,11.36,37.79
		c0.29,12.24-0.23,24.5-0.33,36.76c-0.66,84.51-1.29,169.02-1.94,253.53c-0.01,1.31,0.49,2.99-0.14,3.87
		c-1.81,2.56-4.08,4.8-6.16,7.17c-2.15-2.35-4.68-4.46-6.29-7.13c-0.88-1.45-0.23-3.85-0.21-5.82
		c0.74-95.68,1.38-191.35,2.28-287.03c0.32-33.62-27.98-61.51-64.41-61.31c-9.19,0.05-18.7,2.06-27.48,4.93
		c-14.17,4.63-22.68,16.05-29.07,28.85c-4.48,8.98-8.49,18.26-11.9,27.71c-2.31,6.4-5.82,8.63-12.6,8.62
		c-90.64-0.05-181.29,0.16-271.93,0.3c-2.58,0-5.16,0-8.3,0C103.1,302.01,104.15,485.79,105.2,669.42z M36.95,105.06
		c3.06,0,5.42,0,7.78,0c110.55-0.23,221.1-0.46,331.65-0.69c0.88,0,1.9,0.29,2.6-0.06c1.72-0.89,4.2-1.7,4.79-3.18
		c7.85-19.64,15.96-39.08,33.78-54.2c-3.75,0-5.88,0-8.01,0c-53.85,0.12-107.71,0.04-161.56,0.42
		c-51.66,0.37-103.32,0.93-154.97,1.99c-25.74,0.52-49.32,20.83-55.03,46.03C37.33,98.27,37.33,101.32,36.95,105.06z M385.41,743.93
		c63.96-10.6,126.87-21.03,190.33-31.55c-11.08-64.86-22.05-129.01-33.16-194.03c-63.51,10.77-126.54,21.47-190.23,32.27
		C363.41,615.26,374.34,679.19,385.41,743.93z M336.55,458.15c4.6,26.84,9.11,53.18,13.68,79.88
		c63.8-10.84,126.7-21.54,190.16-32.32c-4.58-26.83-9.04-53.02-13.61-79.81C463.23,436.67,400.35,447.33,336.55,458.15z"/>
	<path class="st1" d="M209.62,294.32c-20.13,0-40.27,0.03-60.4-0.01c-8.58-0.02-11.65-2.88-11.56-11.35
		c0.43-40.27,0.95-80.53,1.53-120.8c0.12-8.14,3.09-10.98,11.31-10.99c40.05-0.05,80.1-0.05,120.15,0.01
		c7.8,0.01,10.69,2.86,10.7,10.78c0.07,40.27,0.09,80.54-0.02,120.81c-0.03,9.11-2.78,11.53-11.96,11.55
		C249.45,294.34,229.53,294.32,209.62,294.32z M151.36,280.81c39,0,77.99,0,116.89,0c0-39.18,0-77.79,0-116.49
		c-38.96,0-77.51,0-116.89,0C151.36,203.38,151.36,241.84,151.36,280.81z"/>
	<path class="st1" d="M393.35,217.16c-28,0-56,0-84,0c-1.75,0-3.88,0.6-5.17-0.18c-2.69-1.62-6.53-3.65-7.02-6.09
		c-0.88-4.34,2.91-6.32,7.1-6.61c1.52-0.11,3.06-0.05,4.59-0.05c56.22,0,112.44,0,168.66,0c0.88,0,1.75,0,2.63,0
		c4.67,0,9.44,0.65,9.38,6.55c-0.06,5.92-4.91,6.37-9.54,6.37C451.1,217.16,422.23,217.16,393.35,217.16z"/>
	<path class="st1" d="M393.01,240.41c-27.34,0-54.68,0-82.02,0c-1.53,0-3.06,0.01-4.59,0c-4.8-0.04-10.05-0.28-9.91-6.66
		c0.13-5.87,5.09-6.15,9.71-6.15c27.12-0.01,54.24-0.05,81.37-0.08c29.53-0.03,59.06-0.07,88.58-0.09c1.97,0,4.33-0.65,5.82,0.2
		c2.69,1.53,4.86,3.98,7.25,6.04c-2.32,2.13-4.33,5.32-7.04,6.13c-3.62,1.08-7.8,0.35-11.73,0.35c-25.81,0.01-51.62,0-77.43,0
		C393.01,240.25,393.01,240.33,393.01,240.41z"/>
	<path class="st1" d="M394.2,263.91c-27.8,0-55.6,0-83.4,0c-1.75,0-3.9,0.59-5.17-0.2c-2.64-1.65-6.28-3.72-6.84-6.22
		c-0.91-4,2.63-6.01,6.62-6.27c1.53-0.1,3.06-0.07,4.59-0.07c56.04,0,112.07,0,168.11,0c0.66,0,1.31,0.01,1.97,0
		c4.71-0.04,9.4,0.64,9.25,6.61c-0.14,5.52-4.7,6.14-9.11,6.14C451.55,263.92,422.87,263.91,394.2,263.91z"/>
	<path class="st1" d="M393.55,180.14c27.58,0,55.16-0.01,82.73,0c2.19,0,4.81-0.6,6.45,0.38c2.29,1.37,5.35,3.98,5.32,6.03
		c-0.03,2.05-3.21,4.4-5.46,5.95c-1.22,0.84-3.4,0.35-5.15,0.35c-56.25,0.01-112.5,0.01-168.75,0c-0.88,0-1.75,0-2.63-0.01
		c-4.25-0.07-8.35-0.95-8.47-6.1c-0.13-5.55,4.07-6.59,8.63-6.59C335.33,180.14,364.44,180.14,393.55,180.14z"/>
	<path class="st1" d="M392.38,168.03c-27.58,0-55.16,0.01-82.74-0.02c-2.4,0-5.21,0.51-7.08-0.54c-2.13-1.2-4.75-3.91-4.71-5.92
		c0.04-2.02,2.79-4.43,4.91-5.82c1.43-0.93,3.82-0.45,5.79-0.46c55.82-0.22,111.64-0.45,167.45-0.59c5.02-0.01,11.31-1.5,12.37,6.17
		c0.65,4.73-3.19,6.62-12.59,6.62c-27.8,0.01-55.6,0-83.4,0C392.38,167.67,392.38,167.85,392.38,168.03z"/>
	<path class="st1" d="M183.49,619.81c0,20.74,0,20.74-20.55,20.74c-19.74-0.01-19.76-0.01-20.27-19.99
		c-0.12-4.57-0.27-9.17,0.03-13.72c0.35-5.39,3.39-8.3,8.96-8.28c7.2,0.02,14.41-0.17,21.6,0.07c7.25,0.24,10.03,3.32,10.21,10.71
		C183.55,612.82,183.48,616.32,183.49,619.81z M170.21,611.61c-5.15,0-9.62,0-14.28,0c0,5.38,0,10.43,0,15.74c5.02,0,9.49,0,14.28,0
		C170.21,622.05,170.21,617.12,170.21,611.61z"/>
	<path class="st1" d="M161.53,547.9c3.93,0,7.86-0.14,11.78,0.03c5.77,0.25,8.8,3.52,8.91,9.2c0.15,7.63,0.09,15.28,0.01,22.91
		c-0.07,6.05-3.39,9.44-9.27,9.69c-7.41,0.3-14.84,0.29-22.25-0.02c-4.91-0.21-8.35-3.02-8.67-8.14
		c-0.51-8.05-0.92-16.14-0.67-24.19c0.23-7.34,2.88-9.41,10.35-9.55c3.27-0.06,6.55-0.01,9.82-0.01
		C161.53,547.84,161.53,547.87,161.53,547.9z M154.76,560.77c0,5.45,0,10.52,0,15.74c5.05,0,9.5,0,14.07,0c0-5.47,0-10.53,0-15.74
		C163.8,560.77,159.33,560.77,154.76,560.77z"/>
	<path class="st1" d="M160.34,496.91c20.75,0,20.76,0,20.75,20.5c0,3.93,0.12,7.86-0.08,11.78c-0.33,6.44-3.39,9.49-9.91,9.67
		c-6.76,0.19-13.53,0.17-20.29,0.01c-6.62-0.15-9.62-2.93-10.06-9.47c-0.45-6.75-0.71-13.52-0.73-20.28
		c-0.03-9.86,2.48-12.19,12.47-12.22C155.11,496.91,157.72,496.91,160.34,496.91z M167.75,525.67c0-5.38,0-10.43,0-15.41
		c-5.19,0-9.82,0-14.21,0c0,5.44,0,10.32,0,15.41C158.59,525.67,163.06,525.67,167.75,525.67z"/>
	<path class="st1" d="M177.95,409.53c0,14.41-0.02,28.83,0.01,43.24c0.01,4.48-0.62,8.77-6.25,8.86c-5.63,0.09-6.52-4.18-6.52-8.65
		c-0.02-28.83-0.03-57.65,0.01-86.48c0.01-4.5,1.11-8.8,6.63-8.6c5.47,0.2,6.15,4.56,6.14,9.04
		C177.93,381.14,177.95,395.34,177.95,409.53z"/>
	<path class="st1" d="M241.15,628.51c13.32,0,26.64,0.02,39.96-0.01c4.52-0.01,8.79,0.78,8.86,6.3c0.07,5.54-4.23,6.48-8.73,6.49
		c-27.08,0.05-54.15,0.09-81.23,0.11c-4.55,0-8.73-1.14-8.6-6.63c0.13-5.1,4.2-6.06,8.46-6.07c13.76-0.02,27.51-0.01,41.27-0.01
		C241.15,628.63,241.15,628.57,241.15,628.51z"/>
	<path class="st1" d="M347.51,289.06c-13.33,0-26.65,0.01-39.98-0.01c-4.67-0.01-9.44-0.77-9.31-6.62c0.12-5.34,4.51-6.15,9.06-6.15
		c26.65-0.04,53.3-0.17,79.95-0.26c0.66,0,1.31,0.02,1.97,0.02c4.22,0.02,7.62,1.62,7.72,6.18c0.11,4.61-3.28,6.36-7.47,6.43
		c-8.74,0.14-17.47,0.16-26.21,0.21c-5.24,0.03-10.49,0-15.73,0C347.51,288.92,347.51,288.99,347.51,289.06z"/>
	<path class="st1" d="M238.4,526.91c13.32,0,26.65,0.04,39.97-0.02c4.74-0.02,9.41,0.59,9.31,6.49c-0.09,5.45-4.65,6.17-9.07,6.18
		c-26.65,0.08-53.3,0.15-79.95,0.2c-4.59,0.01-9.53-0.48-9.63-6.32c-0.1-5.88,4.69-6.44,9.39-6.43c13.32,0.05,26.65,0.02,39.97,0.02
		C238.4,526.99,238.4,526.95,238.4,526.91z"/>
	<path class="st1" d="M368.21,392.44c0,12.24-0.03,24.48,0.01,36.72c0.01,4.77-0.87,9.39-6.63,9.34c-5.38-0.05-6.24-4.53-6.22-9.03
		c0.08-24.48,0.14-48.97,0.22-73.45c0.02-4.43,0.73-8.9,6.27-8.96c6-0.06,6.53,4.62,6.52,9.3c-0.02,12.02-0.01,24.05-0.01,36.07
		C368.32,392.44,368.26,392.44,368.21,392.44z"/>
	<path class="st1" d="M237.21,626.97c-12.24,0-24.49-0.02-36.73,0.01c-4.5,0.01-8.88-0.76-8.91-6.27c-0.03-5.46,4.3-6.45,8.81-6.46
		c24.7-0.06,49.41-0.12,74.11-0.13c4.53,0,8.73,1.11,8.57,6.66c-0.15,5.13-4.23,6.08-8.47,6.1c-12.46,0.04-24.92,0.01-37.38,0.01
		C237.21,626.92,237.21,626.94,237.21,626.97z"/>
	<path class="st1" d="M235.12,525.52c-11.37,0-22.74,0.01-34.11-0.01c-1.96,0-4.39,0.51-5.78-0.43c-2.4-1.63-4.16-4.21-6.19-6.4
		c2.24-1.98,4.21-5.08,6.77-5.67c4.15-0.97,8.68-0.31,13.06-0.33c19.9-0.05,39.79-0.1,59.69-0.15c1.75,0,3.5-0.03,5.25,0.06
		c3.99,0.21,6.89,1.95,6.93,6.26c0.05,4.4-3.04,6.2-6.92,6.25c-12.9,0.14-25.79,0.05-38.69,0.05
		C235.12,525.26,235.12,525.39,235.12,525.52z"/>
	<path class="st1" d="M239.12,590.5c-12.66,0-25.32,0.02-37.99-0.02c-2.17-0.01-4.75,0.37-6.4-0.64c-1.97-1.19-4.51-3.84-4.31-5.58
		c0.24-2.16,2.73-4.49,4.82-5.87c1.41-0.93,3.82-0.39,5.78-0.4c25.54-0.13,51.08-0.23,76.63-0.34c1.31-0.01,2.62-0.04,3.93,0.04
		c4.2,0.24,8,2.1,7.05,6.53c-0.52,2.42-4.33,5.51-6.96,5.83c-6.89,0.84-13.94,0.34-20.92,0.35c-7.2,0.01-14.41,0-21.61,0
		C239.12,590.44,239.12,590.47,239.12,590.5z"/>
	<path class="st1" d="M236.11,576.07c-12.24,0-24.48-0.01-36.71,0.01c-4.45,0.01-8.95-0.63-9.04-6.13c-0.09-5.45,4.21-6.4,8.77-6.41
		c24.48-0.06,48.95-0.15,73.43-0.22c0.87,0,1.75,0.02,2.62,0.11c3.91,0.41,7.53,2.3,6.49,6.36c-0.63,2.48-4.4,5.77-6.89,5.88
		c-12.87,0.59-25.77,0.27-38.67,0.27C236.11,575.98,236.11,576.03,236.11,576.07z"/>
	<path class="st1" d="M259.35,420.01c0-10.71,0-21.42,0-32.14c0-4.72,0.81-9.35,6.73-9.18c5.45,0.16,6.26,4.66,6.19,9.09
		c-0.34,21.64-0.73,43.29-1.12,64.93c-0.08,4.57-1.29,8.66-6.78,8.51c-5.12-0.14-6.12-4.13-6.12-8.42c-0.01-10.93,0-21.86,0-32.79
		C258.61,420.01,258.98,420.01,259.35,420.01z"/>
	<path class="st1" d="M193,428.58c0-8.31-0.04-16.63,0.02-24.94c0.03-4.29,1.28-8.34,6.24-8.46c5.4-0.13,6.64,4.01,6.64,8.63
		c-0.01,16.41,0,32.82,0,49.23c0,4.53-0.85,8.75-6.48,8.69c-5.62-0.06-6.38-4.42-6.41-8.85C192.95,444.77,192.99,436.68,193,428.58z
		"/>
	<path class="st1" d="M334.9,410.84c0,8.53,0.03,17.07-0.01,25.6c-0.03,4.34-1.28,8.16-6.44,8.11c-5.2-0.05-6.3-3.97-6.25-8.27
		c0.19-16.85,0.44-33.7,0.71-50.55c0.07-4.14,1.58-7.71,6.16-7.83c5.01-0.13,6.58,3.55,6.6,7.99c0.03,8.32,0.01,16.63,0.01,24.95
		C335.41,410.84,335.16,410.84,334.9,410.84z"/>
	<path class="st1" d="M303.03,432.52c0,6.77,0.53,13.6-0.27,20.28c-0.32,2.67-3.17,6.53-5.57,7.15c-4.48,1.16-6.64-2.7-6.69-6.81
		c-0.16-13.97-0.35-27.96,0.23-41.92c0.1-2.49,3.55-6.43,5.97-6.88c4.37-0.81,6.29,2.95,6.31,7.21
		C303.05,418.54,303.03,425.53,303.03,432.52z"/>
	<path class="st1" d="M214.89,497.01c6.13,0,12.25-0.05,18.38,0.02c4.13,0.04,7.68,1.5,7.82,6.13c0.15,5.07-3.55,6.62-7.95,6.62
		c-12.25,0.01-24.51-0.04-36.76-0.14c-4.09-0.04-7.69-1.4-7.82-6.1c-0.14-5.11,3.57-6.56,7.96-6.61c6.13-0.07,12.25-0.02,18.38-0.02
		C214.89,496.93,214.89,496.97,214.89,497.01z"/>
	<path class="st1" d="M217.44,611.2c-6.34,0-12.69,0.02-19.03-0.01c-4.25-0.02-8.06-1.83-7.24-6.27c0.45-2.45,4.31-5.96,6.76-6.06
		c12.88-0.56,25.81-0.5,38.68,0.16c2.43,0.13,6.29,3.75,6.65,6.18c0.65,4.4-3.21,6.13-7.45,6.12c-6.12-0.01-12.25,0-18.37,0
		C217.44,611.29,217.44,611.25,217.44,611.2z"/>
	<path class="st1" d="M215.89,560.3c-6.34,0-12.68,0.03-19.02-0.01c-3.99-0.03-7-1.68-7.15-5.98c-0.15-4.32,2.78-6.37,6.74-6.4
		c13.12-0.09,26.25-0.24,39.34,0.37c2.29,0.11,5.8,3.46,6.31,5.83c0.86,4.05-2.54,6.22-6.54,6.31c-6.56,0.15-13.12,0.04-19.68,0.04
		C215.89,560.41,215.89,560.36,215.89,560.3z"/>
	<path class="st0" d="M66.59,164.72c0.29-2.85,0.29-5.17,0.79-7.38c4.34-19.18,22.29-34.64,41.89-35.03
		c39.31-0.8,78.64-1.23,117.96-1.51c40.99-0.29,81.98-0.23,122.97-0.32c1.62,0,3.24,0,6.1,0c-13.57,11.5-19.74,26.3-25.71,41.25
		c-0.45,1.13-2.34,1.75-3.65,2.42c-0.53,0.27-1.31,0.05-1.98,0.05c-84.15,0.18-168.29,0.35-252.44,0.53
		C70.71,164.72,68.92,164.72,66.59,164.72z"/>
	<path class="st0" d="M331.83,651.01c-8.43-49.28-16.75-97.94-25.16-147.14c48.48-8.22,96.46-16.36,144.8-24.56
		c8.46,49.5,16.8,98.32,25.24,147.69C428.4,635,380.51,642.94,331.83,651.01z M471.44,618.99c-3.36-19.98-6.34-38.51-9.7-56.97
		c-0.73-4.04-4.32-5.19-8.22-4.66c-3.95,0.54-7.88,1.18-11.82,1.8c-7.08,1.12-8.69,2.98-7.55,9.98c2.75,16.89,5.76,33.73,8.63,50.6
		c0.79,4.64,3.63,6.6,8.11,6.08c5.11-0.6,10.3-1.09,15.24-2.43C468.32,622.8,469.98,620.26,471.44,618.99z M370.53,500.19
		c-15.29,2.57-32.17,5.27-49,8.33c-4.1,0.75-5.25,4.41-4.8,8.19c0.51,4.28,1.39,8.53,2.24,12.76c0.8,3.97,3.45,5.58,7.33,4.92
		c16.7-2.81,33.39-5.69,50.09-8.56c4.23-0.73,6.05-3.26,5.27-7.45c-0.81-4.41-1.8-8.78-2.72-13.17
		C378.17,501.53,375.84,499.9,370.53,500.19z M430.95,518.67c4.78-0.83,10.4-1.58,15.89-2.84c3.8-0.87,5.34-3.89,4.83-7.62
		c-0.7-5.09-1.66-10.16-2.6-15.21c-0.77-4.14-3.53-6.02-7.53-5.56c-5.28,0.61-10.52,1.54-15.74,2.52c-3.89,0.73-5.69,3.31-5.17,7.22
		c0.7,5.26,1.5,10.52,2.45,15.75C423.77,516.71,426.31,518.54,430.95,518.67z M332.88,623.03c0.65,4.21,1.3,9.66,2.37,15.02
		c0.8,4,3.7,5.91,7.72,5.41c5.1-0.63,10.17-1.55,15.23-2.49c4.11-0.76,6.03-3.53,5.55-7.54c-0.64-5.26-1.6-10.5-2.6-15.71
		c-0.8-4.13-3.72-5.87-7.67-5.4c-5.1,0.61-10.16,1.61-15.23,2.48C334.33,615.49,332.51,617.85,332.88,623.03z M378.21,637.75
		c5.08-0.87,10.68-1.63,16.19-2.83c3.86-0.84,5.31-3.86,4.83-7.59c-0.66-5.1-1.46-10.19-2.45-15.24c-0.78-4-3.44-6.11-7.53-5.61
		c-5.27,0.64-10.51,1.58-15.74,2.52c-3.92,0.7-5.78,3.27-5.29,7.14c0.67,5.26,1.62,10.49,2.51,15.73
		C371.4,635.76,373.95,637.47,378.21,637.75z M337.61,607.06c4.46-0.72,9.57-1.37,14.6-2.41c4.24-0.88,6.1-3.84,5.5-8.1
		c-0.66-4.77-1.43-9.52-2.35-14.25c-0.97-5.01-3.37-6.85-8.42-6.25c-4.94,0.58-9.84,1.47-14.74,2.35c-4.14,0.74-5.98,3.36-5.41,7.5
		c0.7,5.1,1.44,10.19,2.33,15.26C329.89,605.45,332.69,607.32,337.61,607.06z M395.98,577.05c0.65,3.79,1.41,9.22,2.55,14.57
		c0.87,4.1,3.91,5.68,7.87,5.13c4.93-0.68,9.81-1.66,14.71-2.51c4.65-0.81,6.48-3.72,5.87-8.21c-0.67-4.93-1.41-9.86-2.32-14.75
		c-0.7-3.75-2.98-5.98-7-5.48c-5.43,0.67-10.87,1.4-16.24,2.44C397.7,568.95,395.75,571.49,395.98,577.05z M374.04,601.05
		c3.69-0.62,8.96-1.33,14.15-2.45c3.83-0.82,5.49-3.68,5.01-7.46c-0.67-5.27-1.48-10.53-2.53-15.73c-0.82-4.05-3.71-5.84-7.73-5.33
		c-5.1,0.65-10.19,1.48-15.24,2.43c-4.07,0.76-6.01,3.36-5.44,7.52c0.67,4.93,1.43,9.86,2.26,14.77
		C365.25,599.23,367.85,601.5,374.04,601.05z M386.22,553.8c-0.71-4.28-1.4-9.55-2.49-14.74c-0.85-4.06-3.83-5.72-7.83-5.19
		c-5.1,0.68-10.18,1.5-15.24,2.43c-3.85,0.71-5.83,3.18-5.34,7.11c0.66,5.26,1.46,10.52,2.44,15.74c0.85,4.54,3.94,6.38,8.39,5.78
		c4.77-0.65,9.52-1.46,14.25-2.33C384.67,561.79,386.62,559.11,386.22,553.8z M385.61,500.76c1.1,7.07,1.8,12.51,2.84,17.88
		c0.77,4,3.51,6.04,7.57,5.58c4.94-0.56,9.85-1.43,14.76-2.25c4.52-0.75,6.75-3.44,6.13-8.04c-0.68-5.09-1.46-10.18-2.45-15.22
		c-0.78-4.01-3.49-6.07-7.57-5.54c-5.42,0.7-10.93,1.32-16.14,2.85C388.5,496.67,386.89,499.52,385.61,500.76z M402.65,558.94
		c4.36-0.76,9.61-1.55,14.81-2.61c4.12-0.84,5.81-3.78,5.3-7.74c-0.63-4.94-1.65-9.82-2.46-14.73c-0.77-4.65-3.64-6.56-8.13-5.98
		c-4.94,0.64-9.85,1.44-14.76,2.3c-4.36,0.77-6.24,3.48-5.6,7.86c0.72,4.93,1.47,9.85,2.28,14.77
		C394.79,557.1,397.45,559.07,402.65,558.94z M447.45,521.93c-4.45,0.75-10.04,1.54-15.56,2.67c-3.7,0.76-5.11,3.51-4.64,7.11
		c0.67,5.1,1.39,10.19,2.31,15.25c0.82,4.48,3.71,6.58,8.23,6c4.93-0.63,9.87-1.34,14.74-2.3c3.94-0.78,6.14-3.39,5.62-7.51
		c-0.68-5.43-1.51-10.85-2.61-16.2C454.84,523.37,452.22,521.77,447.45,521.93z M319.89,550.3c0.67,4.34,1.34,9.62,2.35,14.83
		c0.83,4.25,3.74,6.2,8.01,5.65c4.93-0.63,9.86-1.39,14.75-2.34c4.5-0.88,6.45-3.88,5.79-8.37c-0.7-4.76-1.64-9.48-2.41-14.23
		c-0.76-4.65-3.54-6.62-8.08-6.03c-5.1,0.67-10.2,1.42-15.25,2.37C321.21,542.91,319.41,545.43,319.89,550.3z M401.88,612.25
		c0.7,4.27,1.38,9.55,2.49,14.73c0.86,4.01,3.77,5.77,7.82,5.21c5.09-0.7,10.19-1.46,15.23-2.46c3.98-0.79,6.06-3.46,5.53-7.57
		c-0.69-5.26-1.59-10.49-2.53-15.72c-0.71-3.93-3.3-5.74-7.17-5.23c-5.26,0.69-10.49,1.61-15.72,2.55
		C403.42,604.5,401.7,607.2,401.88,612.25z"/>
	<path class="st0" d="M294.64,433.47c48.56-8.23,96.42-16.34,144.79-24.54c3.48,20.39,6.88,40.32,10.36,60.75
		c-48.31,8.21-96.18,16.35-144.74,24.6C301.57,473.95,298.14,453.9,294.64,433.47z M314.08,489.15c1.52-0.17,2.69-0.24,3.84-0.43
		c39.91-6.61,79.82-13.23,119.72-19.86c5.68-0.95,7.72-3.73,6.79-9.46c-1.99-12.32-4.1-24.62-6.16-36.93
		c-1.18-7.03-3.04-8.28-10.22-7.08c-13.46,2.26-26.94,4.46-40.41,6.7c-26.93,4.47-53.87,8.91-80.8,13.42c-5.98,1-7.74,2.99-6.89,8.2
		c2.14,13.14,4.53,26.25,6.76,39.38C307.48,487.51,310.15,489.3,314.08,489.15z"/>
	<path class="st0" d="M153.67,298.49c0-29.66,0-58.94,0-88.67c29.98,0,59.32,0,88.97,0c0,29.46,0,58.85,0,88.67
		C213.03,298.49,183.36,298.49,153.67,298.49z"/>
	<path class="st0" d="M168.02,550.29c0,4.2,0,7.95,0,11.98c-3.65,0-7.05,0-10.87,0c0-4.04,0-7.88,0-11.98
		C160.7,550.29,164.1,550.29,168.02,550.29z"/>
	<path class="st0" d="M156.26,511.59c3.48,0,6.88,0,10.71,0c0,3.97,0,7.82,0,11.98c-3.48,0-6.87,0-10.71,0
		C156.26,519.59,156.26,515.74,156.26,511.59z"/>
	<path class="st0" d="M166.15,484.87c-3.56,0-6.97,0-10.81,0c0-3.88,0-7.59,0-11.73c3.34,0,6.86,0,10.81,0
		C166.15,476.93,166.15,480.77,166.15,484.87z"/>
	<path class="st1" d="M568.83,701.88c-1.91,1.66-4.1,5-6.97,5.78c-6.49,1.75-13.3,2.4-20.02,3.19c-5.89,0.69-9.62-1.89-10.65-7.98
		c-3.77-22.16-7.72-44.29-11.33-66.47c-1.5-9.19,0.61-11.63,9.91-13.11c5.17-0.82,10.34-1.66,15.53-2.37
		c5.12-0.7,9.84,0.8,10.8,6.12C560.5,651.29,564.41,675.63,568.83,701.88z M532.64,635.92c3.67,21.36,7.14,41.52,10.65,61.91
		c4.38-0.71,7.76-1.25,11.55-1.86c-3.48-20.87-6.83-41.04-10.29-61.78C540.3,634.8,536.75,635.32,532.64,635.92z"/>
	<path class="st1" d="M436.26,545.8c6.98-0.38,10.04,1.75,11.06,6.6c1.21,5.76,2.5,11.51,3.57,17.3c1.02,5.51-1.36,8.84-6.92,9.79
		c-21.93,3.76-43.86,7.55-65.81,11.24c-5.1,0.86-8.57-1.25-9.63-6.47c-1.12-5.56-2.27-11.14-2.94-16.76
		c-0.6-4.97,0.91-9.78,6.3-10.76C393.99,552.72,416.18,549.17,436.26,545.8z M435.6,558.89c-19.47,3.26-38.01,6.36-57.1,9.56
		c0.74,3.4,1.28,5.86,1.96,8.97c19-3.27,37.57-6.46,56.8-9.77C436.69,564.64,436.22,562.18,435.6,558.89z"/>
	<path class="st1" d="M515.64,570.07c-6.1-0.16-9.43-2.57-10.34-7.55c-1.25-6.86-2.3-13.77-3.22-20.69
		c-0.68-5.14,1.68-8.53,6.79-9.49c6.86-1.29,13.75-2.51,20.68-3.31c5.25-0.6,8.88,1.87,9.89,7.31c1.23,6.65,2.5,13.29,3.42,19.99
		c0.67,4.91-1.36,8.88-6.35,10.01C529.3,567.99,521.93,568.98,515.64,570.07z M529.51,554.61c-0.72-4.25-1.35-7.97-2.09-12.35
		c-4.34,0.78-8.03,1.44-12.07,2.16c0.73,4.47,1.34,8.21,2.01,12.33C521.73,555.98,525.29,555.36,529.51,554.61z"/>
	<path class="st1" d="M386.79,707.18c-0.48-6.81,1.91-9.91,7.05-10.79c6.66-1.14,13.31-2.45,20.01-3.26
		c5.2-0.62,9.03,1.66,10.08,7.09c1.32,6.84,2.58,13.72,3.42,20.63c0.64,5.27-1.88,8.9-7.29,9.9c-6.65,1.23-13.31,2.43-20.01,3.27
		c-5.28,0.66-9.09-1.86-10.14-7.11C388.5,719.87,387.64,712.72,386.79,707.18z M399.78,708.4c0.86,4.62,1.56,8.34,2.35,12.55
		c4.35-0.85,8.06-1.58,12.07-2.37c-0.81-4.34-1.47-7.9-2.25-12.05C407.79,707.17,404.21,707.72,399.78,708.4z"/>
	<path class="st1" d="M446.35,726.52c-5.6-0.37-8.95-2.62-9.82-7.72c-1.17-6.88-2.42-13.75-3.3-20.66c-0.64-5.09,1.8-8.46,6.94-9.38
		c6.87-1.23,13.75-2.46,20.68-3.3c5.37-0.66,8.87,2.12,9.89,7.37c1.29,6.63,2.35,13.32,3.21,20.02c0.63,4.9-1.27,8.86-6.34,9.97
		C460.39,724.38,453.03,725.38,446.35,726.52z M448.59,713.14c4.56-0.79,8.1-1.4,12.22-2.12c-0.71-4.25-1.34-7.98-2.07-12.35
		c-4.26,0.76-7.94,1.42-12.03,2.15C447.36,705.11,447.9,708.68,448.59,713.14z"/>
	<path class="st1" d="M393.01,686.2c-6.46,0.34-10.13-2.11-11.13-7.74c-1.18-6.65-2.15-13.35-3.07-20.05
		c-0.75-5.44,1.66-8.88,7.11-9.86c6.43-1.15,12.88-2.32,19.36-3.09c6.63-0.78,9.78,1.63,11.06,8.21c1.2,6.21,2.21,12.46,3.08,18.72
		c0.78,5.6-1.66,9.49-7.23,10.64C405.57,684.4,398.86,685.25,393.01,686.2z M406.1,671.13c-0.71-4.45-1.34-8.36-2.02-12.67
		c-4.43,0.83-8.09,1.52-12.11,2.27c0.73,4.48,1.33,8.2,1.99,12.28C398.18,672.36,401.56,671.84,406.1,671.13z"/>
	<path class="st1" d="M469.69,646.77c-0.3-7.3,2.26-10.63,7.13-11.58c7.05-1.37,14.2-2.33,21.33-3.21c5.29-0.65,8.28,2.27,9.2,7.2
		c1.2,6.43,2.18,12.9,3.05,19.38c0.8,5.9-1.6,9.72-7.71,10.79c-6.44,1.12-12.85,2.41-19.32,3.3c-5.19,0.71-9.19-1.36-10.34-6.75
		C471.55,658.88,470.54,651.75,469.69,646.77z M484.87,659.59c4.72-0.95,8.41-1.7,12.46-2.52c-0.75-4.33-1.37-7.87-2.07-11.88
		c-4.37,0.71-8.14,1.33-12.42,2.03C483.52,651.37,484.13,655.1,484.87,659.59z"/>
	<path class="st1" d="M440.87,678.3c-8.13,0.59-11.55-2.38-12.53-8.22c-1.09-6.45-2.08-12.92-2.96-19.4
		c-0.75-5.47,1.81-8.88,7.15-9.88c6.64-1.24,13.32-2.34,20.03-3.19c5.28-0.67,9.08,1.69,10.15,7.01c1.38,6.83,2.44,13.74,3.33,20.66
		c0.63,4.97-1.55,8.73-6.58,9.8C452.65,676.55,445.72,677.48,440.87,678.3z M440.59,665.5c4.66-0.89,8.33-1.59,12.34-2.35
		c-0.79-4.53-1.44-8.23-2.15-12.28c-4.42,0.67-7.96,1.2-11.99,1.81C439.42,657.13,439.95,660.91,440.59,665.5z"/>
	<path class="st1" d="M456.87,616.23c0.53,6.98-2.04,10.5-7.65,11.54c-6.22,1.15-12.46,2.21-18.72,3.06
		c-5.84,0.8-9.9-1.62-11.02-7.59c-1.29-6.85-2.33-13.76-3.2-20.67c-0.65-5.17,1.96-8.41,7.01-9.34c6.65-1.22,13.33-2.3,20.03-3.19
		c5.26-0.7,9.16,1.48,10.28,6.82C455.03,603.67,455.94,610.6,456.87,616.23z M441.65,603.16c-4.25,0.72-7.96,1.34-12.07,2.04
		c0.75,4.56,1.37,8.29,2.07,12.51c4.34-0.79,8.02-1.47,12.16-2.22C443.02,611.07,442.37,607.34,441.65,603.16z"/>
	<path class="st1" d="M456.07,546.54c1.68-1.63,3.8-5.37,6.76-6.23c6.85-2.01,14.08-2.82,21.21-3.74c5.36-0.69,8.91,2.01,9.94,7.28
		c1.29,6.62,2.32,13.31,3.21,20c0.81,6.04-2.12,9.58-8.06,10.56c-6.45,1.07-12.9,2.21-19.39,2.95c-5.34,0.61-8.94-2.07-9.95-7.33
		C458.44,562.98,457.52,555.83,456.07,546.54z M469.89,551.91c0.71,4.37,1.32,8.08,2.03,12.39c4.39-0.77,8.11-1.42,12.24-2.14
		c-0.79-4.4-1.46-8.14-2.24-12.44C477.68,550.49,473.98,551.16,469.89,551.91z"/>
	<path class="st1" d="M478.45,622.98c-6.83,0.17-10.32-2.42-11.25-8.07c-1.07-6.46-2.05-12.93-3-19.4
		c-0.85-5.75,1.62-9.32,7.35-10.33c6.44-1.13,12.9-2.18,19.38-3.02c5.91-0.76,9.67,1.74,10.69,7.86c1.07,6.45,2.41,12.87,3.24,19.36
		c0.67,5.21-1.54,9.07-6.96,10.17C491.07,620.94,484.17,621.99,478.45,622.98z M479.45,610.02c4.68-1.02,8.32-1.82,12.19-2.67
		c-0.88-4.55-1.57-8.11-2.35-12.13c-4.19,0.73-7.75,1.35-11.83,2.07C478.14,601.67,478.73,605.47,479.45,610.02z"/>
	<path class="st1" d="M537.32,574.35c6.26-0.21,9.7,1.89,10.66,6.58c1.44,7.04,2.53,14.16,3.42,21.29c0.68,5.42-2.2,8.85-7.39,9.87
		c-6.41,1.27-12.89,2.2-19.37,3.03c-5.94,0.76-9.75-2-10.82-7.88c-1.21-6.64-2.16-13.34-3.04-20.04c-0.62-4.74,1.23-8.34,6.09-9.34
		C524.13,576.37,531.47,575.34,537.32,574.35z M524.04,589.53c0.75,4.52,1.37,8.26,2.07,12.51c4.36-0.71,8.08-1.31,12.21-1.98
		c-0.8-4.52-1.47-8.29-2.2-12.45C532.11,588.25,528.56,588.81,524.04,589.53z"/>
	<path class="st1" d="M369.73,611.63c-0.62-6.4,1.73-9.71,6.78-10.66c6.64-1.25,13.33-2.24,20.04-3.11
		c5.96-0.78,9.62,1.81,10.61,7.92c1.02,6.24,2.25,12.45,3.17,18.7c0.87,5.91-1.7,9.85-7.61,11c-6.41,1.25-12.89,2.24-19.37,3.07
		c-5.61,0.72-9.44-1.84-10.52-7.42C371.49,624.27,370.62,617.34,369.73,611.63z M382.93,613.01c0.67,4.28,1.27,8.17,1.95,12.55
		c4.45-0.82,8.13-1.5,12.2-2.25c-0.78-4.5-1.42-8.22-2.15-12.41C390.71,611.64,387.18,612.26,382.93,613.01z"/>
	<path class="st1" d="M477.45,693.01c-0.25-6.62,2.01-10.17,7.42-11.15c6.86-1.24,13.74-2.44,20.65-3.35
		c5.09-0.67,8.49,1.7,9.42,6.87c1.24,6.86,2.43,13.74,3.33,20.65c0.71,5.41-2.03,8.91-7.26,9.95c-6.62,1.32-13.32,2.31-20.01,3.23
		c-5.32,0.74-9.14-1.58-10.27-6.84C479.26,705.56,478.38,698.63,477.45,693.01z M490.67,693.69c0.66,4.22,1.23,7.94,1.92,12.32
		c4.4-0.7,8.3-1.33,12.62-2.01c-0.85-4.42-1.56-8.1-2.31-12.02C498.75,692.56,495.37,693.03,490.67,693.69z"/>
	<path class="st1" d="M362.09,531.29c-5.16,0.2-8.67-2.16-9.66-7.97c-2.94-17.25-6.08-34.46-8.89-51.73
		c-1.11-6.84,1.2-9.46,9.06-10.78c35.37-5.93,70.76-11.76,106.15-17.63c17.69-2.93,35.4-5.83,53.08-8.8
		c9.43-1.58,11.88,0.06,13.42,9.3c2.71,16.17,5.47,32.34,8.09,48.52c1.22,7.53-1.46,11.19-8.93,12.43
		c-52.43,8.72-104.86,17.41-157.29,26.1C365.63,530.98,364.09,531.08,362.09,531.29z M364.46,518.14
		c52.31-8.66,103.75-17.18,155.93-25.82c-2.56-15.35-5.01-30.1-7.52-45.14c-52.46,8.7-104.1,17.26-156.13,25.88
		C359.37,488.39,361.83,502.77,364.46,518.14z"/>
	<path class="st0" d="M443.89,568.79c3.13-0.46,5.84-0.85,9.07-1.32c2.63,15.79,5.19,31.14,7.83,47.03
		c-2.89,0.46-5.45,0.88-8.79,1.41C449.32,600.39,446.68,585.05,443.89,568.79z"/>
	<path class="st0" d="M370.03,510.16c0.48,2.5,0.83,4.38,1.27,6.67c-14.64,2.52-28.77,4.95-43.23,7.43
		c-0.52-2.37-0.93-4.24-1.49-6.83C341.09,515,355.2,512.64,370.03,510.16z"/>
	<path class="st0" d="M441.51,506.9c-3.21,0.57-5.92,1.04-9.25,1.63c-0.51-3.14-0.98-5.98-1.53-9.39c3.08-0.55,5.88-1.05,9.19-1.64
		C440.48,500.84,440.96,503.67,441.51,506.9z"/>
	<path class="st0" d="M342.76,623.96c3.37-0.52,6.1-0.93,9.26-1.42c0.59,3.16,1.09,5.87,1.71,9.17c-3.05,0.6-5.88,1.15-9.18,1.8
		C343.95,630.31,343.42,627.47,342.76,623.96z"/>
	<path class="st0" d="M379.91,627.57c-0.52-3.4-0.93-6.11-1.43-9.38c3.11-0.56,5.91-1.06,9.15-1.64c0.56,3.33,1.03,6.17,1.58,9.4
		C386.07,626.5,383.38,626.97,379.91,627.57z"/>
	<path class="st0" d="M347.58,595.59c-3.46,0.54-6.03,0.93-9.24,1.43c-0.5-3.1-0.96-5.93-1.52-9.34c3.05-0.57,5.85-1.1,9.22-1.73
		C346.56,589.23,347.04,592.2,347.58,595.59z"/>
	<path class="st0" d="M407.53,586.81c-0.56-3.42-1.03-6.26-1.55-9.41c3.26-0.53,6.13-1,9.46-1.55c0.53,3.05,1,5.75,1.57,9.04
		C413.93,585.51,411.12,586.08,407.53,586.81z"/>
	<path class="st0" d="M373.83,591.3c-0.49-3.49-0.89-6.37-1.37-9.76c3.07-0.46,5.76-0.87,9.13-1.38c0.54,3.08,1.03,5.9,1.64,9.35
		C380.17,590.1,377.38,590.63,373.83,591.3z"/>
	<path class="st0" d="M374.63,543.85c0.55,3.18,1.05,6.02,1.64,9.38c-3.15,0.57-5.95,1.09-9.25,1.69c-0.53-3.22-1-6.05-1.57-9.52
		C368.57,544.88,371.39,544.4,374.63,543.85z"/>
	<path class="st0" d="M396.13,504.84c3.11-0.57,5.93-1.08,9.16-1.67c0.59,3.27,1.1,6.12,1.7,9.47c-3.15,0.55-5.98,1.04-9.32,1.63
		C397.13,510.99,396.67,508.16,396.13,504.84z"/>
	<path class="st0" d="M403.4,549.07c-0.54-3.46-0.99-6.36-1.51-9.69c3.1-0.54,5.82-1.02,9-1.57c0.59,3.06,1.12,5.77,1.79,9.23
		C409.73,547.69,406.96,548.3,403.4,549.07z"/>
	<path class="st0" d="M437.34,533.48c3.44-0.55,6.14-0.98,9.19-1.46c0.56,3.17,1.07,6.04,1.68,9.48c-3.14,0.51-5.98,0.97-9.29,1.51
		C438.38,539.76,437.91,536.92,437.34,533.48z"/>
	<path class="st0" d="M329.94,551.35c3.23-0.57,5.92-1.04,9.14-1.6c0.55,3.19,1.04,6.02,1.63,9.44c-3.1,0.57-5.9,1.09-9.29,1.71
		C330.91,557.57,330.45,554.6,329.94,551.35z"/>
	<path class="st0" d="M411.94,612.76c3.57-0.5,6.15-0.86,9.3-1.3c0.57,2.98,1.11,5.78,1.76,9.15c-3.28,0.52-6.25,1-9.6,1.53
		C412.88,618.8,412.44,615.97,411.94,612.76z"/>
	<path class="st0" d="M315.88,479.14c-2-11.7-3.88-22.65-5.87-34.32c39.6-6.56,78.91-13.08,118.84-19.7
		c1.91,11.45,3.77,22.67,5.72,34.36C394.85,466.06,355.7,472.54,315.88,479.14z M384.3,466.12c2.44-0.41,6.22-0.95,9.96-1.68
		c5.33-1.05,7.12-3.31,6.41-8.72c-0.76-5.75-1.85-11.46-2.93-17.17c-0.73-3.88-3.34-5.73-7.17-5.34c-3.62,0.37-7.37,0.7-10.74,1.93
		c-3.7,1.35-8.36,2.59-7.2,8.41c1.16,5.86,2.27,11.73,3.46,17.58C376.83,464.86,379.3,466.34,384.3,466.12z M368.33,459.45
		c0.62-3.08,1.97-5.62,1.4-7.62c-3.74-13.19-3.04-14.16-16.43-12.03c-0.98,0.16-1.99,0.16-2.97,0.3c-4.12,0.61-6.27,2.86-5.67,7.17
		c0.79,5.75,1.68,11.49,2.52,17.24c0.44,3.03,0.97,6.75,4.68,6.46c2.32-0.18,4.45-2.92,6.66-4.51c1.82-0.18,4.19,1.67,6.82,2.14
		c1.83,0.33,4.7-0.67,5.79-2.09c0.79-1.03-0.4-3.77-1.06-5.62C369.79,460.11,368.59,459.65,368.33,459.45z M328.25,465.65
		c2.42-0.54,4.51-0.97,6.59-1.48c6.54-1.61,8.14-4.17,6.81-10.86c-0.32-1.63-0.64-3.27-1.08-4.87c-1.03-3.76-3.64-5.58-7.43-5.22
		c-4.13,0.39-8.38,0.72-12.28,1.99c-1.86,0.6-4.4,3.41-4.29,5.06c0.52,7.6,1.62,15.2,3.14,22.67c0.29,1.44,3.6,3.4,5.15,3.12
		c1.55-0.28,3.05-2.91,3.81-4.82C329.21,469.87,328.49,468.01,328.25,465.65z M413.15,440.63c2.3-0.4,5.69-0.44,8.58-1.66
		c2.02-0.85,4.59-3.22,4.73-5.09c0.27-3.36-2.76-4.64-5.94-4.26c-4.61,0.55-9.18,1.32-13.77,2.04c-4.53,0.71-6.15,3.5-5.39,7.84
		c0.86,4.9,1.79,9.78,2.69,14.67c0.67,3.62,1.02,8.03,6.07,7.41c4.84-0.59,4.07-4.79,3.81-8.3c-0.02-0.31,0.14-0.63,0.22-0.95
		c0.39,0.25,0.77,0.49,1.16,0.74c1.62-2.46,4.57-5.01,4.42-7.37C419.62,443.92,415.57,442.38,413.15,440.63z"/>
	<path class="st1" d="M454.35,501.03c-6.56,0.29-9.81-1.65-10.8-6.54c-1.56-7.69-3.02-15.4-4.55-23.1
		c-1.52-7.65,4.6-9.28,9.46-11.05c4.43-1.62,9.36-2.05,14.11-2.54c5.04-0.52,8.46,1.91,9.43,7.01c1.42,7.49,2.86,15,3.85,22.56
		c0.93,7.1-1.41,10.08-8.42,11.45C462.51,499.79,457.55,500.5,454.35,501.03z M452.2,472.28c0.72,3.74,1.57,6.66,1.79,9.62
		c0.5,6.46,3.53,6.93,8.77,3.84c-0.89-4.75-1.79-9.51-2.72-14.49C457.23,471.62,455.15,471.9,452.2,472.28z"/>
	<path class="st1" d="M433.36,492.27c0.35,0.27,1.92,0.87,2.29,1.89c0.87,2.43,2.43,6.04,1.39,7.39c-1.44,1.86-5.2,3.18-7.61,2.74
		c-3.44-0.63-6.56-3.05-8.95-2.81c-2.91,2.09-5.7,5.69-8.75,5.93c-4.87,0.38-5.57-4.51-6.15-8.49c-1.1-7.55-2.27-15.09-3.31-22.65
		c-0.78-5.65,2.03-8.61,7.45-9.41c1.29-0.19,2.61-0.19,3.9-0.4c17.59-2.8,16.67-1.52,21.58,15.8
		C435.95,484.89,434.18,488.23,433.36,492.27z"/>
	<path class="st1" d="M380.72,500.41c0.31,3.1,1.26,5.55,0.55,7.34c-0.99,2.5-2.96,5.96-5,6.33c-2.04,0.37-6.38-2.21-6.76-4.1
		c-2-9.82-3.44-19.8-4.13-29.79c-0.15-2.16,3.19-5.85,5.63-6.64c5.13-1.66,10.7-2.1,16.13-2.61c4.98-0.47,8.4,1.93,9.76,6.86
		c0.58,2.1,0.99,4.25,1.41,6.39c1.75,8.79-0.36,12.15-8.95,14.27C386.65,499.14,383.89,499.7,380.72,500.41z"/>
	<path class="st1" d="M492.25,467.55c3.19,2.3,8.5,4.33,8.64,6.68c0.19,3.1-3.68,6.44-5.81,9.68c-0.51-0.32-1.02-0.65-1.52-0.97
		c-0.1,0.41-0.32,0.84-0.29,1.24c0.35,4.61,1.35,10.13-5,10.91c-6.63,0.81-7.1-4.99-7.97-9.74c-1.18-6.42-2.41-12.84-3.54-19.27
		c-1-5.7,1.13-9.37,7.08-10.3c6.02-0.94,12.04-1.96,18.09-2.68c4.18-0.5,8.16,1.17,7.81,5.59c-0.19,2.45-3.57,5.56-6.22,6.68
		C499.73,466.97,495.28,467.03,492.25,467.55z"/>
	<path class="st0" d="M382.66,444.23c2.25-0.29,3.83-0.5,5.97-0.78c0.71,3.79,1.39,7.41,2.07,11.03c-3.99,2.35-6.3,1.99-6.68-2.92
		C383.85,449.3,383.21,447.08,382.66,444.23z"/>
</g>
</svg>
