<?xml version="1.0" encoding="utf-8"?>
<!-- Generator: Adobe Illustrator 24.0.1, SVG Export Plug-In . SVG Version: 6.00 Build 0)  -->
<svg version="1.1" id="Слой_1" xmlns="http://www.w3.org/2000/svg" xmlns:xlink="http://www.w3.org/1999/xlink" x="0px" y="0px"
	 viewBox="0 0 612 792" style="enable-background:new 0 0 612 792;" xml:space="preserve">
<style type="text/css">
	.st0{display:none;}
	.st1{display:none;fill:#FEFEFE;}
	.st2{fill:#F8F8F8;}
	.st3{display:none;fill:#010101;}
	.st4{display:none;fill:#040404;}
	.st5{display:none;fill:#050505;}
	.st6{display:none;fill:#030303;}
	.st7{display:none;fill:#090909;}
	.st8{display:none;fill:#020202;}
</style>
<g>
	<path class="st0" d="M-142.65,813.65c0-304.89,0-609.76,0-914.65c304.87,0,609.76,0,914.63,0c0,304.81,0,609.61,0,914.65
		C466.72,813.65,162.04,813.65-142.65,813.65z M252.19,368.69c-3.8,1.16-7.23,1.67-10.16,3.17c-40.53,20.89-81.58,40.8-120.24,65.17
		c-13.07,8.25-21.94,19.44-25.64,34.49c-6.87,28.03-14.01,55.99-20.25,84.16c-4.81,21.73-10.13,43.59-12.14,65.66
		c-2.45,26.88,11.34,46.04,36.73,51.85c9.11,2.08,18.82,2.9,28.14,2.37c33.28-1.9,66.54-4.14,99.72-7.18
		c29.12-2.68,58.11-6.71,87.2-9.93c9.37-1.03,19.14-3.24,28.21-1.75c50.88,8.33,101.63,17.56,153.24,20.34
		c9.95,0.54,20.22,1.47,29.84-0.34c17.85-3.39,28.24-16.3,34.67-32.51c6.58-16.57,7.05-33.98,3.4-50.98
		c-7.82-36.47-16.77-72.68-25.31-108.98c-5.04-21.43-16.74-38.14-35.57-49.77c-12.37-7.64-24.15-16.36-36.98-23.1
		c-26.29-13.79-53.04-26.68-79.73-39.71c-9.95-4.86-10.09-4.53-9.11-15.36c0.15-1.69,0.72-3.57,0.18-5.02
		c-1.05-2.81-2.11-6.3-4.34-7.8c-2.91-1.98-5.58,0.7-7.62,3.19c-6.15,7.44-12.34,14.84-18.52,22.25
		c-10.93,13.09-21.86,26.18-33,39.53c-1.36-1.51-2.5-2.72-3.57-3.98c-16.18-19.36-32.33-38.73-48.51-58.08
		c-2.24-2.68-4.29-6.22-8.65-4.58c-4.7,1.75-3.66,5.96-3.45,9.59C251.11,357.04,251.68,362.75,252.19,368.69z M431.36,204.12
		c6.4,0,13.14,0,19.89,0c4.01,0,6.68-1.88,6.72-5.97c0.13-10.16,0.16-20.32-0.21-30.46c-0.15-4.17-2.75-6.74-7.38-6.69
		c-4.24,0.05-8.49-0.46-12.7-0.11c-4.42,0.36-5.81-1.57-7.15-5.56c-6.5-19.32-13.04-38.63-20.39-57.64
		c-5.45-14.09-15.71-24.59-29.3-31.05c-13.07-6.22-26.6-11.45-40.07-16.82c-2.55-1.01-3.83-1.73-3.78-4.76
		c0.11-7.28-2.47-9.82-9.69-9.73c-10,0.11-19.98,0.39-29.96,0.7c-5.6,0.18-8.3,2.57-8.18,8.05c0.07,3.7-1.59,4.56-4.66,5.74
		c-12.73,4.89-25.49,9.82-37.88,15.53c-15.17,7-26.42,18.46-32.46,34.08c-6.92,17.92-13.09,36.13-19.21,54.33
		c-1.1,3.27-2.36,4.32-5.58,4.04c-3.53-0.31-7.12-0.36-10.65-0.2c-3.83,0.16-6.33,1.88-6.45,6.22c-0.23,9.65-0.69,19.29-0.93,28.93
		c-0.21,8.21,1.41,9.85,9.54,9.91c6.53,0.05,13.07,0.02,18.8,0.02c2.68,16.72,4.45,32.72,7.9,48.35
		c10.34,46.79,40.87,79.19,78.32,105.87c16.31,11.63,34.06,11.08,51.6,1c21.71-12.48,39.64-29.27,56.23-47.76
		c15.26-17,25.64-36.4,29.76-58.93C426.37,235.76,428.71,220.22,431.36,204.12z"/>
	<path class="st1" d="M-142.65,813.65c304.69,0,609.37,0,914.63,0c0-305.03,0-609.84,0-914.65c0.34,0.16,0.97,0.33,0.97,0.51
		c0.08,1.34,0.05,2.7,0.05,4.06c0,303.69,0,607.39,0,911.08c-303.69,0-607.39,0-911.08-0.05
		C-139.61,814.63-141.13,813.99-142.65,813.65z"/>
	<path class="st2" d="M252.19,368.69c-0.49-5.92-1.08-11.65-1.42-17.38c-0.23-3.63-1.24-7.84,3.45-9.59
		c4.37-1.62,6.41,1.91,8.65,4.58c16.18,19.34,32.35,38.73,48.51,58.08c1.06,1.28,2.21,2.47,3.57,3.98
		c11.14-13.35,22.07-26.44,33-39.53c6.18-7.41,12.37-14.81,18.52-22.25c2.05-2.47,4.71-5.17,7.62-3.19c2.21,1.51,3.29,5.01,4.34,7.8
		c0.54,1.46-0.03,3.34-0.18,5.02c-0.98,10.81-0.83,10.5,9.11,15.36c26.68,13.02,53.45,25.92,79.73,39.71
		c12.83,6.72,24.61,15.46,36.98,23.1c18.85,11.65,30.53,28.34,35.57,49.77c8.54,36.31,17.51,72.53,25.31,108.98
		c3.65,17,3.16,34.41-3.4,50.98c-6.43,16.21-16.82,29.11-34.67,32.51c-9.64,1.83-19.91,0.88-29.84,0.34
		c-51.6-2.78-102.35-12.01-153.24-20.34c-9.06-1.49-18.83,0.72-28.21,1.75c-29.07,3.22-58.08,7.25-87.2,9.93
		c-33.18,3.04-66.46,5.28-99.72,7.18c-9.33,0.54-19.04-0.29-28.14-2.37c-25.39-5.79-39.18-24.97-36.73-51.85
		c2.01-22.07,7.33-43.91,12.14-65.66c6.23-28.16,13.38-56.13,20.25-84.16c3.68-15.04,12.55-26.24,25.64-34.49
		c38.66-24.36,79.71-44.26,120.24-65.17C244.94,370.36,248.39,369.84,252.19,368.69z M352.86,566.01
		c12.19,1.65,23.69,3.3,35.23,4.74c2.75,0.34,5.76,0.62,8.33-0.11c13.92-4.02,27.65-8.77,41.66-12.52
		c11.55-3.09,23.53-4.45,32.56,5.82c6.56,7.44,12.24,15.69,17.88,23.87c1,1.46,0.74,4.97-0.38,6.36c-1.13,1.41-4.19,2.11-6.2,1.82
		c-33.77-4.89-67.47-10.24-101.26-14.99c-27.96-3.93-55.94-7.71-84.01-10.65c-24.38-2.55-48.87-4.06-73.35-5.55
		c-9.72-0.59-11.26,1.18-13.35,10.65c-3.16,14.28-1.91,28.65-0.56,42.96c0.13,1.44,2.47,3.55,4.06,3.83
		c44.71,8.02,89.4,16.3,134.23,23.58c40.35,6.56,80.82,12.45,121.35,17.72c17.06,2.21,34.42,2.59,51.65,2.67
		c5.27,0.03,11.11-2.81,15.71-5.84c7.33-4.83,11.98-12.19,15.05-20.53c5.58-15.12,5.81-30.82,2.5-46.06
		c-8.02-36.93-16.98-73.66-26-110.37c-3.62-14.69-11.6-26.9-24.2-35.78c-39.77-28.08-82.67-50.38-128.52-69.19
		C367.8,440.96,360.35,503.31,352.86,566.01z M253.52,380.21c-1.91,0.31-3.27,0.41-4.56,0.75c-1.13,0.29-2.26,0.77-3.29,1.33
		c-38.46,20.79-76.91,41.61-115.36,62.43c-12.75,6.9-20.79,17.39-24.13,31.59c-5.96,25.29-12.5,50.44-18.11,75.8
		C83,575,77.44,597.93,74.74,621.16c-2.54,21.81,7.85,36.29,26.68,40.8c9.06,2.18,18.73,2.85,28.09,2.65
		c53.03-1.1,105.58-7.77,158.18-13.83c3.11-0.36,6.2-0.93,9.31-1.41c-21.76-4.86-43.37-8.65-64.97-12.55
		c-10.13-1.83-21.06-2.03-30.14-6.22c-15.4-7.1-29.78-16.51-44.27-25.47c-9.26-5.73-10.86-15.22-9.24-25.08
		c1.75-10.67,6.38-19.67,17.52-23.49c10.8-3.7,21.97-4.02,33.08-2.54c5.5,0.74,10.72,0.93,16.31,0.61c12.96-0.74,26-0.05,38.99,0.41
		c7.72,0.28,15.41,1.23,23.59,1.93C269.73,497.8,261.66,439.24,253.52,380.21z M308.96,418.66c-15.23-18.23-30.25-36.21-45.27-54.19
		c-0.38,0.16-0.75,0.33-1.15,0.49c8.46,61.34,16.92,122.69,25.36,184.03c5.42-26.62,9.95-53.09,14.17-79.63
		c0.43-2.65-0.51-5.96-1.9-8.33c-2.63-4.5-6.1-8.52-9.13-12.79c-3.76-5.3-3.63-7.1,0.92-11.88
		C297.53,430.5,303.17,424.7,308.96,418.66z M343.16,549.68c0.15-0.11,0.31-0.23,0.46-0.34c7.46-61.47,14.92-122.94,22.46-185.09
		c-15.22,18.26-30.07,36.09-45.19,54.24c6.48,6.36,12.42,12.37,18.59,18.16c3.94,3.7,4.09,7.51,1.13,11.71
		c-2.62,3.73-5.07,7.64-8.03,11.09c-2.73,3.17-2.98,6.41-2.32,10.32c2.72,16.16,5.22,32.36,7.82,48.54
		C339.75,528.77,341.46,539.22,343.16,549.68z M300.57,442.69c3.68,5.04,6.58,9.42,9.9,13.47c3.06,3.71,3.86,7.69,3.08,12.3
		c-3.6,21.14-7.17,42.28-10.7,63.42c-1.52,9.08-2.94,18.16-4.43,27.44c12.14,1.46,23.77,2.83,35.73,4.27
		c-1.64-10.34-3.14-20.01-4.68-29.66c-3.55-22.17-7.07-44.34-10.7-66.51c-0.74-4.47,0.11-8.21,3.01-11.78
		c3.16-3.88,5.91-8.08,8.12-11.13c-5.51-5.55-10.45-10.52-14.58-14.68C310.76,433.79,305.81,438.13,300.57,442.69z M198.13,617.72
		c-1.42-18.54-2.29-35.36,3.17-52.36c-11.63-1.52-22.79-2.23-33.33,2.34c-10.32,4.47-12.4,22.68-3.24,29.04
		C175.11,603.95,186.09,610.21,198.13,617.72z M472.1,583.07c-8.2-14.63-14.79-17.69-30.43-14.51c-0.49,0.1-1.01,0.08-1.51,0.21
		c-6.79,1.8-13.56,3.6-20.34,5.42c0.08,0.39,0.18,0.77,0.26,1.16C437.22,577.88,454.36,580.44,472.1,583.07z"/>
	<path class="st2" d="M431.36,204.12c-2.65,16.1-4.99,31.64-7.82,47.09c-4.12,22.51-14.5,41.92-29.76,58.93
		c-16.61,18.49-34.52,35.27-56.23,47.76c-17.54,10.08-35.29,10.63-51.6-1c-37.45-26.68-67.98-59.08-78.32-105.87
		c-3.45-15.62-5.22-31.61-7.9-48.35c-5.73,0-12.25,0.05-18.8-0.02c-8.15-0.07-9.75-1.7-9.54-9.91c0.25-9.65,0.7-19.29,0.93-28.93
		c0.1-4.34,2.6-6.05,6.45-6.22c3.55-0.15,7.12-0.1,10.65,0.2c3.22,0.28,4.48-0.75,5.58-4.04c6.12-18.21,12.29-36.42,19.21-54.33
		c6.04-15.64,17.29-27.08,32.46-34.08c12.37-5.73,25.13-10.63,37.88-15.53c3.08-1.18,4.73-2.05,4.66-5.74
		c-0.11-5.48,2.59-7.87,8.18-8.05c9.98-0.31,19.98-0.59,29.96-0.7c7.2-0.08,9.8,2.45,9.69,9.73c-0.05,3.03,1.23,3.75,3.78,4.76
		c13.45,5.37,27,10.6,40.07,16.82c13.6,6.46,23.85,16.97,29.3,31.05c7.35,19,13.91,38.32,20.39,57.64c1.34,3.99,2.73,5.92,7.15,5.56
		c4.2-0.34,8.46,0.16,12.7,0.11c4.63-0.05,7.22,2.52,7.38,6.69c0.38,10.14,0.34,20.32,0.21,30.46c-0.05,4.09-2.7,5.97-6.72,5.97
		C444.5,204.12,437.76,204.12,431.36,204.12z M211.73,203.58c1.78,18.31,3.86,36.71,9.08,54.66c10.44,35.9,35.23,61.12,62.91,83.82
		c19.81,16.25,32.89,16.21,54.51,2.59c18.19-11.47,33.46-26.28,47.71-42.26c13.58-15.23,22.94-32.54,26.68-52.62
		c2.8-15.02,5.04-30.15,7.69-46.17C350.09,203.58,281.26,203.58,211.73,203.58z M336.96,60.04c0,2.31,0.02,3.96,0,5.61
		c-0.39,24.71-0.75,49.43-1.23,74.13c-0.16,8.41-2.01,9.96-10.45,9.77c-9.31-0.21-18.62-0.36-27.93-0.54
		c-7.67-0.15-9.75-2.21-9.65-9.67c0.31-24.54,0.62-49.08,0.95-73.62c0.02-1.65,0-3.3,0-5.15c-1.06,0.07-1.78-0.08-2.34,0.16
		c-12.99,5.58-26.18,10.78-38.89,16.93c-9.87,4.76-17.2,12.73-21.43,22.89c-5.69,13.68-10.88,27.57-16.03,41.46
		c-1.88,5.09-3.08,10.42-4.66,15.94c72.27,0.87,143.62,1.73,215.57,2.6c-5.61-20.25-11.22-39.69-20.42-57.8
		c-3.09-6.1-6.76-12.42-11.68-16.97C374.26,72.36,355.84,66.37,336.96,60.04z M446.84,171.85c-88.07-1.06-175.54-2.11-263.38-3.17
		c-0.36,7.76-0.7,15.12-1.08,22.87c88.48,0.52,176.4,1.05,264.44,1.57C446.84,185.86,446.84,179.15,446.84,171.85z M325.19,138.03
		c0-30.48,0-60.94,0-91.07c-8.2,0-16.56,0-25.69,0c0,30.58,0,60.58,0,91.07C307.51,138.03,315.75,138.03,325.19,138.03z"/>
	<path class="st3" d="M352.86,566.01c7.49-62.7,14.94-125.05,22.4-187.56c45.84,18.82,88.73,41.12,128.52,69.19
		c12.6,8.88,20.58,21.09,24.2,35.78c9.03,36.7,18,73.43,26,110.37c3.3,15.23,3.08,30.94-2.5,46.06
		c-3.08,8.33-7.72,15.71-15.05,20.53c-4.6,3.03-10.44,5.87-15.71,5.84c-17.23-0.08-34.6-0.46-51.65-2.67
		c-40.54-5.27-81-11.16-121.35-17.72c-44.85-7.28-89.51-15.56-134.23-23.58c-1.59-0.28-3.93-2.39-4.06-3.83
		c-1.37-14.32-2.6-28.68,0.56-42.96c2.09-9.49,3.63-11.26,13.35-10.65c24.48,1.51,48.97,3.01,73.35,5.55
		c28.08,2.93,56.07,6.71,84.01,10.65c33.79,4.74,67.49,10.08,101.26,14.99c2.03,0.29,5.07-0.41,6.2-1.82
		c1.13-1.39,1.39-4.91,0.38-6.36c-5.64-8.18-11.34-16.43-17.88-23.87c-9.05-10.27-21.02-8.92-32.56-5.82
		c-13.99,3.75-27.72,8.49-41.66,12.52c-2.59,0.75-5.6,0.46-8.33,0.11C376.55,569.31,365.05,567.66,352.86,566.01z"/>
	<path class="st3" d="M253.52,380.21c8.15,59.05,16.21,117.59,24.38,176.78c-8.18-0.69-15.87-1.65-23.59-1.93
		c-12.99-0.47-26.05-1.15-38.99-0.41c-5.6,0.31-10.8,0.13-16.31-0.61c-11.13-1.49-22.3-1.16-33.08,2.54
		c-11.16,3.81-15.79,12.83-17.52,23.49c-1.62,9.88-0.02,19.36,9.24,25.08c14.48,8.97,28.88,18.37,44.27,25.47
		c9.06,4.19,20.01,4.38,30.14,6.22c21.6,3.91,43.21,7.71,64.97,12.55c-3.11,0.47-6.2,1.05-9.31,1.41
		c-52.6,6.05-105.15,12.73-158.18,13.83c-9.36,0.2-19.03-0.47-28.09-2.65c-18.82-4.52-29.22-19-26.68-40.8
		c2.7-23.22,8.26-46.15,13.32-69.04c5.61-25.36,12.16-50.52,18.11-75.8c3.35-14.22,11.39-24.69,24.13-31.59
		c38.43-20.84,76.9-41.64,115.36-62.43c1.03-0.56,2.16-1.01,3.29-1.33C250.24,380.62,251.6,380.5,253.52,380.21z"/>
	<path class="st4" d="M308.96,418.66c-5.79,6.02-11.42,11.85-17,17.7c-4.53,4.78-4.68,6.59-0.92,11.88c3.04,4.27,6.5,8.3,9.13,12.79
		c1.39,2.37,2.32,5.69,1.9,8.33c-4.2,26.52-8.75,52.99-14.17,79.63c-8.46-61.34-16.92-122.69-25.36-184.03
		c0.38-0.16,0.75-0.33,1.15-0.49C278.71,382.45,293.73,400.43,308.96,418.66z"/>
	<path class="st4" d="M343.16,549.68c-1.7-10.45-3.42-20.91-5.1-31.38c-2.6-16.18-5.09-32.38-7.82-48.54
		c-0.65-3.89-0.41-7.13,2.32-10.32c2.96-3.45,5.4-7.35,8.03-11.09c2.96-4.2,2.8-8-1.13-11.71c-6.15-5.79-12.11-11.81-18.59-18.16
		c15.12-18.14,29.99-35.98,45.19-54.24c-7.54,62.16-15,123.62-22.46,185.09C343.47,549.45,343.32,549.56,343.16,549.68z"/>
	<path class="st5" d="M300.57,442.69c5.24-4.56,10.19-8.9,14.74-12.88c4.12,4.16,9.06,9.13,14.58,14.68
		c-2.21,3.06-4.96,7.26-8.12,11.13c-2.9,3.55-3.75,7.31-3.01,11.78c3.63,22.15,7.15,44.34,10.7,66.51
		c1.54,9.67,3.06,19.34,4.68,29.66c-11.96-1.42-23.59-2.81-35.73-4.27c1.49-9.28,2.91-18.36,4.43-27.44
		c3.53-21.14,7.08-42.28,10.7-63.42c0.79-4.6-0.02-8.59-3.08-12.3C307.15,452.12,304.25,447.73,300.57,442.69z"/>
	<path class="st6" d="M198.13,617.72c-12.04-7.51-23.04-13.78-33.38-20.96c-9.16-6.36-7.08-24.57,3.24-29.04
		c10.54-4.56,21.68-3.86,33.33-2.34C195.84,582.35,196.73,599.19,198.13,617.72z"/>
	<path class="st7" d="M472.1,583.07c-17.74-2.63-34.88-5.19-52.01-7.74c-0.08-0.39-0.18-0.77-0.26-1.16
		c6.77-1.8,13.56-3.62,20.34-5.42c0.49-0.13,1.01-0.11,1.51-0.21C457.31,565.38,463.9,568.44,472.1,583.07z"/>
	<path class="st3" d="M211.73,203.58c69.53,0,138.36,0,208.59,0c-2.65,16.03-4.88,31.15-7.69,46.17
		c-3.75,20.07-13.11,37.38-26.68,52.62c-14.25,15.98-29.52,30.79-47.71,42.26c-21.63,13.63-34.7,13.66-54.51-2.59
		c-27.68-22.69-52.47-47.92-62.91-83.82C215.61,240.29,213.51,221.88,211.73,203.58z"/>
	<path class="st8" d="M336.96,60.04c18.9,6.33,37.3,12.32,51.77,25.72c4.92,4.56,8.59,10.88,11.68,16.97
		c9.19,18.11,14.81,37.56,20.42,57.8c-71.96-0.87-143.31-1.73-215.57-2.6c1.59-5.5,2.78-10.85,4.66-15.94
		c5.15-13.89,10.34-27.78,16.03-41.46c4.22-10.16,11.57-18.11,21.43-22.89c12.73-6.14,25.9-11.35,38.89-16.93
		c0.56-0.25,1.28-0.1,2.34-0.16c0,1.83,0.02,3.48,0,5.15c-0.31,24.54-0.64,49.08-0.95,73.62c-0.1,7.46,1.98,9.52,9.65,9.67
		c9.31,0.18,18.62,0.33,27.93,0.54c8.44,0.2,10.29-1.36,10.45-9.77c0.47-24.71,0.83-49.43,1.23-74.13
		C336.97,64,336.96,62.35,336.96,60.04z"/>
	<path class="st6" d="M446.84,171.85c0,7.3,0,14.01,0,21.29c-88.04-0.52-175.98-1.05-264.44-1.57c0.36-7.76,0.7-15.12,1.08-22.87
		C271.3,169.74,358.77,170.79,446.84,171.85z"/>
	<path class="st6" d="M325.19,138.03c-9.44,0-17.7,0-25.69,0c0-30.48,0-60.49,0-91.07c9.13,0,17.49,0,25.69,0
		C325.19,77.09,325.19,107.55,325.19,138.03z"/>
</g>
</svg>
