<?xml version="1.0" encoding="utf-8"?>
<!-- Generator: Adobe Illustrator 24.0.1, SVG Export Plug-In . SVG Version: 6.00 Build 0)  -->
<svg version="1.1" id="Слой_1" xmlns="http://www.w3.org/2000/svg" xmlns:xlink="http://www.w3.org/1999/xlink" x="0px" y="0px"
	 viewBox="0 0 612 792" style="enable-background:new 0 0 612 792;" xml:space="preserve">
<style type="text/css">
	.st0{display:none;}
	.st1{fill:#FFFFFF;}
</style>
<g>
	<path class="st0" d="M-144,846c0-299.93,0-599.99,0-900c300.03,0,600.01,0,900,0c0,299.96,0,599.88,0,900
		C455.99,846,155.97,846-144,846z M344.55,622.26c-0.76-1.68-1.23-2.53-1.55-3.44c-5.08-14.45-10.05-28.94-15.29-43.33
		c-1.22-3.35-0.78-5.78,1.15-8.73c7.98-12.14,15.33-24.63,17.75-39.31c3.22-19.52-7.65-35.67-25.82-37.19
		c-9.74-0.82-19.66-0.75-29.41-0.01c-15.21,1.15-26.98,14.48-26.56,29.63c0.15,5.42,0.58,11.25,2.69,16.1
		c4.49,10.32,9.91,20.28,15.51,30.06c2.02,3.53,2.61,6.28,1.18,10.11c-5.11,13.73-9.87,27.59-14.79,41.39
		c-0.4,1.13-0.99,2.19-1.83,4.01c-3.09-9.45-5.94-17.98-8.68-26.54c-15.05-47.11-30.06-94.24-45.13-141.35
		c-2.35-7.35-5.53-8.5-11.78-4.37c-23.44,15.47-48.46,28.02-74.36,38.64c-15.98,6.56-32.63,11.56-49.13,16.77
		c-16.46,5.2-28.2,15.69-37,30.24c-9.97,16.49-12.08,34.83-12.35,53.34c-0.29,19.29,0.83,38.61,1.4,57.91
		c0.4,13.37,5.09,22.96,18.26,29.7c76.08,38.95,157.42,55.25,242.03,58.05c13.46,0.44,26.97-0.35,40.44-0.97
		c15.61-0.71,31.26-1.27,46.79-2.94c41.8-4.49,82.62-13.66,122.42-27.21c23.22-7.9,45.75-17.43,67.2-29.39
		c5.35-2.98,10.3-6.55,11.56-13c1.27-6.51,2.59-13.11,2.83-19.71c0.61-16.81,1-33.64,0.75-50.45c-0.2-13.95-0.55-27.98-5.8-41.32
		c-8.39-21.35-21.63-37.69-44.52-44.58c-10.2-3.07-20.34-6.37-30.4-9.88c-32.85-11.47-63.72-27.01-93.21-45.42
		c-5.82-3.63-8.82-2.44-10.82,3.87c-13.32,42.07-26.64,84.14-39.95,126.21C353.71,593.27,349.26,607.36,344.55,622.26z
		 M443.92,236.16c5.66-23.45,6.25-46.99,5.69-70.65c-0.69-29.25-18.63-51.62-46.57-57.87c-2.11-0.47-4.84-2.08-5.65-3.9
		c-9.56-21.33-26.38-34.21-47.82-41.81c-14.31-5.07-28.94-2.4-43.5-1.55c-13.26,0.77-26.54,2.13-39.79,1.89
		c-16.93-0.31-33.83-2.09-50.75-3.01c-13.14-0.72-16.19,3.63-11.25,16.12c1.74,4.41,4.39,8.46,6.76,12.92
		c-1.86,1.54-3.77,3.12-5.68,4.7c-16.75,13.81-28.66,30.89-35.27,51.65c-7.11,22.34-7.31,45.19-5.24,68.19
		c0.71,7.87,2.14,15.68,3.15,22.88c-3.53,1.55-6.97,2.46-9.69,4.39c-5.81,4.12-7.12,10.47-7.45,17.2
		c-0.79,15.98,1.24,31.65,6.38,46.7c3.63,10.63,8.36,20.95,13.4,31.01c2.33,4.66,6.37,8.54,12.52,8.83
		c0.89,0.04,2.14,1.77,2.48,2.94c1.82,6.22,3.2,12.57,5.1,18.76c15.46,50.36,55.88,85.84,112.25,87.89
		c28.74,1.04,53.9-7.91,76-25.22c22.25-17.42,35.26-41.3,43.04-68.16c1.55-5.35,2.8-10.79,4.23-16.37
		c5.62,1.21,9.25-1.36,12.26-4.95c2.23-2.66,4.54-5.41,6.06-8.49c11.29-22.89,17.34-47.04,16.66-72.68
		C460.88,244.89,456.44,239.42,443.92,236.16z"/>
	<path class="st1" d="M344.55,622.26c4.71-14.89,9.16-28.99,13.62-43.08c13.31-42.07,26.62-84.14,39.95-126.21
		c2-6.31,5-7.5,10.82-3.87c29.49,18.4,60.36,33.95,93.21,45.42c10.06,3.51,20.2,6.81,30.4,9.88c22.89,6.88,36.13,23.23,44.52,44.58
		c5.24,13.34,5.59,27.37,5.8,41.32c0.25,16.81-0.15,33.65-0.75,50.45c-0.24,6.6-1.56,13.2-2.83,19.71
		c-1.26,6.45-6.21,10.02-11.56,13c-21.45,11.96-43.98,21.49-67.2,29.39c-39.81,13.54-80.63,22.72-122.42,27.21
		c-15.52,1.67-31.18,2.22-46.79,2.94c-13.47,0.62-26.99,1.41-40.44,0.97c-84.61-2.8-165.95-19.1-242.03-58.05
		c-13.17-6.74-17.87-16.33-18.26-29.7c-0.57-19.3-1.69-38.62-1.4-57.91c0.28-18.51,2.38-36.85,12.35-53.34
		c8.8-14.55,20.54-25.04,37-30.24c16.5-5.22,33.15-10.22,49.13-16.77c25.9-10.62,50.92-23.17,74.36-38.64
		c6.25-4.13,9.43-2.98,11.78,4.37c15.07,47.11,30.08,94.23,45.13,141.35c2.74,8.56,5.58,17.09,8.68,26.54
		c0.84-1.82,1.43-2.88,1.83-4.01c4.92-13.8,9.69-27.66,14.79-41.39c1.42-3.83,0.83-6.58-1.18-10.11
		c-5.6-9.78-11.01-19.74-15.51-30.06c-2.11-4.85-2.54-10.69-2.69-16.1c-0.42-15.15,11.35-28.48,26.56-29.63
		c9.76-0.74,19.67-0.81,29.41,0.01c18.16,1.52,29.04,17.67,25.82,37.19c-2.42,14.68-9.77,27.17-17.75,39.31
		c-1.93,2.94-2.37,5.38-1.15,8.73c5.24,14.39,10.21,28.88,15.29,43.33C343.32,619.72,343.79,620.58,344.55,622.26z M205.81,458.03
		c-1.78,1.01-3.06,1.76-4.36,2.46c-15.2,8.27-30.32,16.69-45.61,24.78c-22.64,11.98-46.84,20.03-71.37,26.96
		c-21.66,6.12-34.82,20.67-41.07,41.27c-3.43,11.29-4.86,23.41-5.62,35.25c-1.37,21.44-0.81,42.92,2.45,64.26
		c0.94,6.15,4.04,9.92,9.59,12.84c39.9,20.99,81.92,35.95,125.93,45.54c29.75,6.48,59.8,11.14,90.15,12.93
		c20.08,1.18,40.29,0.27,60.44,0.27c28.84,0.01,57.39-2.97,85.73-8.24c50.15-9.33,98.54-23.86,144.3-46.92
		c10.57-5.32,16.65-11.94,16.63-23.85c0-2.8,0.96-5.6,0.94-8.39c-0.18-22.46,1.46-45.16-1.27-67.32
		c-3.26-26.52-15.32-48.64-43.72-57.05c-3.67-1.09-7.26-2.44-10.92-3.56c-37.65-11.43-73.27-27.35-106.67-48.19
		c-1.62-1.01-3.33-1.86-5.26-2.93c-0.91,2.67-1.7,4.85-2.4,7.06c-17.52,55.42-35.02,110.84-52.57,166.25
		c-1.04,3.3-1.87,7.02-6.36,7.29c-4.72,0.29-5.55-3.54-6.7-6.78c-6.46-18.2-12.75-36.46-19.3-54.63c-1.91-5.3-1.49-9.7,1.75-14.53
		c8.29-12.33,15.71-25.17,18.01-40.23c1.32-8.65-2.09-15.26-9.54-19.62c-11.59-6.78-24.12-6.54-36.38-3.86
		c-17.08,3.74-22.62,14.57-17.62,31.42c3.66,12.32,10.26,23.1,17.5,33.51c2.66,3.83,3.01,7.38,1.4,11.67
		c-3.79,10.13-7.26,20.39-10.89,30.58c-3.25,9.09-6.38,18.23-9.96,27.19c-0.71,1.77-3.26,3.99-4.87,3.92
		c-1.95-0.08-3.98-2.2-5.64-3.79c-0.87-0.83-1.09-2.39-1.49-3.66c-13.67-42.49-27.32-84.98-40.97-127.47
		C215.34,487.78,210.63,473.05,205.81,458.03z"/>
	<path class="st1" d="M443.92,236.16c12.52,3.26,16.96,8.73,17.3,21.39c0.68,25.64-5.38,49.79-16.66,72.68
		c-1.52,3.08-3.83,5.83-6.06,8.49c-3,3.59-6.64,6.15-12.26,4.95c-1.43,5.58-2.68,11.02-4.23,16.37
		c-7.78,26.86-20.79,50.74-43.04,68.16c-22.1,17.31-47.26,26.26-76,25.22c-56.37-2.05-96.79-37.52-112.25-87.89
		c-1.9-6.19-3.28-12.54-5.1-18.76c-0.34-1.17-1.58-2.9-2.48-2.94c-6.15-0.28-10.18-4.16-12.52-8.83
		c-5.04-10.06-9.76-20.38-13.4-31.01c-5.14-15.04-7.18-30.72-6.38-46.7c0.33-6.73,1.64-13.08,7.45-17.2
		c2.72-1.93,6.16-2.83,9.69-4.39c-1.01-7.21-2.44-15.01-3.15-22.88c-2.07-23-1.87-45.86,5.24-68.19
		c6.61-20.77,18.52-37.85,35.27-51.65c1.91-1.57,3.82-3.15,5.68-4.7c-2.36-4.46-5.01-8.51-6.76-12.92
		c-4.94-12.49-1.88-16.83,11.25-16.12c16.92,0.93,33.82,2.7,50.75,3.01c13.25,0.24,26.53-1.11,39.79-1.89
		c14.56-0.85,29.19-3.52,43.5,1.55c21.44,7.6,38.26,20.48,47.82,41.81c0.81,1.81,3.54,3.42,5.65,3.9
		c27.94,6.25,45.88,28.63,46.57,57.87C450.17,189.17,449.58,212.7,443.92,236.16z M210.04,67.59c3.77,6.26,6.65,11.39,9.88,16.28
		c1.82,2.75,2.94,5.42,0.65,8.14c-1.59,1.88-3.73,3.31-5.73,4.81c-29.84,22.41-41.25,53.72-42.8,89.55
		c-0.73,16.86,1.8,33.49,5.52,49.93c1.54,6.79,0.18,8.58-6.47,8.82c-6.86,0.25-9.64,2.44-11.06,9.16c-0.58,2.74-1.3,5.68-0.9,8.37
		c1.88,12.61,3.17,25.43,6.55,37.66c2.89,10.45,8.12,20.3,12.85,30.16c0.99,2.06,4.19,3.91,6.6,4.26c6.21,0.91,7.46,1.72,8.77,7.97
		c3.3,15.72,8.19,30.93,16.08,44.98c23.13,41.2,59.75,59.74,105.47,56.66c34.77-2.34,63.06-19.78,81.8-50.53
		c9.92-16.27,16.28-33.82,20.15-52.39c1.34-6.44,3.31-7.48,9.2-7.18c2.13,0.11,5.35-1.26,6.38-2.97c3.57-5.97,6.99-12.17,9.37-18.68
		c6.38-17.4,11.07-35.23,10.56-54.01c-0.21-7.62-3.63-12.27-9.56-13.35c-8.69-1.58-9.2-2.49-7.79-11.58
		c1.91-12.3,4.26-24.57,5.24-36.95c1.11-14.06,2.13-28.33-1.85-42.18c-5.91-20.56-16.53-36.42-40.21-38.72
		c-4.9-0.48-8.08-3.59-9.82-8.17c-3.25-8.6-8.5-15.77-15.42-21.8c-17.84-15.53-38.48-20.96-61.74-17.59
		c-25.67,3.72-51.42,2.86-77.18,0.85C227.05,68.53,219.48,68.17,210.04,67.59z"/>
	<path class="st0" d="M205.81,458.03c4.82,15.02,9.53,29.75,14.26,44.47c13.65,42.49,27.31,84.98,40.97,127.47
		c0.41,1.27,0.62,2.83,1.49,3.66c1.66,1.59,3.69,3.7,5.64,3.79c1.61,0.07,4.16-2.15,4.87-3.92c3.58-8.96,6.71-18.1,9.96-27.19
		c3.64-10.19,7.11-20.45,10.89-30.58c1.6-4.29,1.26-7.84-1.4-11.67c-7.24-10.41-13.84-21.2-17.5-33.51
		c-5.01-16.85,0.53-27.69,17.62-31.42c12.26-2.68,24.79-2.91,36.38,3.86c7.45,4.36,10.85,10.97,9.54,19.62
		c-2.29,15.06-9.72,27.9-18.01,40.23c-3.24,4.82-3.66,9.23-1.75,14.53c6.55,18.17,12.84,36.43,19.3,54.63
		c1.15,3.24,1.98,7.08,6.7,6.78c4.49-0.28,5.31-4,6.36-7.29c17.54-55.41,35.04-110.83,52.57-166.25c0.7-2.21,1.49-4.39,2.4-7.06
		c1.93,1.07,3.65,1.92,5.26,2.93c33.4,20.84,69.02,36.76,106.67,48.19c3.66,1.11,7.25,2.47,10.92,3.56
		c28.4,8.41,40.46,30.53,43.72,57.05c2.72,22.16,1.08,44.86,1.27,67.32c0.02,2.79-0.95,5.59-0.94,8.39
		c0.02,11.91-6.06,18.52-16.63,23.85c-45.76,23.05-94.15,37.59-144.3,46.92c-28.34,5.27-56.89,8.25-85.73,8.24
		c-20.15-0.01-40.36,0.91-60.44-0.27c-30.35-1.79-60.4-6.45-90.15-12.93c-44.01-9.59-86.04-24.55-125.93-45.54
		c-5.55-2.92-8.65-6.69-9.59-12.84c-3.26-21.34-3.82-42.81-2.45-64.26c0.76-11.85,2.19-23.96,5.62-35.25
		c6.25-20.59,19.4-35.15,41.07-41.27c24.53-6.93,48.73-14.98,71.37-26.96c15.29-8.09,30.42-16.5,45.61-24.78
		C202.75,459.79,204.03,459.04,205.81,458.03z"/>
	<path class="st0" d="M210.04,67.59c9.45,0.58,17.01,0.94,24.56,1.53c25.76,2,51.5,2.87,77.18-0.85
		c23.26-3.37,43.9,2.06,61.74,17.59c6.92,6.02,12.16,13.2,15.42,21.8c1.74,4.59,4.92,7.7,9.82,8.17
		c23.68,2.3,34.3,18.16,40.21,38.72c3.98,13.84,2.96,28.12,1.85,42.18c-0.98,12.38-3.33,24.66-5.24,36.95
		c-1.41,9.09-0.9,10,7.79,11.58c5.92,1.08,9.35,5.72,9.56,13.35c0.51,18.78-4.18,36.61-10.56,54.01
		c-2.39,6.51-5.81,12.71-9.37,18.68c-1.02,1.71-4.24,3.07-6.38,2.97c-5.89-0.3-7.86,0.74-9.2,7.18
		c-3.86,18.57-10.23,36.12-20.15,52.39c-18.75,30.76-47.03,48.19-81.8,50.53c-45.72,3.08-82.34-15.46-105.47-56.66
		c-7.89-14.05-12.78-29.25-16.08-44.98c-1.31-6.25-2.56-7.06-8.77-7.97c-2.41-0.35-5.61-2.2-6.6-4.26
		c-4.73-9.86-9.96-19.71-12.85-30.16c-3.38-12.23-4.67-25.05-6.55-37.66c-0.4-2.69,0.31-5.63,0.9-8.37
		c1.42-6.72,4.2-8.92,11.06-9.16c6.65-0.24,8.01-2.02,6.47-8.82c-3.73-16.44-6.25-33.07-5.52-49.93
		c1.55-35.84,12.96-67.15,42.8-89.55c2-1.5,4.14-2.93,5.73-4.81c2.29-2.72,1.17-5.39-0.65-8.14
		C216.68,78.98,213.8,73.85,210.04,67.59z M393.58,152.59c-1.68-3.55-2.43-6.59-4.26-8.69c-3.81-4.38-8-8.5-12.39-12.3
		c-6.77-5.86-10.3-6.09-18.02-1.55c-4.15,2.44-7.91,7.09-12.12,7.43c-4.42,0.36-9.28-3-13.69-5.24c-1.67-0.85-3.22-2.91-3.8-4.74
		c-1.36-4.25-1.94-8.74-3.12-13.06c-1.45-5.32-5.16-7.98-10.64-8.05c-5.17-0.07-10.33-0.09-15.5-0.07
		c-12.14,0.05-15.62,2.56-17.16,14.61c-0.99,7.72-3.42,13.17-11.77,14.49c-1.42,0.23-2.69,1.55-4.1,1.74
		c-1.72,0.23-3.85,0.33-5.25-0.47c-4.02-2.33-7.69-5.25-11.63-7.73c-4.63-2.92-9.3-2.72-13.31,1.05
		c-5.08,4.78-9.98,9.78-14.77,14.86c-3.78,4.01-3.91,8.76-1.37,13.42c2.31,4.23,5.19,8.14,7.53,12.35c0.75,1.34,1.19,3.36,0.77,4.76
		c-1.19,3.97-2.65,7.91-4.53,11.6c-0.8,1.58-2.72,3.15-4.43,3.6c-5.12,1.35-10.43,2-15.6,3.19c-3.67,0.85-5.64,3.41-5.67,7.24
		c-0.05,8.32-0.13,16.64,0,24.95c0.08,5.17,3.32,8.19,7.87,9.83c2.01,0.72,4.22,1.16,6.35,1.2c7.8,0.15,13.41,2.88,14.86,11.34
		c0.24,1.43,1.54,2.69,1.71,4.11c0.21,1.72,0.29,3.86-0.53,5.24c-2.54,4.29-5.66,8.23-8.33,12.45c-2.39,3.76-2.4,7.7,0.77,11.03
		c5.63,5.89,11.39,11.67,17.25,17.33c3.27,3.16,7.34,3.22,11.11,1.18c4.23-2.3,8.3-4.95,12.18-7.81c2.43-1.79,4.36-1.85,7.26-0.97
		c8.87,2.68,14.33,7.7,14.47,17.48c0.03,1.78,0.79,3.56,1.32,5.31c1.41,4.65,4.48,7.29,9.42,7.5c6.31,0.27,12.62,0.69,18.93,0.7
		c9.25,0.01,13.62-2.62,14.11-11.75c0.61-11.34,6.09-16.98,16.28-19.3c1.8-0.41,4.16-0.37,5.71,0.48c4.22,2.31,8.1,5.24,12.2,7.79
		c4.3,2.67,8.57,2.62,12.3-1.05c5.46-5.36,10.84-10.82,16.17-16.31c3.49-3.59,3.65-7.81,1.28-11.94c-2.57-4.47-5.67-8.62-8.29-13.06
		c-0.71-1.19-1.07-3.09-0.65-4.35c1.32-3.93,2.88-7.82,4.78-11.5c0.7-1.36,2.45-2.61,3.96-3.03c4.79-1.34,9.71-2.19,14.54-3.37
		c4.57-1.11,7.16-4.01,7.41-8.82c0.26-5.14,0.71-10.29,0.74-15.43c0.08-14.57-1.4-16.64-15.78-19.01
		c-6.74-1.11-10.73-3.46-13.65-10.37c-2.63-6.23-2.02-10.1,1.7-15.05C389.2,161.84,391.14,157.08,393.58,152.59z"/>
	<path class="st1" d="M393.58,152.59c-2.44,4.49-4.38,9.25-7.37,13.23c-3.71,4.94-4.33,8.82-1.7,15.05
		c2.92,6.9,6.91,9.26,13.65,10.37c14.38,2.37,15.86,4.44,15.78,19.01c-0.03,5.15-0.48,10.29-0.74,15.43
		c-0.24,4.81-2.84,7.71-7.41,8.82c-4.84,1.18-9.76,2.03-14.54,3.37c-1.52,0.42-3.26,1.68-3.96,3.03c-1.9,3.68-3.46,7.57-4.78,11.5
		c-0.42,1.26-0.05,3.16,0.65,4.35c2.62,4.44,5.73,8.59,8.29,13.06c2.37,4.13,2.21,8.35-1.28,11.94
		c-5.33,5.49-10.71,10.95-16.17,16.31c-3.74,3.67-8,3.72-12.3,1.05c-4.1-2.55-7.98-5.48-12.2-7.79c-1.55-0.85-3.91-0.89-5.71-0.48
		c-10.19,2.32-15.67,7.96-16.28,19.3c-0.49,9.13-4.86,11.76-14.11,11.75c-6.31-0.01-12.62-0.43-18.93-0.7
		c-4.94-0.21-8.01-2.85-9.42-7.5c-0.53-1.75-1.29-3.53-1.32-5.31c-0.14-9.78-5.6-14.8-14.47-17.48c-2.91-0.88-4.84-0.82-7.26,0.97
		c-3.88,2.86-7.95,5.51-12.18,7.81c-3.77,2.05-7.83,1.99-11.11-1.18c-5.86-5.66-11.62-11.44-17.25-17.33
		c-3.17-3.32-3.16-7.26-0.77-11.03c2.68-4.21,5.79-8.16,8.33-12.45c0.82-1.39,0.74-3.52,0.53-5.24c-0.17-1.42-1.47-2.68-1.71-4.11
		c-1.45-8.46-7.07-11.19-14.86-11.34c-2.13-0.04-4.34-0.48-6.35-1.2c-4.55-1.64-7.79-4.66-7.87-9.83c-0.13-8.32-0.04-16.63,0-24.95
		c0.02-3.83,2-6.39,5.67-7.24c5.17-1.19,10.47-1.85,15.6-3.19c1.71-0.45,3.63-2.02,4.43-3.6c1.88-3.69,3.34-7.63,4.53-11.6
		c0.42-1.4-0.02-3.42-0.77-4.76c-2.35-4.21-5.22-8.12-7.53-12.35c-2.54-4.65-2.41-9.4,1.37-13.42c4.78-5.09,9.68-10.08,14.77-14.86
		c4.01-3.77,8.68-3.98,13.31-1.05c3.94,2.49,7.61,5.41,11.63,7.73c1.39,0.81,3.52,0.7,5.25,0.47c1.42-0.19,2.68-1.51,4.1-1.74
		c8.35-1.32,10.78-6.77,11.77-14.49c1.54-12.05,5.03-14.56,17.16-14.61c5.17-0.02,10.33,0,15.5,0.07c5.49,0.08,9.19,2.74,10.64,8.05
		c1.18,4.32,1.76,8.81,3.12,13.06c0.58,1.83,2.13,3.89,3.8,4.74c4.41,2.24,9.27,5.59,13.69,5.24c4.21-0.34,7.97-4.99,12.12-7.43
		c7.72-4.54,11.25-4.3,18.02,1.55c4.4,3.8,8.58,7.92,12.39,12.3C391.15,146,391.9,149.04,393.58,152.59z M367.31,291.68
		c0.83-0.56,1.74-1,2.42-1.67c4.14-4.1,8.38-8.11,12.21-12.49c0.94-1.07,1.18-3.79,0.49-5.06c-2.33-4.21-5.01-8.28-7.98-12.07
		c-2.88-3.69-2.78-7.14-0.8-11.09c1.86-3.71,3.71-7.5,4.94-11.45c1.64-5.29,5.05-7.94,10.32-8.82c4.09-0.68,8.24-1.33,12.15-2.65
		c1.62-0.55,3.65-2.72,3.8-4.31c0.5-5.41,0.56-10.92,0.08-16.32c-0.15-1.72-2.21-4.12-3.9-4.68c-4.54-1.51-9.55-1.7-14-3.39
		c-2.97-1.13-6.08-3.45-7.76-6.1c-2.62-4.16-3.99-9.09-6.06-13.61c-1.58-3.46-1.77-6.64,0.62-9.83c1.6-2.13,3-4.41,4.48-6.62
		c7.08-10.59,7.17-10.87-2.79-19.4c-8.62-7.37-6.91-8.32-16.57-1.07c-7.7,5.78-14.55,8.97-22.95,2.18c-0.37-0.3-0.91-0.46-1.39-0.53
		c-10.39-1.43-14.14-7.75-15.11-17.83c-0.99-10.23-1.89-10.22-12-10.24c-2.83-0.01-5.66,0.06-8.5,0.1c-4.01,0.06-6.63,1.74-7.3,5.97
		c-0.59,3.78-1.42,7.51-2.03,11.29c-0.7,4.33-2.95,7.22-7.1,8.84c-4.95,1.94-9.67,4.62-14.74,6.07c-2.61,0.75-6.13,0.23-8.63-0.98
		c-3.69-1.78-6.93-4.58-10.21-7.14c-3.42-2.68-6.44-2.92-9.53,0.5c-2.9,3.2-5.97,6.26-9.02,9.32c-2.32,2.34-2.68,4.66-0.69,7.49
		c2.68,3.81,4.92,7.93,7.68,11.68c2.5,3.4,2.43,6.55,0.71,10.23c-2.11,4.51-4.24,9.11-5.49,13.9c-1.29,4.9-4.11,6.67-8.82,7.07
		c-4.13,0.35-8.2,1.33-12.29,2.04c-3.18,0.55-4.97,2-4.75,5.69c0.3,4.97,0.11,9.98,0.06,14.97c-0.04,3.81,1.8,5.86,5.51,6.45
		c4.27,0.68,8.73,0.87,12.71,2.35c2.99,1.12,6.18,3.44,7.8,6.12c2.71,4.51,4.25,9.73,6.27,14.65c1.43,3.48,1.33,6.67-1.13,9.81
		c-2.77,3.54-5.11,7.4-7.83,10.98c-1.7,2.23-1.85,4.05,0.23,6.08c3.93,3.83,7.79,7.75,11.65,11.66c1.93,1.95,3.84,2.18,6.15,0.52
		c3.78-2.72,7.81-5.12,11.52-7.93c3.31-2.51,6.57-2.75,10.23-1.03c4.22,1.98,8.44,3.98,12.78,5.67c4.16,1.61,6.39,4.6,7.35,8.76
		c0.97,4.21,2.01,8.42,2.8,12.67c0.54,2.92,2.18,4.39,5.01,4.59c3.98,0.29,7.97,0.69,11.95,0.65c7.69-0.08,8.34-0.68,9.87-8.08
		c0.67-3.24,1.12-6.53,1.62-9.81c0.66-4.36,3.04-7.12,7.2-8.7c4.66-1.76,9.23-3.79,13.75-5.89c3.48-1.62,6.59-1.63,9.79,0.71
		c3.76,2.75,7.68,5.29,11.57,7.86C364.74,290.49,365.99,291,367.31,291.68z"/>
	<path class="st0" d="M367.31,291.68c-1.32-0.68-2.57-1.2-3.67-1.92c-3.89-2.57-7.81-5.11-11.57-7.86c-3.2-2.35-6.32-2.33-9.79-0.71
		c-4.52,2.1-9.09,4.13-13.75,5.89c-4.16,1.57-6.55,4.33-7.2,8.7c-0.49,3.28-0.95,6.57-1.62,9.81c-1.53,7.4-2.18,7.99-9.87,8.08
		c-3.98,0.04-7.97-0.36-11.95-0.65c-2.83-0.2-4.46-1.67-5.01-4.59c-0.79-4.25-1.83-8.45-2.8-12.67c-0.96-4.16-3.19-7.15-7.35-8.76
		c-4.34-1.69-8.57-3.68-12.78-5.67c-3.67-1.73-6.92-1.48-10.23,1.03c-3.71,2.81-7.73,5.21-11.52,7.93
		c-2.31,1.66-4.22,1.44-6.15-0.52c-3.86-3.91-7.71-7.82-11.65-11.66c-2.08-2.03-1.93-3.85-0.23-6.08c2.72-3.57,5.06-7.44,7.83-10.98
		c2.46-3.14,2.56-6.34,1.13-9.81c-2.02-4.92-3.56-10.14-6.27-14.65c-1.61-2.68-4.81-5-7.8-6.12c-3.98-1.49-8.44-1.68-12.71-2.35
		c-3.71-0.59-5.55-2.64-5.51-6.45c0.06-4.99,0.24-10-0.06-14.97c-0.22-3.69,1.57-5.14,4.75-5.69c4.09-0.71,8.17-1.69,12.29-2.04
		c4.7-0.4,7.53-2.17,8.82-7.07c1.26-4.79,3.38-9.39,5.49-13.9c1.73-3.69,1.79-6.84-0.71-10.23c-2.76-3.75-5-7.87-7.68-11.68
		c-1.99-2.83-1.64-5.15,0.69-7.49c3.05-3.07,6.12-6.12,9.02-9.32c3.09-3.41,6.11-3.18,9.53-0.5c3.28,2.57,6.51,5.36,10.21,7.14
		c2.5,1.21,6.02,1.73,8.63,0.98c5.08-1.45,9.79-4.13,14.74-6.07c4.15-1.62,6.4-4.52,7.1-8.84c0.61-3.77,1.43-7.51,2.03-11.29
		c0.66-4.23,3.28-5.91,7.3-5.97c2.83-0.04,5.67-0.11,8.5-0.1c10.1,0.03,11.01,0.01,12,10.24c0.97,10.08,4.72,16.4,15.11,17.83
		c0.48,0.07,1.02,0.23,1.39,0.53c8.4,6.79,15.25,3.6,22.95-2.18c9.67-7.25,7.96-6.3,16.57,1.07c9.96,8.53,9.87,8.8,2.79,19.4
		c-1.48,2.22-2.88,4.49-4.48,6.62c-2.39,3.19-2.2,6.38-0.62,9.83c2.07,4.52,3.44,9.46,6.06,13.61c1.67,2.65,4.78,4.97,7.76,6.1
		c4.45,1.69,9.45,1.88,14,3.39c1.69,0.56,3.75,2.96,3.9,4.68c0.48,5.41,0.41,10.91-0.08,16.32c-0.15,1.59-2.17,3.76-3.8,4.31
		c-3.9,1.32-8.06,1.96-12.15,2.65c-5.27,0.88-8.67,3.53-10.32,8.82c-1.23,3.95-3.08,7.73-4.94,11.45c-1.98,3.95-2.09,7.41,0.8,11.09
		c2.97,3.79,5.65,7.86,7.98,12.07c0.7,1.26,0.45,3.98-0.49,5.06c-3.83,4.38-8.07,8.39-12.21,12.49
		C369.05,290.69,368.13,291.12,367.31,291.68z M359.59,215.03c-0.01-32.28-22.27-54.42-53.71-55.33
		c-26.11-0.75-53.99,23.42-53.75,54.19c0.24,30.56,26.07,54.06,52.54,53.31C336.6,266.3,359.6,245.27,359.59,215.03z"/>
	<path class="st1" d="M359.59,215.03c0.01,30.24-23,51.27-54.92,52.18c-26.47,0.75-52.3-22.75-52.54-53.31
		c-0.24-30.77,27.63-54.94,53.75-54.19C337.32,160.61,359.58,182.75,359.59,215.03z M351.19,215.13
		c-0.64-27.15-18.84-45.93-45.22-46.86c-23.72-0.83-45.27,21.57-45.15,45.52c0.13,24.5,20.6,45.17,44.25,44.93
		C335.65,258.42,350.47,234.85,351.19,215.13z"/>
	<path class="st0" d="M351.19,215.13c-0.72,19.72-15.54,43.29-46.12,43.6c-23.65,0.24-44.12-20.43-44.25-44.93
		c-0.13-23.95,21.43-46.35,45.15-45.52C332.35,169.19,350.55,187.97,351.19,215.13z"/>
</g>
</svg>
